<?xml version="1.0" encoding="UTF-8" standalone="no"?>
<!-- Created with Inkscape (http://www.inkscape.org/) -->

<svg
   width="36.003407mm"
   height="23.459511mm"
   viewBox="0 0 36.003407 23.459511"
   version="1.1"
   id="svg1937"
   inkscape:version="1.1 (1:1.1+202105261517+ce6663b3b7)"
   sodipodi:docname="circuitosCyS.svg"
   xmlns:inkscape="http://www.inkscape.org/namespaces/inkscape"
   xmlns:sodipodi="http://sodipodi.sourceforge.net/DTD/sodipodi-0.dtd"
   xmlns="http://www.w3.org/2000/svg"
   xmlns:svg="http://www.w3.org/2000/svg">
  <sodipodi:namedview
     id="namedview1939"
     pagecolor="#ffffff"
     bordercolor="#666666"
     borderopacity="1.0"
     inkscape:pageshadow="2"
     inkscape:pageopacity="0.0"
     inkscape:pagecheckerboard="0"
     inkscape:document-units="mm"
     showgrid="false"
     fit-margin-top="0"
     fit-margin-left="0"
     fit-margin-right="0"
     fit-margin-bottom="0"
     inkscape:zoom="1.3416246"
     inkscape:cx="153.17251"
     inkscape:cy="42.113122"
     inkscape:window-width="1920"
     inkscape:window-height="1136"
     inkscape:window-x="0"
     inkscape:window-y="27"
     inkscape:window-maximized="1"
     inkscape:current-layer="layer1" />
  <defs
     id="defs1934" />
  <g
     inkscape:label="Layer 1"
     inkscape:groupmode="layer"
     id="layer1"
     transform="translate(-35.377446,-114.87981)">
    <g
       id="g1073"
       inkscape:label="circuitos_C"
       transform="matrix(0.35277777,0,0,-0.35277777,35.129161,139.3595)">
      <path
         d="m 80.2885,60.7246 h 22.4722 m 0,-49.166 H 80.2885"
         style="fill:none;stroke:#231f20;stroke-width:1.0001;stroke-linecap:butt;stroke-linejoin:miter;stroke-miterlimit:10;stroke-dasharray:none;stroke-opacity:1"
         id="path1075" />
      <path
         d="m 80.2885,55.2617 h 22.4722 m 0,-38.2405 H 80.2885 m 0,27.3146 h 22.4722 m 0,-16.3887 H 80.2885 m 0,10.9258 h 22.4722 m 0,-5.4629 H 80.2885 m 0,16.3888 h 22.4722 m 0,-27.3147 H 80.2885"
         style="fill:none;stroke:#bdbcbc;stroke-width:1.0001;stroke-linecap:butt;stroke-linejoin:miter;stroke-miterlimit:10;stroke-dasharray:1, 1;stroke-dashoffset:0;stroke-opacity:1"
         id="path1077" />
      <path
         d="m 0.7038,60.7246 h 22.4723 m 0,-49.166 H 0.7038"
         style="fill:none;stroke:#231f20;stroke-width:1.0001;stroke-linecap:butt;stroke-linejoin:miter;stroke-miterlimit:10;stroke-dasharray:none;stroke-opacity:1"
         id="path1079" />
      <path
         d="m 0.7038,55.2617 h 22.4723 m 0,-38.2405 H 0.7038 m 0,27.3146 h 22.4723 m 0,-16.3887 H 0.7038 m 0,10.9258 h 22.4723 m 0,-5.4629 H 0.7038 m 0,16.3888 h 22.4723 m 0,-27.3147 H 0.7038"
         style="fill:none;stroke:#bdbcbc;stroke-width:1.0001;stroke-linecap:butt;stroke-linejoin:miter;stroke-miterlimit:10;stroke-dasharray:1, 1;stroke-dashoffset:0;stroke-opacity:1"
         id="path1081" />
      <path
         d="M 23.1761,68.8912 H 80.2885 V 3.3919 H 23.1761 Z"
         style="fill:#ffffff;fill-opacity:1;fill-rule:evenodd;stroke:#231f20;stroke-width:1.0001;stroke-linecap:butt;stroke-linejoin:miter;stroke-miterlimit:10;stroke-dasharray:none;stroke-opacity:1"
         id="path1083" />
      <path
         d="m 9.21,34.5781 v 8.5899 h 6.2102 v -1.014 h -5.074 v -2.63 h 4.752 v -1.008 h -4.752 V 35.5921 H 15.62 v -1.014"
         style="fill:#231f20;fill-opacity:1;fill-rule:evenodd;stroke:none"
         id="path1085" />
      <path
         d="m 88.3766,37.3382 1.0721,0.0939 c 0.0499,-0.4301 0.1678,-0.7821 0.354,-1.0579 0.186,-0.2761 0.474,-0.4981 0.864,-0.6682 0.3898,-0.1697 0.83,-0.2539 1.3178,-0.2539 0.434,0 0.8161,0.064 1.1481,0.1922 0.3319,0.1298 0.5799,0.3058 0.7421,0.5297 0.1618,0.2263 0.2438,0.47 0.2438,0.7362 0,0.2699 -0.078,0.504 -0.2359,0.7058 -0.1562,0.2021 -0.4141,0.3702 -0.7721,0.506 -0.2319,0.0902 -0.7399,0.2302 -1.5299,0.4201 -0.788,0.1899 -1.3419,0.3679 -1.658,0.536 -0.4099,0.2141 -0.716,0.4819 -0.9181,0.8 -0.1999,0.318 -0.2999,0.6741 -0.2999,1.0701 0,0.432 0.1219,0.8379 0.3679,1.2138 0.2461,0.3781 0.6061,0.6641 1.078,0.86 0.474,0.1942 0.9981,0.292 1.5761,0.292 0.6381,0 1.1979,-0.1018 1.686,-0.3079 0.4859,-0.2041 0.8601,-0.506 1.122,-0.904 0.2599,-0.3979 0.4019,-0.8501 0.4221,-1.3541 l -1.0902,-0.0819 c -0.0599,0.542 -0.258,0.9539 -0.5959,1.23 -0.3382,0.278 -0.8359,0.4161 -1.4961,0.4161 -0.688,0 -1.188,-0.1262 -1.5038,-0.3782 -0.3141,-0.252 -0.4722,-0.5558 -0.4722,-0.9099 0,-0.3101 0.1122,-0.5641 0.3342,-0.7619 0.2199,-0.2002 0.79,-0.404 1.7138,-0.612 0.9241,-0.2101 1.5582,-0.3921 1.902,-0.548 0.5001,-0.2321 0.87,-0.5241 1.1081,-0.8762 0.2378,-0.354 0.356,-0.7619 0.356,-1.222 0,-0.4578 -0.1301,-0.8878 -0.392,-1.292 -0.2619,-0.4039 -0.6381,-0.7177 -1.1279,-0.9439 -0.4901,-0.224 -1.042,-0.3359 -1.654,-0.3359 -0.7781,0 -1.4301,0.1119 -1.9542,0.3398 -0.5259,0.2262 -0.938,0.5661 -1.2379,1.0222 -0.2979,0.4538 -0.4561,0.97 -0.47,1.544"
         style="fill:#231f20;fill-opacity:1;fill-rule:evenodd;stroke:none"
         id="path1087" />
    </g>
  </g>
  <g
     inkscape:groupmode="layer"
     id="layer2"
     inkscape:label="Layer 2">
    <g
       id="g1022"
       inkscape:label="circuitos_S"
       transform="matrix(0.35277777,0,0,-0.35277777,-0.248285,24.47969)">
      <g
         id="g1872">
        <path
           d="m 80.2885,60.7246 h 22.4722 m 0,-49.166 H 80.2885"
           style="fill:none;stroke:#231f20;stroke-width:1.0001;stroke-linecap:butt;stroke-linejoin:miter;stroke-miterlimit:10;stroke-dasharray:none;stroke-opacity:1"
           id="path1024" />
        <path
           d="m 80.2885,55.2617 h 22.4722 m 0,-38.2405 H 80.2885 m 0,27.3146 h 22.4722 m 0,-16.3887 H 80.2885 m 0,10.9258 h 22.4722 m 0,-5.4629 H 80.2885 m 0,16.3888 h 22.4722 m 0,-27.3147 H 80.2885"
           style="fill:none;stroke:#bdbcbc;stroke-width:1.0001;stroke-linecap:butt;stroke-linejoin:miter;stroke-miterlimit:10;stroke-dasharray:1, 1;stroke-dashoffset:0;stroke-opacity:1"
           id="path1026" />
        <path
           d="m 0.7038,60.7246 h 22.4723 m 0,-49.166 H 0.7038"
           style="fill:none;stroke:#231f20;stroke-width:1.0001;stroke-linecap:butt;stroke-linejoin:miter;stroke-miterlimit:10;stroke-dasharray:none;stroke-opacity:1"
           id="path1028" />
        <path
           d="m 0.7038,55.2617 h 22.4723 m 0,-38.2405 H 0.7038 m 0,27.3146 h 22.4723 m 0,-16.3887 H 0.7038 m 0,10.9258 h 22.4723 m 0,-5.4629 H 0.7038 m 0,16.3888 h 22.4723 m 0,-27.3147 H 0.7038"
           style="fill:none;stroke:#bdbcbc;stroke-width:1.0001;stroke-linecap:butt;stroke-linejoin:miter;stroke-miterlimit:10;stroke-dasharray:1, 1;stroke-dashoffset:0;stroke-opacity:1"
           id="path1030" />
        <path
           d="M 23.1761,68.8912 H 80.2885 V 3.3919 H 23.1761 Z"
           style="fill:#ffffff;fill-opacity:1;fill-rule:evenodd;stroke:#231f20;stroke-width:1.0001;stroke-linecap:butt;stroke-linejoin:miter;stroke-miterlimit:10;stroke-dasharray:none;stroke-opacity:1"
           id="path1032" />
        <path
           d="m 9.21,34.5781 v 8.5899 h 6.2102 v -1.014 h -5.074 v -2.63 h 4.752 v -1.008 h -4.752 V 35.5921 H 15.62 v -1.014"
           style="fill:#231f20;fill-opacity:1;fill-rule:evenodd;stroke:none"
           id="path1034" />
        <path
           d="m 88.3766,37.3382 1.0721,0.0939 c 0.0499,-0.4301 0.1678,-0.7821 0.354,-1.0579 0.186,-0.2761 0.474,-0.4981 0.864,-0.6682 0.3898,-0.1697 0.83,-0.2539 1.3178,-0.2539 0.434,0 0.8161,0.064 1.1481,0.1922 0.3319,0.1298 0.5799,0.3058 0.7421,0.5297 0.1618,0.2263 0.2438,0.47 0.2438,0.7362 0,0.2699 -0.078,0.504 -0.2359,0.7058 -0.1562,0.2021 -0.4141,0.3702 -0.7721,0.506 -0.2319,0.0902 -0.7399,0.2302 -1.5299,0.4201 -0.788,0.1899 -1.3419,0.3679 -1.658,0.536 -0.4099,0.2141 -0.716,0.4819 -0.9181,0.8 -0.1999,0.318 -0.2999,0.6741 -0.2999,1.0701 0,0.432 0.1219,0.8379 0.3679,1.2138 0.2461,0.3781 0.6061,0.6641 1.078,0.86 0.474,0.1942 0.9981,0.292 1.5761,0.292 0.6381,0 1.1979,-0.1018 1.686,-0.3079 0.4859,-0.2041 0.8601,-0.506 1.122,-0.904 0.2599,-0.3979 0.4019,-0.8501 0.4221,-1.3541 l -1.0902,-0.0819 c -0.0599,0.542 -0.258,0.9539 -0.5959,1.23 -0.3382,0.278 -0.8359,0.4161 -1.4961,0.4161 -0.688,0 -1.188,-0.1262 -1.5038,-0.3782 -0.3141,-0.252 -0.4722,-0.5558 -0.4722,-0.9099 0,-0.3101 0.1122,-0.5641 0.3342,-0.7619 0.2199,-0.2002 0.79,-0.404 1.7138,-0.612 0.9241,-0.2101 1.5582,-0.3921 1.902,-0.548 0.5001,-0.2321 0.87,-0.5241 1.1081,-0.8762 0.2378,-0.354 0.356,-0.7619 0.356,-1.222 0,-0.4578 -0.1301,-0.8878 -0.392,-1.292 -0.2619,-0.4039 -0.6381,-0.7177 -1.1279,-0.9439 -0.4901,-0.224 -1.042,-0.3359 -1.654,-0.3359 -0.7781,0 -1.4301,0.1119 -1.9542,0.3398 -0.5259,0.2262 -0.938,0.5661 -1.2379,1.0222 -0.2979,0.4538 -0.4561,0.97 -0.47,1.544"
           style="fill:#231f20;fill-opacity:1;fill-rule:evenodd;stroke:none"
           id="path1036" />
        <path
           d="m 54.7211,33.0248 c 0.5261,-0.3643 1.014,-0.6282 1.4582,-0.7963 l -0.3339,-0.792 c -0.6163,0.2222 -1.2323,0.574 -1.8463,1.0542 -0.6358,-0.354 -1.3379,-0.5321 -2.1078,-0.5321 -0.7781,0 -1.4819,0.188 -2.1161,0.5622 -0.6318,0.3758 -1.1199,0.9019 -1.4618,1.5817 -0.3421,0.68 -0.5122,1.4462 -0.5122,2.2961 0,0.8481 0.1721,1.62 0.5162,2.3159 0.3438,0.6942 0.832,1.224 1.4678,1.5879 0.6341,0.3623 1.3442,0.5443 2.1279,0.5443 0.794,0 1.5081,-0.1882 2.1461,-0.5661 0.6361,-0.3762 1.122,-0.904 1.4559,-1.582 0.3342,-0.6781 0.5,-1.442 0.5,-2.2941 0,-0.7058 -0.106,-1.3419 -0.322,-1.906 -0.214,-0.5638 -0.538,-1.0559 -0.972,-1.4737 z m -2.5018,1.4538 c 0.6559,-0.1839 1.1959,-0.458 1.622,-0.822 0.6678,0.61 1.002,1.5259 1.002,2.7479 0,0.6962 -0.1182,1.3042 -0.354,1.8241 -0.2362,0.5179 -0.582,0.9221 -1.0361,1.2101 -0.4558,0.2857 -0.9661,0.4297 -1.5338,0.4297 -0.8462,0 -1.55,-0.2899 -2.1082,-0.8699 -0.5598,-0.58 -0.8379,-1.446 -0.8379,-2.5999 0,-1.116 0.2761,-1.9741 0.828,-2.5719 0.5539,-0.5961 1.26,-0.8961 2.1181,-0.8961 0.4079,0 0.79,0.076 1.15,0.228 -0.356,0.2321 -0.7322,0.396 -1.1262,0.492"
           style="fill:#231f20;fill-opacity:1;fill-rule:evenodd;stroke:none"
           id="path1038" />
        <path
           d="m 38.9903,53.1564 1.0899,-0.1341 c -0.1718,-0.638 -0.4898,-1.1321 -0.9539,-1.4839 -0.466,-0.3501 -1.0601,-0.5261 -1.7821,-0.5261 -0.9099,0 -1.6319,0.28 -2.164,0.8399 -0.5337,0.5601 -0.7999,1.3462 -0.7999,2.3581 0,1.048 0.2701,1.8598 0.8081,2.4381 0.54,0.578 1.2379,0.868 2.098,0.868 0.8319,0 1.512,-0.2841 2.0378,-0.8501 0.5281,-0.5661 0.792,-1.3641 0.792,-2.3899 0,-0.0641 -0.002,-0.1582 -0.006,-0.2821 h -4.64 c 0.0383,-0.684 0.2322,-1.2081 0.5803,-1.5701 0.3478,-0.3639 0.7798,-0.5459 1.2999,-0.5459 0.3858,0 0.7158,0.102 0.9899,0.3061 0.2741,0.2018 0.4901,0.5258 0.65,0.972 z m -3.462,1.7059 h 3.4739 c -0.0459,0.5219 -0.18,0.9159 -0.398,1.1761 -0.3359,0.4059 -0.7719,0.61 -1.3059,0.61 -0.4839,0 -0.8921,-0.1621 -1.222,-0.4861 -0.33,-0.324 -0.512,-0.758 -0.548,-1.3"
           style="fill:#231f20;fill-opacity:1;fill-rule:evenodd;stroke:none"
           id="path1040" />
        <path
           d="m 40.9842,53.0104 1.042,0.1639 c 0.0581,-0.4179 0.2219,-0.7379 0.4901,-0.9621 0.2659,-0.222 0.64,-0.3339 1.1219,-0.3339 0.4839,0 0.8439,0.1 1.0781,0.2959 0.2338,0.1981 0.352,0.43 0.352,0.6942 0,0.2398 -0.104,0.4258 -0.3121,0.5638 -0.144,0.0941 -0.504,0.2121 -1.078,0.3561 -0.7719,0.1961 -1.3099,0.3639 -1.6081,0.5079 -0.2979,0.142 -0.5258,0.3402 -0.6797,0.5922 -0.1542,0.252 -0.2322,0.5298 -0.2322,0.8339 0,0.2781 0.0641,0.5341 0.1919,0.7699 0.1262,0.2381 0.3002,0.434 0.5182,0.5902 0.1638,0.1199 0.388,0.2239 0.6698,0.3078 0.284,0.0839 0.5882,0.1262 0.9122,0.1262 0.4878,0 0.9159,-0.072 1.2858,-0.2121 0.3702,-0.14 0.642,-0.3299 0.8181,-0.57 0.176,-0.2421 0.2959,-0.5621 0.362,-0.9641 l -1.0299,-0.142 c -0.0482,0.3201 -0.1842,0.5701 -0.4082,0.7501 -0.2239,0.18 -0.5419,0.2701 -0.9518,0.2701 -0.4842,0 -0.83,-0.0802 -1.0361,-0.2401 -0.2081,-0.1601 -0.3121,-0.3481 -0.3121,-0.5621 0,-0.138 0.0442,-0.2599 0.1301,-0.3699 0.0859,-0.114 0.22,-0.2061 0.404,-0.2821 0.106,-0.0379 0.4161,-0.1278 0.932,-0.2678 0.7461,-0.2002 1.2659,-0.362 1.5599,-0.4901 0.2962,-0.1259 0.5281,-0.3121 0.6962,-0.5539 0.1678,-0.2421 0.252,-0.542 0.252,-0.902 0,-0.3521 -0.104,-0.682 -0.3081,-0.9941 -0.2061,-0.3099 -0.5021,-0.55 -0.8881,-0.72 -0.3858,-0.1701 -0.8238,-0.254 -1.3119,-0.254 -0.8099,0 -1.4258,0.1681 -1.8499,0.504 -0.4241,0.3359 -0.6942,0.8339 -0.8101,1.4941"
           style="fill:#231f20;fill-opacity:1;fill-rule:evenodd;stroke:none"
           id="path1042" />
        <path
           d="m 49.7083,52.0963 0.152,-0.9321 c -0.296,-0.0618 -0.5621,-0.0938 -0.796,-0.0938 -0.3841,0 -0.68,0.0598 -0.892,0.182 -0.2101,0.1199 -0.3581,0.28 -0.444,0.4779 -0.0858,0.1959 -0.1301,0.612 -0.1301,1.2441 v 3.5799 h -0.7738 v 0.8201 h 0.7738 v 1.5417 l 1.05,0.6322 v -2.1739 h 1.0601 v -0.8201 h -1.0601 v -3.638 c 0,-0.3019 0.0181,-0.4941 0.0541,-0.58 0.038,-0.0861 0.0981,-0.1539 0.182,-0.206 0.0839,-0.0499 0.2041,-0.076 0.36,-0.076 0.1179,0 0.2721,0.0139 0.464,0.042"
           style="fill:#231f20;fill-opacity:1;fill-rule:evenodd;stroke:none"
           id="path1044" />
        <path
           d="m 54.6304,51.9202 c -0.392,-0.3319 -0.7682,-0.5658 -1.1282,-0.7038 -0.3619,-0.1361 -0.7497,-0.2041 -1.1639,-0.2041 -0.684,0 -1.2078,0.1661 -1.576,0.5 -0.366,0.3339 -0.55,0.762 -0.55,1.2801 0,0.3059 0.0681,0.584 0.2081,0.836 0.1381,0.252 0.32,0.4538 0.544,0.606 0.2259,0.152 0.4779,0.2679 0.7599,0.3459 0.2061,0.0541 0.5179,0.108 0.936,0.1581 0.8521,0.1018 1.48,0.222 1.882,0.364 0.0039,0.144 0.0059,0.2358 0.0059,0.2738 0,0.43 -0.0998,0.7342 -0.2999,0.908 -0.2679,0.2401 -0.6701,0.358 -1.1999,0.358 -0.4961,0 -0.862,-0.0859 -1.1001,-0.26 -0.2359,-0.174 -0.4099,-0.4819 -0.5239,-0.9241 l -1.0301,0.1421 c 0.0941,0.4402 0.2481,0.7982 0.4621,1.0681 0.214,0.2721 0.5261,0.4818 0.932,0.6278 0.4059,0.1463 0.8759,0.2203 1.4119,0.2203 0.5321,0 0.9621,-0.0641 1.2941,-0.1882 0.3319,-0.1259 0.576,-0.2818 0.7339,-0.472 0.1561,-0.1899 0.2641,-0.428 0.3279,-0.718 0.034,-0.18 0.0522,-0.504 0.0522,-0.972 v -1.406 c 0,-0.9819 0.0218,-1.6019 0.068,-1.8598 0.0439,-0.26 0.1338,-0.51 0.2659,-0.7481 h -1.1021 c -0.108,0.218 -0.18,0.474 -0.2098,0.7679 z m -0.0881,2.3562 c -0.3838,-0.1582 -0.9579,-0.29 -1.7221,-0.4 -0.434,-0.0621 -0.7418,-0.1321 -0.9198,-0.21 -0.18,-0.078 -0.3201,-0.1922 -0.4161,-0.3442 -0.0978,-0.1499 -0.148,-0.316 -0.148,-0.5 0,-0.2818 0.108,-0.5159 0.32,-0.7038 0.212,-0.186 0.5241,-0.2801 0.934,-0.2801 0.406,0 0.7679,0.0879 1.084,0.2659 0.3161,0.178 0.5499,0.4221 0.6979,0.7302 0.1142,0.2378 0.1701,0.5899 0.1701,1.0539"
           style="fill:#231f20;fill-opacity:1;fill-rule:evenodd;stroke:none"
           id="path1046" />
        <path
           d="m 61.2802,51.1523 v 0.7861 c -0.394,-0.618 -0.974,-0.9261 -1.7399,-0.9261 -0.496,0 -0.9521,0.136 -1.368,0.4099 -0.4161,0.2721 -0.7381,0.6542 -0.968,1.146 -0.2279,0.4901 -0.3422,1.052 -0.3422,1.69 0,0.62 0.1041,1.1841 0.3102,1.6901 0.208,0.5059 0.5178,0.894 0.932,1.1619 0.4138,0.2701 0.8779,0.4062 1.3898,0.4062 0.3742,0 0.7081,-0.0802 1.0001,-0.2381 0.2939,-0.1579 0.532,-0.364 0.716,-0.618 v 3.0818 h 1.048 v -8.5898 z m -3.3341,3.1059 c 0,-0.7979 0.1681,-1.3938 0.504,-1.7878 0.3362,-0.394 0.7322,-0.5921 1.19,-0.5921 0.4601,0 0.8521,0.1899 1.1741,0.566 0.322,0.3759 0.4839,0.9519 0.4839,1.7261 0,0.8518 -0.1639,1.476 -0.4918,1.8739 -0.328,0.4 -0.7319,0.5979 -1.2141,0.5979 -0.468,0 -0.86,-0.1919 -1.1738,-0.574 -0.3141,-0.3819 -0.4723,-0.9859 -0.4723,-1.81"
           style="fill:#231f20;fill-opacity:1;fill-rule:evenodd;stroke:none"
           id="path1048" />
        <path
           d="m 63.5241,54.2642 c 0,1.152 0.3201,2.0061 0.9621,2.56 0.5341,0.46 1.186,0.6922 1.9559,0.6922 0.8561,0 1.5559,-0.2801 2.0979,-0.8422 0.544,-0.5598 0.8141,-1.334 0.8141,-2.3219 0,-0.8019 -0.1201,-1.432 -0.36,-1.8901 -0.2401,-0.4598 -0.5901,-0.8158 -1.0479,-1.0698 -0.4601,-0.254 -0.9601,-0.3801 -1.5041,-0.3801 -0.8699,0 -1.5741,0.2781 -2.1121,0.8379 -0.538,0.5581 -0.8059,1.3621 -0.8059,2.414 z m 1.084,0 c 0,-0.798 0.174,-1.3938 0.5221,-1.7898 0.3478,-0.398 0.7858,-0.5961 1.3119,-0.5961 0.5241,0 0.9601,0.2001 1.3079,0.5981 0.3461,0.398 0.5202,1.006 0.5202,1.8218 0,0.7702 -0.1741,1.3541 -0.5242,1.7501 -0.35,0.396 -0.784,0.5939 -1.3039,0.5939 -0.5261,0 -0.9641,-0.1979 -1.3119,-0.5919 -0.3481,-0.394 -0.5221,-0.9901 -0.5221,-1.7861"
           style="fill:#231f20;fill-opacity:1;fill-rule:evenodd;stroke:none"
           id="path1050" />
      </g>
    </g>
  </g>
</svg>
