<?xml version="1.0" encoding="UTF-8" standalone="no"?>
<!-- Created with Inkscape (http://www.inkscape.org/) -->

<svg
   width="29.35083mm"
   height="11.069095mm"
   viewBox="0 0 29.35083 11.069095"
   version="1.1"
   id="svg13684"
   inkscape:version="1.1 (1:1.1+202105261517+ce6663b3b7)"
   sodipodi:docname="orRealimentado.svg"
   xmlns:inkscape="http://www.inkscape.org/namespaces/inkscape"
   xmlns:sodipodi="http://sodipodi.sourceforge.net/DTD/sodipodi-0.dtd"
   xmlns="http://www.w3.org/2000/svg"
   xmlns:svg="http://www.w3.org/2000/svg">
  <sodipodi:namedview
     id="namedview13686"
     pagecolor="#ffffff"
     bordercolor="#666666"
     borderopacity="1.0"
     inkscape:pageshadow="2"
     inkscape:pageopacity="0.0"
     inkscape:pagecheckerboard="0"
     inkscape:document-units="mm"
     showgrid="false"
     fit-margin-top="0"
     fit-margin-left="0"
     fit-margin-right="0"
     fit-margin-bottom="0"
     inkscape:zoom="2.6832492"
     inkscape:cx="27.392164"
     inkscape:cy="65.033096"
     inkscape:window-width="1920"
     inkscape:window-height="1136"
     inkscape:window-x="0"
     inkscape:window-y="27"
     inkscape:window-maximized="1"
     inkscape:current-layer="layer3" />
  <defs
     id="defs13681" />
  <g
     inkscape:label="Layer 1"
     inkscape:groupmode="layer"
     id="layer1"
     transform="translate(-145.85446,-55.897225)"
     style="display:inline">
    <g
       id="g13595"
       style="display:inline"
       transform="translate(227.50374,54.141656)">
      <path
         d="m -62.280258,4.3396661 c 0,-0.2390069 0.02448,-0.4314119 0.07391,-0.5767211 0.04889,-0.145803 0.122273,-0.258198 0.219181,-0.3372908 0.09691,-0.078987 0.218722,-0.118498 0.365407,-0.118498 0.108691,0 0.203694,0.022119 0.285503,0.065899 0.08192,0.043215 0.14919,0.106292 0.202812,0.188595 0.05309,0.082303 0.095,0.182492 0.125095,0.3004961 0.03059,0.11811 0.04558,0.277107 0.04558,0.47752 0,0.2369961 -0.02438,0.42799 -0.07288,0.5737931 -0.0489,0.145803 -0.121814,0.258198 -0.218687,0.3377141 -0.09691,0.079481 -0.219216,0.118992 -0.367418,0.118992 -0.194698,0 -0.347592,-0.069603 -0.458611,-0.2093031 -0.133103,-0.1678869 -0.199884,-0.4421011 -0.199884,-0.8211961 z m 0.254988,0 c 0,0.3315759 0.03902,0.5522031 0.116593,0.6621992 0.07761,0.109608 0.173108,0.1646766 0.286914,0.1646766 0.1143,0 0.209797,-0.055492 0.287408,-0.1655938 0.07758,-0.110102 0.116699,-0.3306939 0.116699,-0.661282 0,-0.3325988 -0.03912,-0.55372 -0.116699,-0.6627988 -0.07761,-0.1096081 -0.17399,-0.1641123 -0.289701,-0.1641123 -0.1143,0 -0.205105,0.048401 -0.273297,0.1448153 -0.08512,0.122802 -0.127917,0.3504847 -0.127917,0.6820958"
         style="fill:#000000;fill-opacity:1;fill-rule:evenodd;stroke:none;stroke-width:0.352778"
         id="path5068" />
      <path
         d="m -75.555074,8.0893763 c 0,-0.2390069 0.02452,-0.4314119 0.07391,-0.5767211 0.0489,-0.145803 0.122308,-0.258198 0.219216,-0.3372908 0.09687,-0.079022 0.218687,-0.118498 0.365372,-0.118498 0.108726,0 0.203729,0.022084 0.285503,0.065899 0.08191,0.04318 0.149225,0.106292 0.202812,0.188595 0.05309,0.082303 0.095,0.182492 0.125095,0.3004961 0.03062,0.11811 0.04561,0.277107 0.04561,0.47752 0,0.2369961 -0.02441,0.42799 -0.07292,0.5737931 -0.0489,0.145803 -0.121779,0.258198 -0.218687,0.3376789 -0.09691,0.079516 -0.219216,0.1190272 -0.367418,0.1190272 -0.194698,0 -0.347592,-0.069603 -0.458576,-0.2093031 -0.133103,-0.1679222 -0.199919,-0.4421011 -0.199919,-0.8211961 z m 0.255023,0 c 0,0.3315759 0.03898,0.5521678 0.116593,0.6621992 0.07761,0.1095728 0.173108,0.1646766 0.286879,0.1646766 0.1143,0 0.209832,-0.055492 0.287408,-0.1655938 0.07761,-0.110102 0.116699,-0.3306939 0.116699,-0.661282 0,-0.3326341 -0.03909,-0.55372 -0.116699,-0.6628341 -0.07758,-0.1095728 -0.17399,-0.164077 -0.289701,-0.164077 -0.1143,0 -0.205105,0.048401 -0.273297,0.14478 -0.08509,0.122802 -0.127882,0.35052 -0.127882,0.6821311"
         style="fill:#000000;fill-opacity:1;fill-rule:evenodd;stroke:none;stroke-width:0.352778"
         id="path5070" />
      <path
         d="m -75.555074,2.7880437 c 0,-0.2389717 0.02452,-0.4313767 0.07391,-0.5766859 0.0489,-0.145803 0.122308,-0.258198 0.219216,-0.3372908 0.09687,-0.079022 0.218687,-0.118498 0.365372,-0.118498 0.108726,0 0.203729,0.022084 0.285503,0.065899 0.08191,0.04318 0.149225,0.1062919 0.202812,0.188595 0.05309,0.082303 0.095,0.1824919 0.125095,0.3004961 0.03062,0.11811 0.04561,0.2771069 0.04561,0.4774847 0,0.2370314 -0.02441,0.4280252 -0.07292,0.5738283 -0.0489,0.145803 -0.121779,0.258198 -0.218687,0.3376789 -0.09691,0.079516 -0.219216,0.1189919 -0.367418,0.1189919 -0.194698,0 -0.347592,-0.069568 -0.458576,-0.2092678 -0.133103,-0.1679222 -0.199919,-0.4421011 -0.199919,-0.8212313 z m 0.255023,0 c 0,0.3316111 0.03898,0.552203 0.116593,0.6621991 0.07761,0.1096081 0.173108,0.164712 0.286879,0.164712 0.1143,0 0.209832,-0.055492 0.287408,-0.1655939 0.07761,-0.110102 0.116699,-0.3306939 0.116699,-0.6613172 0,-0.3325989 -0.03909,-0.5536847 -0.116699,-0.6627989 -0.07758,-0.1095728 -0.17399,-0.1640769 -0.289701,-0.1640769 -0.1143,0 -0.205105,0.048401 -0.273297,0.14478 -0.08509,0.1228019 -0.127882,0.3505199 -0.127882,0.6820958"
         style="fill:#000000;fill-opacity:1;fill-rule:evenodd;stroke:none;stroke-width:0.352778"
         id="path5072" />
      <g
         id="g9447">
        <path
           style="fill:none;stroke:#1a5fb4;stroke-width:0.35;stroke-linecap:butt;stroke-linejoin:miter;stroke-miterlimit:10;stroke-dasharray:none;stroke-opacity:1"
           d="m -64.091172,6.3644694 h 8.585306"
           id="path9435" />
        <path
           style="fill:none;stroke:#1a5fb4;stroke-width:0.35;stroke-linecap:butt;stroke-linejoin:miter;stroke-miterlimit:10;stroke-dasharray:none;stroke-opacity:1"
           d="m -78.638457,4.5050484 h 7.489084"
           id="path9437" />
        <path
           style="fill:none;stroke:#1a5fb4;stroke-width:0.35;stroke-linecap:butt;stroke-linejoin:miter;stroke-miterlimit:10;stroke-dasharray:none;stroke-opacity:1"
           d="m -71.149268,8.2233613 h -2.446478 v 4.4263027 h 11.804579 V 6.3644694"
           id="path9439" />
        <path
           d="m -61.791273,6.0834467 c -0.154693,0 -0.280987,0.1263297 -0.280987,0.2811286 0,0.154693 0.126294,0.2809875 0.280987,0.2809875 0.154799,0 0.281094,-0.1262945 0.281094,-0.2809875 0,-0.1547989 -0.126295,-0.2811286 -0.281094,-0.2811286 z"
           style="fill:#1a5fb4;fill-opacity:1;fill-rule:evenodd;stroke:#1a5fb4;stroke-width:0.19999;stroke-linecap:butt;stroke-linejoin:miter;stroke-miterlimit:10;stroke-dasharray:none;stroke-opacity:1"
           id="path9441" />
        <path
           d="m -52.727071,7.2807744 c 0.154622,0.1069975 0.298097,0.1846792 0.428625,0.2339975 l -0.09821,0.2329039 c -0.181116,-0.065299 -0.362197,-0.1688042 -0.542713,-0.3099153 -0.186972,0.1041047 -0.393277,0.1563864 -0.619689,0.1563864 -0.228706,0 -0.435716,-0.055174 -0.622089,-0.1651706 -0.185808,-0.1105252 -0.329212,-0.2652183 -0.429824,-0.4651022 -0.100471,-0.1999191 -0.150495,-0.4251325 -0.150495,-0.675005 0,-0.249308 0.05062,-0.4762147 0.151694,-0.6808258 0.101106,-0.2040819 0.244616,-0.3598686 0.431624,-0.4669014 0.186302,-0.1063977 0.395076,-0.1598788 0.625581,-0.1598788 0.233398,0 0.4433,0.05528 0.630802,0.1664052 0.187007,0.11049 0.329917,0.2657828 0.428096,0.4651023 0.09821,0.1992841 0.147002,0.4238977 0.147002,0.6744052 0,0.2074686 -0.03119,0.3944761 -0.09469,0.5602817 -0.0629,0.1658055 -0.15822,0.310515 -0.285714,0.4333169 z m -0.735577,-0.4274255 c 0.192899,0.054116 0.351578,0.13462 0.476885,0.2416175 0.196285,-0.179317 0.294499,-0.4485923 0.294499,-0.8077906 0,-0.2046111 -0.03471,-0.3834341 -0.103999,-0.536328 -0.06939,-0.1521884 -0.171097,-0.2710039 -0.304589,-0.3557059 -0.134126,-0.084067 -0.284021,-0.1264002 -0.451026,-0.1264002 -0.248673,0 -0.455683,0.085302 -0.619689,0.2558344 -0.164606,0.1704975 -0.24638,0.4250972 -0.24638,0.764293 0,0.3280834 0.08117,0.58039 0.243487,0.7561792 0.162807,0.1752247 0.370381,0.2634192 0.622582,0.2634192 0.120015,0 0.232304,-0.022401 0.338102,-0.067098 -0.104704,-0.068227 -0.215194,-0.1164166 -0.330976,-0.1446036"
           style="fill:#000000;fill-opacity:1;fill-rule:evenodd;stroke:none;stroke-width:0.352778"
           id="path9443" />
        <path
           d="m -81.649275,5.0556639 0.315102,-0.027587 c 0.01471,0.126365 0.04942,0.22987 0.104104,0.3109736 0.05472,0.081104 0.139312,0.1464028 0.254,0.1963914 0.114618,0.050024 0.244017,0.074718 0.387421,0.074718 0.1276,0 0.239889,-0.018909 0.337502,-0.056515 0.09758,-0.038171 0.170498,-0.089888 0.218193,-0.1557867 0.04759,-0.066393 0.07169,-0.138183 0.07169,-0.2163939 0,-0.079304 -0.02289,-0.1480961 -0.06939,-0.2075038 -0.04579,-0.059408 -0.121708,-0.1087967 -0.226906,-0.1488017 -0.06819,-0.026388 -0.217594,-0.067592 -0.449792,-0.1234017 -0.231704,-0.055915 -0.394617,-0.1081969 -0.487503,-0.1575858 -0.120509,-0.0629 -0.210397,-0.1417108 -0.269805,-0.2351969 -0.05881,-0.093521 -0.08819,-0.1982259 -0.08819,-0.3146072 0,-0.127 0.03581,-0.2463095 0.108197,-0.3569053 0.07228,-0.1110897 0.178117,-0.195192 0.3169,-0.2528006 0.139312,-0.057009 0.293405,-0.085796 0.463303,-0.085796 0.187607,0 0.352213,0.02988 0.495688,0.090488 0.142804,0.060007 0.252801,0.1488016 0.329812,0.265818 0.07641,0.1169811 0.11818,0.2498725 0.124107,0.3980039 l -0.320498,0.024095 c -0.0176,-0.1593144 -0.07581,-0.280423 -0.175225,-0.3615972 -0.09938,-0.081703 -0.24578,-0.122308 -0.439773,-0.122308 -0.202318,0 -0.349215,0.037077 -0.442101,0.1111955 -0.09243,0.074013 -0.138818,0.1634067 -0.138818,0.2675114 0,0.091087 0.03291,0.1657703 0.09821,0.2239786 0.0647,0.058808 0.232199,0.1188156 0.503908,0.1799167 0.271568,0.061807 0.457976,0.1152877 0.559082,0.1610783 0.147003,0.068227 0.255799,0.1541286 0.32579,0.2575278 0.06992,0.1040694 0.104599,0.2240844 0.104599,0.3592688 0,0.13462 -0.03817,0.2611262 -0.115182,0.3798006 -0.07701,0.1188155 -0.187607,0.2111022 -0.331611,0.2775303 -0.14411,0.065899 -0.306387,0.098778 -0.486304,0.098778 -0.228706,0 -0.420405,-0.032879 -0.574393,-0.099907 -0.154693,-0.066499 -0.275802,-0.16637 -0.363996,-0.3004961 -0.0876,-0.1334911 -0.133985,-0.2850797 -0.138113,-0.4538839"
           style="fill:#000000;fill-opacity:1;fill-rule:evenodd;stroke:none;stroke-width:0.352778"
           id="path9445" />
        <path
           id="path9433"
           style="color:#000000;display:inline;overflow:visible;fill:#f6f5f4;stroke:#000000;stroke-width:0.396875;stroke-linejoin:round;stroke-miterlimit:4;stroke-dasharray:none"
           d="m -72.032966,2.4685452 a 6.5782321,6.5782321 0 0 1 1.29398,3.91707 6.5782321,6.5782321 0 0 1 -1.29914,3.9175878 h 3.79098 v -0.003 a 3.9174999,3.9174999 0 0 0 0.0822,0.003 3.9174999,3.9174999 0 0 0 3.91759,-3.9175878 3.9174999,3.9174999 0 0 0 -3.91759,-3.91707 3.9174999,3.9174999 0 0 0 -0.0822,0.003 v -0.003 z" />
      </g>
    </g>
  </g>
  <g
     inkscape:groupmode="layer"
     id="layer2"
     inkscape:label="Layer 2"
     style="display:inline">
    <g
       id="g13582"
       style="display:inline"
       transform="translate(81.649279,-17.630569)">
      <g
         id="g9070"
         transform="translate(0,15.875)">
        <path
           style="fill:none;stroke:#e01b24;stroke-width:0.35;stroke-linecap:butt;stroke-linejoin:miter;stroke-miterlimit:10;stroke-dasharray:none;stroke-opacity:1"
           d="m -64.091172,6.3644694 h 8.585306"
           id="path7875" />
        <path
           style="fill:none;stroke:#e01b24;stroke-width:0.35;stroke-linecap:butt;stroke-linejoin:miter;stroke-miterlimit:10;stroke-dasharray:none;stroke-opacity:1"
           d="m -78.638457,4.5050484 h 7.489084"
           id="path7873" />
        <path
           style="fill:none;stroke:#e01b24;stroke-width:0.35;stroke-linecap:butt;stroke-linejoin:miter;stroke-miterlimit:10;stroke-dasharray:none;stroke-opacity:1"
           d="m -71.149268,8.2233613 h -2.446478 v 4.4263027 h 11.804579 V 6.3644694"
           id="path5060" />
        <path
           d="m -61.791273,6.0834467 c -0.154693,0 -0.280987,0.1263297 -0.280987,0.2811286 0,0.154693 0.126294,0.2809875 0.280987,0.2809875 0.154799,0 0.281094,-0.1262945 0.281094,-0.2809875 0,-0.1547989 -0.126295,-0.2811286 -0.281094,-0.2811286 z"
           style="fill:#e01b24;fill-opacity:1;fill-rule:evenodd;stroke:#e01b24;stroke-width:0.19999;stroke-linecap:butt;stroke-linejoin:miter;stroke-miterlimit:10;stroke-dasharray:none;stroke-opacity:1"
           id="path5062" />
        <path
           d="m -52.727071,7.2807744 c 0.154622,0.1069975 0.298097,0.1846792 0.428625,0.2339975 l -0.09821,0.2329039 c -0.181116,-0.065299 -0.362197,-0.1688042 -0.542713,-0.3099153 -0.186972,0.1041047 -0.393277,0.1563864 -0.619689,0.1563864 -0.228706,0 -0.435716,-0.055174 -0.622089,-0.1651706 -0.185808,-0.1105252 -0.329212,-0.2652183 -0.429824,-0.4651022 -0.100471,-0.1999191 -0.150495,-0.4251325 -0.150495,-0.675005 0,-0.249308 0.05062,-0.4762147 0.151694,-0.6808258 0.101106,-0.2040819 0.244616,-0.3598686 0.431624,-0.4669014 0.186302,-0.1063977 0.395076,-0.1598788 0.625581,-0.1598788 0.233398,0 0.4433,0.05528 0.630802,0.1664052 0.187007,0.11049 0.329917,0.2657828 0.428096,0.4651023 0.09821,0.1992841 0.147002,0.4238977 0.147002,0.6744052 0,0.2074686 -0.03119,0.3944761 -0.09469,0.5602817 -0.0629,0.1658055 -0.15822,0.310515 -0.285714,0.4333169 z m -0.735577,-0.4274255 c 0.192899,0.054116 0.351578,0.13462 0.476885,0.2416175 0.196285,-0.179317 0.294499,-0.4485923 0.294499,-0.8077906 0,-0.2046111 -0.03471,-0.3834341 -0.103999,-0.536328 -0.06939,-0.1521884 -0.171097,-0.2710039 -0.304589,-0.3557059 -0.134126,-0.084067 -0.284021,-0.1264002 -0.451026,-0.1264002 -0.248673,0 -0.455683,0.085302 -0.619689,0.2558344 -0.164606,0.1704975 -0.24638,0.4250972 -0.24638,0.764293 0,0.3280834 0.08117,0.58039 0.243487,0.7561792 0.162807,0.1752247 0.370381,0.2634192 0.622582,0.2634192 0.120015,0 0.232304,-0.022401 0.338102,-0.067098 -0.104704,-0.068227 -0.215194,-0.1164166 -0.330976,-0.1446036"
           style="fill:#000000;fill-opacity:1;fill-rule:evenodd;stroke:none;stroke-width:0.352778"
           id="path5064" />
        <path
           d="m -81.649275,5.0556639 0.315102,-0.027587 c 0.01471,0.126365 0.04942,0.22987 0.104104,0.3109736 0.05472,0.081104 0.139312,0.1464028 0.254,0.1963914 0.114618,0.050024 0.244017,0.074718 0.387421,0.074718 0.1276,0 0.239889,-0.018909 0.337502,-0.056515 0.09758,-0.038171 0.170498,-0.089888 0.218193,-0.1557867 0.04759,-0.066393 0.07169,-0.138183 0.07169,-0.2163939 0,-0.079304 -0.02289,-0.1480961 -0.06939,-0.2075038 -0.04579,-0.059408 -0.121708,-0.1087967 -0.226906,-0.1488017 -0.06819,-0.026388 -0.217594,-0.067592 -0.449792,-0.1234017 -0.231704,-0.055915 -0.394617,-0.1081969 -0.487503,-0.1575858 -0.120509,-0.0629 -0.210397,-0.1417108 -0.269805,-0.2351969 -0.05881,-0.093521 -0.08819,-0.1982259 -0.08819,-0.3146072 0,-0.127 0.03581,-0.2463095 0.108197,-0.3569053 0.07228,-0.1110897 0.178117,-0.195192 0.3169,-0.2528006 0.139312,-0.057009 0.293405,-0.085796 0.463303,-0.085796 0.187607,0 0.352213,0.02988 0.495688,0.090488 0.142804,0.060007 0.252801,0.1488016 0.329812,0.265818 0.07641,0.1169811 0.11818,0.2498725 0.124107,0.3980039 l -0.320498,0.024095 c -0.0176,-0.1593144 -0.07581,-0.280423 -0.175225,-0.3615972 -0.09938,-0.081703 -0.24578,-0.122308 -0.439773,-0.122308 -0.202318,0 -0.349215,0.037077 -0.442101,0.1111955 -0.09243,0.074013 -0.138818,0.1634067 -0.138818,0.2675114 0,0.091087 0.03291,0.1657703 0.09821,0.2239786 0.0647,0.058808 0.232199,0.1188156 0.503908,0.1799167 0.271568,0.061807 0.457976,0.1152877 0.559082,0.1610783 0.147003,0.068227 0.255799,0.1541286 0.32579,0.2575278 0.06992,0.1040694 0.104599,0.2240844 0.104599,0.3592688 0,0.13462 -0.03817,0.2611262 -0.115182,0.3798006 -0.07701,0.1188155 -0.187607,0.2111022 -0.331611,0.2775303 -0.14411,0.065899 -0.306387,0.098778 -0.486304,0.098778 -0.228706,0 -0.420405,-0.032879 -0.574393,-0.099907 -0.154693,-0.066499 -0.275802,-0.16637 -0.363996,-0.3004961 -0.0876,-0.1334911 -0.133985,-0.2850797 -0.138113,-0.4538839"
           style="fill:#000000;fill-opacity:1;fill-rule:evenodd;stroke:none;stroke-width:0.352778"
           id="path5066" />
        <path
           id="path891-6-5-6"
           style="color:#000000;display:inline;overflow:visible;fill:#f6f5f4;stroke:#000000;stroke-width:0.396875;stroke-linejoin:round;stroke-miterlimit:4;stroke-dasharray:none"
           d="m -72.032966,2.4685452 a 6.5782321,6.5782321 0 0 1 1.29398,3.91707 6.5782321,6.5782321 0 0 1 -1.29914,3.9175878 h 3.79098 v -0.003 a 3.9174999,3.9174999 0 0 0 0.0822,0.003 3.9174999,3.9174999 0 0 0 3.91759,-3.9175878 3.9174999,3.9174999 0 0 0 -3.91759,-3.91707 3.9174999,3.9174999 0 0 0 -0.0822,0.003 v -0.003 z" />
      </g>
      <path
         d="m -61.346067,21.210876 h -0.247897 v -1.580409 c -0.0598,0.0569 -0.137795,0.113806 -0.234703,0.170709 -0.0974,0.05687 -0.184397,0.09969 -0.261585,0.127988 v -0.239501 c 0.138783,-0.0653 0.260174,-0.144392 0.364102,-0.236996 0.103505,-0.0932 0.177271,-0.183021 0.220592,-0.27051 h 0.159491"
         style="fill:#000000;fill-opacity:1;fill-rule:evenodd;stroke:none;stroke-width:0.352778"
         id="path5100" />
      <path
         d="m -74.620848,24.960551 h -0.247897 v -1.580374 c -0.05983,0.05687 -0.13783,0.113771 -0.234703,0.170674 -0.0974,0.0569 -0.184397,0.09969 -0.26162,0.128023 v -0.239501 c 0.138818,-0.0653 0.260209,-0.144427 0.364102,-0.236996 0.103505,-0.0932 0.177306,-0.183021 0.220592,-0.27051 h 0.159526"
         style="fill:#000000;fill-opacity:1;fill-rule:evenodd;stroke:none;stroke-width:0.352778"
         id="path5102" />
      <path
         d="m -74.620848,19.659254 h -0.247897 v -1.580409 c -0.05983,0.0569 -0.13783,0.113806 -0.234703,0.170709 -0.0974,0.0569 -0.184397,0.0997 -0.26162,0.128023 v -0.239501 c 0.138818,-0.0653 0.260209,-0.144427 0.364102,-0.237031 0.103505,-0.09317 0.177306,-0.182986 0.220592,-0.270475 h 0.159526"
         style="fill:#000000;fill-opacity:1;fill-rule:evenodd;stroke:none;stroke-width:0.352778"
         id="path5104" />
    </g>
  </g>
  <g
     inkscape:groupmode="layer"
     id="layer3"
     inkscape:label="Layer 3"
     style="display:inline">
    <g
       id="g13569"
       style="display:inline"
       transform="translate(81.649279,-33.505571)">
      <path
         d="m -61.346067,37.086091 h -0.247897 v -1.580409 c -0.0598,0.0569 -0.137795,0.113806 -0.234703,0.170709 -0.0974,0.05687 -0.184397,0.09969 -0.261585,0.127988 v -0.239501 c 0.138783,-0.0653 0.260174,-0.144392 0.364102,-0.236996 0.103505,-0.0932 0.177271,-0.183021 0.220592,-0.27051 h 0.159491"
         style="fill:#000000;fill-opacity:1;fill-rule:evenodd;stroke:none;stroke-width:0.352778"
         id="path5084" />
      <path
         d="m -74.620848,40.835766 h -0.247897 v -1.580374 c -0.05983,0.05687 -0.13783,0.113771 -0.234703,0.170674 -0.0974,0.0569 -0.184397,0.0997 -0.26162,0.128023 v -0.239501 c 0.138818,-0.0653 0.260209,-0.144427 0.364102,-0.236996 0.103505,-0.0932 0.177306,-0.183021 0.220592,-0.27051 h 0.159526"
         style="fill:#000000;fill-opacity:1;fill-rule:evenodd;stroke:none;stroke-width:0.352778"
         id="path5086" />
      <path
         d="m -75.555074,34.53826 c 0,-0.238972 0.02452,-0.431377 0.07391,-0.576686 0.0489,-0.145803 0.122308,-0.258198 0.219216,-0.337291 0.09687,-0.07902 0.218687,-0.118498 0.365372,-0.118498 0.108726,0 0.203729,0.02208 0.285503,0.0659 0.08191,0.04318 0.149225,0.106292 0.202812,0.188595 0.05309,0.0823 0.095,0.182492 0.125095,0.300496 0.03062,0.11811 0.04561,0.277107 0.04561,0.477485 0,0.237031 -0.02441,0.428025 -0.07292,0.573828 -0.0489,0.145803 -0.121779,0.258198 -0.218687,0.337679 -0.09691,0.07952 -0.219216,0.118992 -0.367418,0.118992 -0.194698,0 -0.347592,-0.06957 -0.458576,-0.209268 -0.133103,-0.167922 -0.199919,-0.442101 -0.199919,-0.821231 z m 0.255023,0 c 0,0.331611 0.03898,0.552203 0.116593,0.662199 0.07761,0.109608 0.173108,0.164712 0.286879,0.164712 0.1143,0 0.209832,-0.05549 0.287408,-0.165594 0.07761,-0.110102 0.116699,-0.330694 0.116699,-0.661317 0,-0.332599 -0.03909,-0.553685 -0.116699,-0.662799 -0.07758,-0.109573 -0.17399,-0.164077 -0.289701,-0.164077 -0.1143,0 -0.205105,0.0484 -0.273297,0.14478 -0.08509,0.122802 -0.127882,0.35052 -0.127882,0.682096"
         style="fill:#000000;fill-opacity:1;fill-rule:evenodd;stroke:none;stroke-width:0.352778"
         id="path5088" />
      <g
         id="g9463"
         transform="translate(0,31.750001)">
        <path
           style="fill:none;stroke:#e01b24;stroke-width:0.35;stroke-linecap:butt;stroke-linejoin:miter;stroke-miterlimit:10;stroke-dasharray:none;stroke-opacity:1"
           d="m -64.091172,6.3644694 h 8.585306"
           id="path9451" />
        <path
           style="fill:none;stroke:#1a5fb4;stroke-width:0.35;stroke-linecap:butt;stroke-linejoin:miter;stroke-miterlimit:10;stroke-dasharray:none;stroke-opacity:1"
           d="m -78.638457,4.5050484 h 7.489084"
           id="path9453" />
        <path
           style="fill:none;stroke:#e01b24;stroke-width:0.35;stroke-linecap:butt;stroke-linejoin:miter;stroke-miterlimit:10;stroke-dasharray:none;stroke-opacity:1"
           d="m -71.149268,8.2233613 h -2.446478 v 4.4263027 h 11.804579 V 6.3644694"
           id="path9455" />
        <path
           d="m -61.791273,6.0834467 c -0.154693,0 -0.280987,0.1263297 -0.280987,0.2811286 0,0.154693 0.126294,0.2809875 0.280987,0.2809875 0.154799,0 0.281094,-0.1262945 0.281094,-0.2809875 0,-0.1547989 -0.126295,-0.2811286 -0.281094,-0.2811286 z"
           style="fill:#e01b24;fill-opacity:1;fill-rule:evenodd;stroke:#e01b24;stroke-width:0.19999;stroke-linecap:butt;stroke-linejoin:miter;stroke-miterlimit:10;stroke-dasharray:none;stroke-opacity:1"
           id="path9457" />
        <path
           d="m -52.727071,7.2807744 c 0.154622,0.1069975 0.298097,0.1846792 0.428625,0.2339975 l -0.09821,0.2329039 c -0.181116,-0.065299 -0.362197,-0.1688042 -0.542713,-0.3099153 -0.186972,0.1041047 -0.393277,0.1563864 -0.619689,0.1563864 -0.228706,0 -0.435716,-0.055174 -0.622089,-0.1651706 -0.185808,-0.1105252 -0.329212,-0.2652183 -0.429824,-0.4651022 -0.100471,-0.1999191 -0.150495,-0.4251325 -0.150495,-0.675005 0,-0.249308 0.05062,-0.4762147 0.151694,-0.6808258 0.101106,-0.2040819 0.244616,-0.3598686 0.431624,-0.4669014 0.186302,-0.1063977 0.395076,-0.1598788 0.625581,-0.1598788 0.233398,0 0.4433,0.05528 0.630802,0.1664052 0.187007,0.11049 0.329917,0.2657828 0.428096,0.4651023 0.09821,0.1992841 0.147002,0.4238977 0.147002,0.6744052 0,0.2074686 -0.03119,0.3944761 -0.09469,0.5602817 -0.0629,0.1658055 -0.15822,0.310515 -0.285714,0.4333169 z m -0.735577,-0.4274255 c 0.192899,0.054116 0.351578,0.13462 0.476885,0.2416175 0.196285,-0.179317 0.294499,-0.4485923 0.294499,-0.8077906 0,-0.2046111 -0.03471,-0.3834341 -0.103999,-0.536328 -0.06939,-0.1521884 -0.171097,-0.2710039 -0.304589,-0.3557059 -0.134126,-0.084067 -0.284021,-0.1264002 -0.451026,-0.1264002 -0.248673,0 -0.455683,0.085302 -0.619689,0.2558344 -0.164606,0.1704975 -0.24638,0.4250972 -0.24638,0.764293 0,0.3280834 0.08117,0.58039 0.243487,0.7561792 0.162807,0.1752247 0.370381,0.2634192 0.622582,0.2634192 0.120015,0 0.232304,-0.022401 0.338102,-0.067098 -0.104704,-0.068227 -0.215194,-0.1164166 -0.330976,-0.1446036"
           style="fill:#000000;fill-opacity:1;fill-rule:evenodd;stroke:none;stroke-width:0.352778"
           id="path9459" />
        <path
           d="m -81.649275,5.0556639 0.315102,-0.027587 c 0.01471,0.126365 0.04942,0.22987 0.104104,0.3109736 0.05472,0.081104 0.139312,0.1464028 0.254,0.1963914 0.114618,0.050024 0.244017,0.074718 0.387421,0.074718 0.1276,0 0.239889,-0.018909 0.337502,-0.056515 0.09758,-0.038171 0.170498,-0.089888 0.218193,-0.1557867 0.04759,-0.066393 0.07169,-0.138183 0.07169,-0.2163939 0,-0.079304 -0.02289,-0.1480961 -0.06939,-0.2075038 -0.04579,-0.059408 -0.121708,-0.1087967 -0.226906,-0.1488017 -0.06819,-0.026388 -0.217594,-0.067592 -0.449792,-0.1234017 -0.231704,-0.055915 -0.394617,-0.1081969 -0.487503,-0.1575858 -0.120509,-0.0629 -0.210397,-0.1417108 -0.269805,-0.2351969 -0.05881,-0.093521 -0.08819,-0.1982259 -0.08819,-0.3146072 0,-0.127 0.03581,-0.2463095 0.108197,-0.3569053 0.07228,-0.1110897 0.178117,-0.195192 0.3169,-0.2528006 0.139312,-0.057009 0.293405,-0.085796 0.463303,-0.085796 0.187607,0 0.352213,0.02988 0.495688,0.090488 0.142804,0.060007 0.252801,0.1488016 0.329812,0.265818 0.07641,0.1169811 0.11818,0.2498725 0.124107,0.3980039 l -0.320498,0.024095 c -0.0176,-0.1593144 -0.07581,-0.280423 -0.175225,-0.3615972 -0.09938,-0.081703 -0.24578,-0.122308 -0.439773,-0.122308 -0.202318,0 -0.349215,0.037077 -0.442101,0.1111955 -0.09243,0.074013 -0.138818,0.1634067 -0.138818,0.2675114 0,0.091087 0.03291,0.1657703 0.09821,0.2239786 0.0647,0.058808 0.232199,0.1188156 0.503908,0.1799167 0.271568,0.061807 0.457976,0.1152877 0.559082,0.1610783 0.147003,0.068227 0.255799,0.1541286 0.32579,0.2575278 0.06992,0.1040694 0.104599,0.2240844 0.104599,0.3592688 0,0.13462 -0.03817,0.2611262 -0.115182,0.3798006 -0.07701,0.1188155 -0.187607,0.2111022 -0.331611,0.2775303 -0.14411,0.065899 -0.306387,0.098778 -0.486304,0.098778 -0.228706,0 -0.420405,-0.032879 -0.574393,-0.099907 -0.154693,-0.066499 -0.275802,-0.16637 -0.363996,-0.3004961 -0.0876,-0.1334911 -0.133985,-0.2850797 -0.138113,-0.4538839"
           style="fill:#000000;fill-opacity:1;fill-rule:evenodd;stroke:none;stroke-width:0.352778"
           id="path9461" />
        <path
           id="path9449"
           style="color:#000000;display:inline;overflow:visible;fill:#f6f5f4;stroke:#000000;stroke-width:0.396875;stroke-linejoin:round;stroke-miterlimit:4;stroke-dasharray:none"
           d="m -72.032966,2.4685452 a 6.5782321,6.5782321 0 0 1 1.29398,3.91707 6.5782321,6.5782321 0 0 1 -1.29914,3.9175878 h 3.79098 v -0.003 a 3.9174999,3.9174999 0 0 0 0.0822,0.003 3.9174999,3.9174999 0 0 0 3.91759,-3.9175878 3.9174999,3.9174999 0 0 0 -3.91759,-3.91707 3.9174999,3.9174999 0 0 0 -0.0822,0.003 v -0.003 z" />
      </g>
    </g>
  </g>
</svg>
