<?xml version="1.0" encoding="UTF-8" standalone="no"?>
<!-- Created with Inkscape (http://www.inkscape.org/) -->

<svg
   width="1.333497mm"
   height="2.2930505mm"
   viewBox="0 0 1.333497 2.2930505"
   version="1.1"
   id="svg5"
   inkscape:version="1.1 (1:1.1+202105261517+ce6663b3b7)"
   sodipodi:docname="U10890.svg"
   xmlns:inkscape="http://www.inkscape.org/namespaces/inkscape"
   xmlns:sodipodi="http://sodipodi.sourceforge.net/DTD/sodipodi-0.dtd"
   xmlns="http://www.w3.org/2000/svg"
   xmlns:svg="http://www.w3.org/2000/svg">
  <sodipodi:namedview
     id="namedview7"
     pagecolor="#ffffff"
     bordercolor="#666666"
     borderopacity="1.0"
     inkscape:pageshadow="2"
     inkscape:pageopacity="0.0"
     inkscape:pagecheckerboard="0"
     inkscape:document-units="mm"
     showgrid="false"
     fit-margin-top="0"
     fit-margin-left="0"
     fit-margin-right="0"
     fit-margin-bottom="0"
     inkscape:zoom="30.357499"
     inkscape:cx="1.3670428"
     inkscape:cy="10.524582"
     inkscape:window-width="1920"
     inkscape:window-height="1136"
     inkscape:window-x="0"
     inkscape:window-y="27"
     inkscape:window-maximized="1"
     inkscape:current-layer="text6282" />
  <defs
     id="defs2" />
  <g
     inkscape:label="Layer 1"
     inkscape:groupmode="layer"
     id="layer1"
     style="display:inline"
     transform="translate(-54.897677,-73.023515)">
    <g
       aria-label="𐢐"
       id="text6282"
       style="font-size:3.52777px;line-height:125%;font-family:FreeSans;-inkscape-font-specification:'FreeSans, Normal';text-align:center;letter-spacing:0px;word-spacing:0px;text-anchor:middle;stroke-width:0.264583px">
      <path
         d="m 55.306899,75.316566 q -0.08819,0 -0.127,-0.04939 -0.03528,-0.04939 -0.03528,-0.08819 0,-0.03175 0.01058,-0.04586 0.01411,-0.01411 0.03528,-0.02822 0.179916,-0.105833 0.345722,-0.211667 0.165805,-0.10936 0.271638,-0.222249 0.105833,-0.112889 0.105833,-0.232833 0,-0.155222 -0.130527,-0.155222 -0.03881,0 -0.09525,0.02117 -0.05292,0.01764 -0.123472,0.0635 l -0.303388,0.201083 q -0.05997,0.0388 -0.105833,0.05644 -0.04586,0.01764 -0.109361,0.01764 -0.05645,0 -0.102306,-0.03528 -0.04586,-0.03528 -0.04586,-0.134055 v -1.269997 q 0,-0.09525 0.0247,-0.137583 0.02822,-0.04233 0.126999,-0.04233 0.102306,0 0.130528,0.04233 0.02822,0.04233 0.02822,0.137583 v 1.083025 l 0.155222,-0.102305 q 0.09172,-0.05997 0.211666,-0.119945 0.119944,-0.0635 0.246944,-0.0635 0.197555,0 0.303388,0.102305 0.105833,0.09878 0.105833,0.306916 0,0.15875 -0.102305,0.310444 -0.09878,0.148166 -0.264583,0.278694 -0.162277,0.130527 -0.352777,0.243416 -0.04939,0.02822 -0.102305,0.04939 -0.04939,0.02469 -0.102305,0.02469 z"
         id="path969" />
    </g>
    <text
       xml:space="preserve"
       style="font-style:normal;font-variant:normal;font-weight:normal;font-stretch:normal;font-size:3.52777px;line-height:125%;font-family:FreeSans;-inkscape-font-specification:'FreeSans, Normal';text-align:center;letter-spacing:0px;word-spacing:0px;writing-mode:lr-tb;text-anchor:middle;fill:#000000;fill-opacity:1;stroke:none;stroke-width:0.264583px;stroke-linecap:butt;stroke-linejoin:miter;stroke-opacity:1"
       x="50.184563"
       y="75.281288"
       id="text967"><tspan
         sodipodi:role="line"
         id="tspan965"
         style="stroke-width:0.264583px"
         x="50.184563"
         y="75.281288">𐢐</tspan></text>
  </g>
</svg>
