<?xml version="1.0" encoding="UTF-8" standalone="no"?>
<!-- Created with Inkscape (http://www.inkscape.org/) -->

<svg
   width="37.591187mm"
   height="14.23912mm"
   viewBox="0 0 37.591187 14.23912"
   version="1.1"
   id="svg16905"
   inkscape:version="1.1 (1:1.1+202105261517+ce6663b3b7)"
   sodipodi:docname="biestableConstruccion.svg"
   xmlns:inkscape="http://www.inkscape.org/namespaces/inkscape"
   xmlns:sodipodi="http://sodipodi.sourceforge.net/DTD/sodipodi-0.dtd"
   xmlns="http://www.w3.org/2000/svg"
   xmlns:svg="http://www.w3.org/2000/svg">
  <sodipodi:namedview
     id="namedview16907"
     pagecolor="#ffffff"
     bordercolor="#666666"
     borderopacity="1.0"
     inkscape:pageshadow="2"
     inkscape:pageopacity="0.0"
     inkscape:pagecheckerboard="0"
     inkscape:document-units="mm"
     showgrid="false"
     fit-margin-top="0"
     fit-margin-left="0"
     fit-margin-right="0"
     fit-margin-bottom="0"
     inkscape:zoom="1.8973437"
     inkscape:cx="51.387633"
     inkscape:cy="202.65174"
     inkscape:window-width="1920"
     inkscape:window-height="1136"
     inkscape:window-x="0"
     inkscape:window-y="27"
     inkscape:window-maximized="1"
     inkscape:current-layer="layer1" />
  <defs
     id="defs16902" />
  <g
     inkscape:label="Layer 1"
     inkscape:groupmode="layer"
     id="layer1"
     transform="translate(-79.809981,-33.358776)">
    <g
       id="g13522"
       style="display:inline"
       transform="translate(164.22495,-28.780018)">
      <path
         d="m -47.252371,67.663999 c 0.154587,0.106998 0.298097,0.184714 0.428589,0.233998 l -0.09821,0.232903 c -0.181081,-0.0653 -0.362197,-0.168804 -0.542678,-0.30988 -0.187007,0.10407 -0.393312,0.156387 -0.619689,0.156387 -0.228706,0 -0.435716,-0.05521 -0.622124,-0.165206 -0.185808,-0.11049 -0.329177,-0.265183 -0.429789,-0.465102 -0.100506,-0.199884 -0.150495,-0.425097 -0.150495,-0.675005 0,-0.249273 0.05059,-0.47618 0.151694,-0.680791 0.101106,-0.204082 0.244581,-0.359904 0.431589,-0.466901 0.186302,-0.106398 0.395111,-0.159914 0.625616,-0.159914 0.233398,0 0.4433,0.05532 0.630802,0.166405 0.186972,0.110525 0.329882,0.265818 0.428096,0.465102 0.09818,0.19932 0.147002,0.423898 0.147002,0.674405 0,0.207504 -0.03122,0.394512 -0.09472,0.560317 -0.0629,0.165771 -0.158185,0.31048 -0.285679,0.433282 z m -0.735612,-0.42739 c 0.192898,0.05408 0.351613,0.134584 0.47692,0.241582 0.196285,-0.179282 0.294499,-0.448592 0.294499,-0.807791 0,-0.204611 -0.03471,-0.383398 -0.103999,-0.536292 -0.06943,-0.152189 -0.171133,-0.271004 -0.304624,-0.355706 -0.134091,-0.0841 -0.283986,-0.1264 -0.450991,-0.1264 -0.248708,0 -0.455718,0.0853 -0.619689,0.255799 -0.164606,0.170497 -0.246416,0.425097 -0.246416,0.764293 0,0.328118 0.08121,0.580425 0.243488,0.756214 0.162807,0.17519 0.370416,0.263384 0.622617,0.263384 0.120015,0 0.232304,-0.0224 0.338102,-0.0671 -0.104704,-0.06819 -0.215194,-0.116382 -0.331011,-0.144604"
         style="fill:#000000;fill-opacity:1;fill-rule:evenodd;stroke:none;stroke-width:0.352778"
         id="path5038" />
      <path
         d="m -84.414969,64.438905 0.315101,-0.02759 c 0.01467,0.126401 0.04939,0.229906 0.104105,0.310974 0.05468,0.0811 0.139276,0.146403 0.254,0.196427 0.114582,0.04999 0.243981,0.07468 0.387385,0.07468 0.1276,0 0.239889,-0.01891 0.337502,-0.05648 0.09761,-0.03821 0.170498,-0.08992 0.218193,-0.155822 0.04759,-0.06639 0.07172,-0.138183 0.07172,-0.216394 0,-0.0793 -0.02293,-0.148096 -0.06943,-0.207504 -0.04579,-0.05941 -0.121673,-0.108796 -0.226906,-0.148801 -0.06819,-0.02639 -0.217594,-0.06759 -0.449792,-0.123402 -0.231704,-0.05588 -0.394582,-0.108197 -0.487504,-0.157586 -0.120473,-0.0629 -0.210396,-0.141711 -0.269804,-0.235197 -0.05877,-0.09352 -0.08819,-0.198226 -0.08819,-0.314607 0,-0.127 0.03581,-0.246309 0.108197,-0.356905 0.07232,-0.11109 0.178117,-0.195192 0.3169,-0.252801 0.139312,-0.05701 0.293405,-0.08579 0.463303,-0.08579 0.187607,0 0.352213,0.02991 0.495723,0.09049 0.142805,0.06001 0.252801,0.148802 0.329777,0.265818 0.07641,0.116981 0.118216,0.249908 0.124107,0.398004 l -0.320499,0.02409 c -0.0176,-0.159315 -0.07581,-0.280423 -0.175189,-0.361597 -0.09941,-0.0817 -0.245816,-0.122308 -0.439808,-0.122308 -0.202283,0 -0.349215,0.03711 -0.442101,0.111195 -0.09239,0.07401 -0.138783,0.163407 -0.138783,0.267511 0,0.09109 0.03288,0.165806 0.09818,0.223979 0.0647,0.05881 0.232198,0.118816 0.503908,0.179917 0.271604,0.06181 0.458011,0.115288 0.559082,0.161113 0.147003,0.06819 0.255799,0.154094 0.325826,0.257493 0.06988,0.104105 0.104598,0.224084 0.104598,0.359304 0,0.134585 -0.03821,0.261091 -0.115217,0.379801 -0.07698,0.11878 -0.187607,0.211102 -0.331576,0.277495 -0.144109,0.0659 -0.306423,0.09878 -0.486304,0.09878 -0.228706,0 -0.420405,-0.03288 -0.574428,-0.09987 -0.154693,-0.0665 -0.275766,-0.166405 -0.363996,-0.300531 -0.08759,-0.133492 -0.133985,-0.28508 -0.138077,-0.453884"
         style="fill:#000000;fill-opacity:1;fill-rule:evenodd;stroke:none;stroke-width:0.352778"
         id="path5040" />
      <path
         d="m -53.805571,64.722891 c 0,-0.238972 0.02448,-0.431377 0.07391,-0.576686 0.0489,-0.145803 0.122273,-0.258198 0.219181,-0.337291 0.09691,-0.07902 0.218687,-0.118498 0.365407,-0.118498 0.108691,0 0.203694,0.02208 0.285503,0.0659 0.08188,0.04318 0.14919,0.106292 0.202777,0.188595 0.05313,0.0823 0.095,0.182492 0.12513,0.300496 0.03059,0.11811 0.04558,0.277107 0.04558,0.477485 0,0.237031 -0.02438,0.428025 -0.07288,0.573828 -0.04889,0.145803 -0.121814,0.258198 -0.218722,0.337679 -0.09687,0.07952 -0.219181,0.118992 -0.367383,0.118992 -0.194698,0 -0.347592,-0.06957 -0.458611,-0.209268 -0.133103,-0.167922 -0.199884,-0.442101 -0.199884,-0.821231 z m 0.254988,0 c 0,0.331611 0.03902,0.552203 0.116593,0.662199 0.07761,0.109608 0.173108,0.164712 0.286914,0.164712 0.1143,0 0.209797,-0.05549 0.287408,-0.165594 0.07758,-0.110102 0.116699,-0.330694 0.116699,-0.661317 0,-0.332599 -0.03912,-0.553685 -0.116699,-0.662799 -0.07761,-0.109573 -0.174025,-0.164077 -0.289701,-0.164077 -0.1143,0 -0.205105,0.0484 -0.273297,0.14478 -0.08512,0.122802 -0.127917,0.35052 -0.127917,0.682096"
         style="fill:#000000;fill-opacity:1;fill-rule:evenodd;stroke:none;stroke-width:0.352778"
         id="path5042" />
      <path
         d="m -66.347597,72.041195 c 0,-0.239007 0.02452,-0.431377 0.07391,-0.576686 0.0489,-0.145803 0.122308,-0.258198 0.219216,-0.337291 0.09691,-0.07902 0.218687,-0.118498 0.365407,-0.118498 0.108691,0 0.203694,0.02208 0.285503,0.0659 0.08188,0.04318 0.14919,0.106292 0.202777,0.188595 0.05309,0.0823 0.095,0.182492 0.125095,0.300496 0.03062,0.11811 0.04561,0.277107 0.04561,0.477485 0,0.236996 -0.02441,0.428025 -0.07292,0.573793 -0.0489,0.145803 -0.121779,0.258233 -0.218687,0.337714 -0.09691,0.07952 -0.219181,0.118992 -0.367383,0.118992 -0.194698,0 -0.347627,-0.0696 -0.458611,-0.209303 -0.133103,-0.167887 -0.199919,-0.442101 -0.199919,-0.821196 z m 0.255023,0 c 0,0.331611 0.03898,0.552203 0.116593,0.662199 0.07761,0.109608 0.173108,0.164712 0.286914,0.164712 0.1143,0 0.209797,-0.05549 0.287373,-0.165594 0.07761,-0.110102 0.116699,-0.330694 0.116699,-0.661317 0,-0.332599 -0.03909,-0.553685 -0.116699,-0.662799 -0.07758,-0.109608 -0.17399,-0.164077 -0.289701,-0.164077 -0.1143,0 -0.20507,0.0484 -0.273297,0.14478 -0.08509,0.122802 -0.127882,0.35052 -0.127882,0.682096"
         style="fill:#000000;fill-opacity:1;fill-rule:evenodd;stroke:none;stroke-width:0.352778"
         id="path5044" />
      <path
         d="m -67.080387,63.171304 c 0,-0.239007 0.02452,-0.431412 0.07391,-0.576686 0.0489,-0.145803 0.122308,-0.258198 0.219216,-0.337326 0.09687,-0.07899 0.218687,-0.118498 0.365372,-0.118498 0.108726,0 0.203729,0.02212 0.285503,0.0659 0.08191,0.04322 0.149225,0.106327 0.202812,0.18863 0.05309,0.08227 0.095,0.182492 0.125095,0.300496 0.03059,0.118075 0.04561,0.277072 0.04561,0.477485 0,0.236996 -0.02441,0.42799 -0.07292,0.573793 -0.0489,0.145803 -0.121779,0.258198 -0.218687,0.337714 -0.09691,0.07948 -0.219216,0.118992 -0.367418,0.118992 -0.194698,0 -0.347592,-0.0696 -0.458576,-0.209303 -0.133103,-0.167887 -0.199919,-0.442101 -0.199919,-0.821196 z m 0.255023,0 c 0,0.331611 0.03898,0.552203 0.116593,0.662199 0.07758,0.109608 0.173108,0.164712 0.286879,0.164712 0.1143,0 0.209797,-0.05549 0.287408,-0.165594 0.07761,-0.110102 0.116699,-0.330729 0.116699,-0.661317 0,-0.332599 -0.03909,-0.553685 -0.116699,-0.662799 -0.07761,-0.109608 -0.17399,-0.164113 -0.289701,-0.164113 -0.1143,0 -0.205105,0.0484 -0.273297,0.144816 -0.08509,0.122802 -0.127882,0.350484 -0.127882,0.682096"
         style="fill:#000000;fill-opacity:1;fill-rule:evenodd;stroke:none;stroke-width:0.352778"
         id="path5046" />
      <path
         d="m -84.296295,70.089487 v -2.525325 h 1.119505 c 0.225213,0 0.396311,0.0229 0.513327,0.06819 0.116981,0.04533 0.210467,0.125201 0.281093,0.239924 0.06989,0.115182 0.104599,0.242182 0.104599,0.381 0,0.179282 -0.05761,0.329777 -0.174025,0.452685 -0.115888,0.122908 -0.295169,0.201118 -0.537387,0.234597 0.08879,0.0423 0.155787,0.0841 0.201613,0.125801 0.09758,0.08939 0.190006,0.201718 0.277601,0.335809 l 0.439173,0.687317 h -0.42037 l -0.33401,-0.525604 c -0.09761,-0.151095 -0.178118,-0.267617 -0.241618,-0.347521 -0.06297,-0.08058 -0.11938,-0.136984 -0.169368,-0.168805 -0.05002,-0.03228 -0.100507,-0.05468 -0.15233,-0.06759 -0.03817,-0.0076 -0.09987,-0.01178 -0.186302,-0.01178 h -0.387491 v 1.121305 z m 0.33401,-1.410512 h 0.718503 c 0.152294,0 0.272203,-0.01591 0.358104,-0.04769 0.0864,-0.03172 0.151589,-0.0823 0.196286,-0.151695 0.0447,-0.06932 0.0671,-0.144603 0.0671,-0.226307 0,-0.119415 -0.04297,-0.217593 -0.129998,-0.294604 -0.0864,-0.07701 -0.223379,-0.115218 -0.410986,-0.115218 h -0.799007"
         style="fill:#000000;fill-opacity:1;fill-rule:evenodd;stroke:none;stroke-width:0.352778"
         id="path5052" />
      <g
         id="path5054">
        <path
           style="color:#000000;fill:#000000;stroke-width:0.250014;stroke-miterlimit:10;-inkscape-stroke:none"
           d="m -82.29989,67.214277 h -2.044806"
           id="path12903" />
        <path
           style="color:#000000;fill:#000000;stroke-miterlimit:10;-inkscape-stroke:none"
           d="m -84.34375,67.089844 v 0.25 h 2.042969 v -0.25 z"
           id="path12905" />
      </g>
      <path
         d="m -79.884774,66.814051 c 0,-0.239007 0.02448,-0.431412 0.07391,-0.576721 0.0489,-0.145803 0.122273,-0.258198 0.219181,-0.337291 0.09691,-0.07899 0.218722,-0.118498 0.365407,-0.118498 0.108691,0 0.203694,0.02208 0.285503,0.0659 0.08188,0.04321 0.14919,0.106292 0.202812,0.188595 0.05309,0.0823 0.09497,0.182492 0.125095,0.300496 0.03059,0.11811 0.04558,0.277107 0.04558,0.47752 0,0.236996 -0.02438,0.42799 -0.07288,0.573793 -0.0489,0.145803 -0.121814,0.258198 -0.218722,0.337679 -0.09687,0.07952 -0.219181,0.119027 -0.367383,0.119027 -0.194698,0 -0.347592,-0.0696 -0.458611,-0.209303 -0.133103,-0.167922 -0.199884,-0.442101 -0.199884,-0.821196 z m 0.254988,0 c 0,0.331576 0.03902,0.552203 0.116593,0.662199 0.07761,0.109573 0.173108,0.164677 0.286914,0.164677 0.1143,0 0.209797,-0.05549 0.287408,-0.165594 0.07758,-0.110102 0.116699,-0.330694 0.116699,-0.661282 0,-0.332599 -0.03912,-0.55372 -0.116699,-0.662799 -0.07761,-0.109608 -0.174025,-0.164112 -0.289701,-0.164112 -0.1143,0 -0.205105,0.0484 -0.273297,0.144815 -0.08513,0.122767 -0.127917,0.350485 -0.127917,0.682096"
         style="fill:#000000;fill-opacity:1;fill-rule:evenodd;stroke:none;stroke-width:0.352778"
         id="path5056" />
      <g
         id="g13016">
        <path
           d="m -55.616485,66.747694 h 5.426322"
           style="fill:#000000;stroke:#1a5fb4;stroke-width:0.35;stroke-linecap:butt;stroke-linejoin:miter;stroke-miterlimit:10;stroke-dasharray:none;stroke-opacity:1"
           id="path5030" />
        <path
           style="fill:#000000;stroke:#1a5fb4;stroke-width:0.35;stroke-linecap:butt;stroke-linejoin:miter;stroke-miterlimit:10;stroke-dasharray:none;stroke-opacity:1"
           d="m -77.606288,68.484242 h -3.731507"
           id="path12744" />
        <path
           style="fill:#000000;stroke:#1a5fb4;stroke-width:0.35;stroke-linecap:butt;stroke-linejoin:miter;stroke-miterlimit:10;stroke-dasharray:none;stroke-opacity:1"
           d="m -81.337795,64.888308 h 18.663109"
           id="path5032" />
        <path
           style="fill:none;stroke:#1a5fb4;stroke-width:0.35;stroke-linecap:butt;stroke-linejoin:miter;stroke-miterlimit:10;stroke-dasharray:none;stroke-opacity:1"
           d="m -77.606288,72.673479 h -3.044684 v 3.529435 h 27.334492 v -9.45522"
           id="path5034" />
        <path
           d="m -53.316586,66.466707 c -0.154693,0 -0.280987,0.126294 -0.280987,0.281093 0,0.154693 0.126294,0.281023 0.280987,0.281023 0.154799,0 0.281094,-0.12633 0.281094,-0.281023 0,-0.154799 -0.126295,-0.281093 -0.281094,-0.281093 z"
           style="fill:#1a5fb4;fill-opacity:1;fill-rule:evenodd;stroke:#1a5fb4;stroke-width:0.19999;stroke-linecap:butt;stroke-linejoin:miter;stroke-miterlimit:10;stroke-dasharray:none;stroke-opacity:1"
           id="path5036" />
        <path
           d="m -62.674581,68.606621 h -3.853709 v 1.971993 h -3.228975"
           style="fill:none;stroke:#1a5fb4;stroke-width:0.35;stroke-linecap:butt;stroke-linejoin:miter;stroke-miterlimit:10;stroke-dasharray:none;stroke-opacity:1"
           id="path5050" />
        <path
           id="path891-09"
           style="color:#000000;display:inline;overflow:visible;fill:#f6f5f4;stroke:#000000;stroke-width:0.396875;stroke-linejoin:round;stroke-miterlimit:4;stroke-dasharray:none"
           d="m -77.691501,66.672462 v 3.91759 3.917074 h 3.83491 v -0.0031 a 3.9174999,3.9174999 0 0 0 0.0822,0.0031 3.9174999,3.9174999 0 0 0 3.91759,-3.917074 3.9174999,3.9174999 0 0 0 -3.91759,-3.91759 3.9174999,3.9174999 0 0 0 -0.0822,0.0031 v -0.0031 z" />
        <path
           id="path9449-3"
           style="color:#000000;display:inline;overflow:visible;fill:#f6f5f4;stroke:#000000;stroke-width:0.396875;stroke-linejoin:round;stroke-miterlimit:4;stroke-dasharray:none"
           d="m -63.536197,62.827653 a 6.5782321,6.5782321 0 0 1 1.29398,3.91707 6.5782321,6.5782321 0 0 1 -1.29914,3.917588 h 3.79098 v -0.003 a 3.9174999,3.9174999 0 0 0 0.0822,0.003 3.9174999,3.9174999 0 0 0 3.91759,-3.917588 3.9174999,3.9174999 0 0 0 -3.91759,-3.91707 3.9174999,3.9174999 0 0 0 -0.0822,0.003 v -0.003 z" />
      </g>
    </g>
  </g>
  <g
     inkscape:groupmode="layer"
     id="layer2"
     inkscape:label="Layer 2"
     transform="translate(-79.809981,-33.358776)">
    <g
       id="g13501"
       style="display:inline"
       transform="translate(164.22495,-44.655019)">
      <path
         d="m -53.805571,80.597901 c 0,-0.238972 0.02448,-0.431377 0.07391,-0.576686 0.0489,-0.145803 0.122273,-0.258198 0.219181,-0.337291 0.09691,-0.07902 0.218687,-0.118498 0.365407,-0.118498 0.108691,0 0.203694,0.02208 0.285503,0.0659 0.08188,0.04318 0.14919,0.106292 0.202777,0.188595 0.05313,0.0823 0.095,0.182492 0.12513,0.300496 0.03059,0.11811 0.04558,0.277107 0.04558,0.477485 0,0.237031 -0.02438,0.428025 -0.07288,0.573828 -0.04889,0.145803 -0.121814,0.258198 -0.218722,0.337679 -0.09687,0.07952 -0.219181,0.118992 -0.367383,0.118992 -0.194698,0 -0.347592,-0.06957 -0.458611,-0.209268 -0.133103,-0.167922 -0.199884,-0.442101 -0.199884,-0.821231 z m 0.254988,0 c 0,0.331611 0.03902,0.552203 0.116593,0.662199 0.07761,0.109608 0.173108,0.164712 0.286914,0.164712 0.1143,0 0.209797,-0.05549 0.287408,-0.165594 0.07758,-0.110102 0.116699,-0.330694 0.116699,-0.661317 0,-0.332599 -0.03912,-0.553685 -0.116699,-0.662799 -0.07761,-0.109573 -0.174025,-0.164077 -0.289701,-0.164077 -0.1143,0 -0.205105,0.0484 -0.273297,0.14478 -0.08512,0.122802 -0.127917,0.35052 -0.127917,0.682096"
         style="fill:#000000;fill-opacity:1;fill-rule:evenodd;stroke:none;stroke-width:0.352778"
         id="path4946" />
      <path
         d="m -66.347597,87.916205 c 0,-0.239007 0.02452,-0.431377 0.07391,-0.576686 0.0489,-0.145803 0.122308,-0.258198 0.219216,-0.337291 0.09691,-0.07902 0.218687,-0.118498 0.365407,-0.118498 0.108691,0 0.203694,0.02208 0.285503,0.0659 0.08188,0.04318 0.14919,0.106292 0.202777,0.188595 0.05309,0.0823 0.095,0.182492 0.125095,0.300496 0.03062,0.11811 0.04561,0.277107 0.04561,0.477485 0,0.236996 -0.02441,0.428025 -0.07292,0.573793 -0.0489,0.145803 -0.121779,0.258233 -0.218687,0.337714 -0.09691,0.07952 -0.219181,0.118992 -0.367383,0.118992 -0.194698,0 -0.347627,-0.0696 -0.458611,-0.209303 -0.133103,-0.167887 -0.199919,-0.442101 -0.199919,-0.821196 z m 0.255023,0 c 0,0.331611 0.03898,0.552203 0.116593,0.662199 0.07761,0.109608 0.173108,0.164712 0.286914,0.164712 0.1143,0 0.209797,-0.05549 0.287373,-0.165594 0.07761,-0.110102 0.116699,-0.330694 0.116699,-0.661317 0,-0.332599 -0.03909,-0.553685 -0.116699,-0.662799 -0.07758,-0.109608 -0.17399,-0.164077 -0.289701,-0.164077 -0.1143,0 -0.20507,0.0484 -0.273297,0.14478 -0.08509,0.122802 -0.127882,0.35052 -0.127882,0.682096"
         style="fill:#000000;fill-opacity:1;fill-rule:evenodd;stroke:none;stroke-width:0.352778"
         id="path4948" />
      <path
         d="m -67.080387,79.046314 c 0,-0.239007 0.02452,-0.431412 0.07391,-0.576686 0.0489,-0.145803 0.122308,-0.258198 0.219216,-0.337326 0.09687,-0.07899 0.218687,-0.118498 0.365372,-0.118498 0.108726,0 0.203729,0.02212 0.285503,0.0659 0.08191,0.04322 0.149225,0.106327 0.202812,0.18863 0.05309,0.08227 0.095,0.182492 0.125095,0.300496 0.03059,0.118075 0.04561,0.277072 0.04561,0.477485 0,0.236996 -0.02441,0.42799 -0.07292,0.573793 -0.0489,0.145803 -0.121779,0.258198 -0.218687,0.337714 -0.09691,0.07948 -0.219216,0.118992 -0.367418,0.118992 -0.194698,0 -0.347592,-0.0696 -0.458576,-0.209303 -0.133103,-0.167887 -0.199919,-0.442101 -0.199919,-0.821196 z m 0.255023,0 c 0,0.331611 0.03898,0.552203 0.116593,0.662199 0.07758,0.109608 0.173108,0.164712 0.286879,0.164712 0.1143,0 0.209797,-0.05549 0.287408,-0.165594 0.07761,-0.110102 0.116699,-0.330729 0.116699,-0.661317 0,-0.332599 -0.03909,-0.553685 -0.116699,-0.662799 -0.07761,-0.109608 -0.17399,-0.164113 -0.289701,-0.164113 -0.1143,0 -0.205105,0.0484 -0.273297,0.144816 -0.08509,0.122802 -0.127882,0.350484 -0.127882,0.682096"
         style="fill:#000000;fill-opacity:1;fill-rule:evenodd;stroke:none;stroke-width:0.352778"
         id="path4950" />
      <path
         d="m -78.950583,83.685235 h -0.247897 v -1.580374 c -0.0598,0.0569 -0.137795,0.113771 -0.234703,0.170674 -0.0974,0.0569 -0.184397,0.09973 -0.261584,0.128023 v -0.239501 c 0.138782,-0.0653 0.260173,-0.144392 0.364101,-0.236996 0.10347,-0.0932 0.177271,-0.183021 0.220592,-0.27051 h 0.159491"
         style="fill:#000000;fill-opacity:1;fill-rule:evenodd;stroke:none;stroke-width:0.352778"
         id="path4960" />
      <path
         d="m -47.252371,83.539 c 0.154587,0.106998 0.298097,0.184714 0.428589,0.233998 l -0.09821,0.232903 c -0.181081,-0.0653 -0.362197,-0.168804 -0.542678,-0.30988 -0.187007,0.10407 -0.393312,0.156387 -0.619689,0.156387 -0.228706,0 -0.435716,-0.05521 -0.622124,-0.165206 -0.185808,-0.11049 -0.329177,-0.265183 -0.429789,-0.465102 -0.100506,-0.199884 -0.150495,-0.425097 -0.150495,-0.675005 0,-0.249273 0.05059,-0.47618 0.151694,-0.680791 0.101106,-0.204082 0.244581,-0.359904 0.431589,-0.466901 0.186302,-0.106398 0.395111,-0.159914 0.625616,-0.159914 0.233398,0 0.4433,0.05532 0.630802,0.166405 0.186972,0.110525 0.329882,0.265818 0.428096,0.465102 0.09818,0.19932 0.147002,0.423898 0.147002,0.674405 0,0.207504 -0.03122,0.394512 -0.09472,0.560317 -0.0629,0.165771 -0.158185,0.31048 -0.285679,0.433282 z m -0.735612,-0.42739 c 0.192898,0.05408 0.351613,0.134584 0.47692,0.241582 0.196285,-0.179282 0.294499,-0.448592 0.294499,-0.807791 0,-0.204611 -0.03471,-0.383398 -0.103999,-0.536292 -0.06943,-0.152189 -0.171133,-0.271004 -0.304624,-0.355706 -0.134091,-0.0841 -0.283986,-0.1264 -0.450991,-0.1264 -0.248708,0 -0.455718,0.0853 -0.619689,0.255799 -0.164606,0.170497 -0.246416,0.425097 -0.246416,0.764293 0,0.328118 0.08121,0.580425 0.243488,0.756214 0.162807,0.17519 0.370416,0.263384 0.622617,0.263384 0.120015,0 0.232304,-0.0224 0.338102,-0.0671 -0.104704,-0.06819 -0.215194,-0.116382 -0.331011,-0.144604"
         style="fill:#000000;fill-opacity:1;fill-rule:evenodd;stroke:none;stroke-width:0.352778"
         id="path13116" />
      <path
         d="m -84.414969,80.313906 0.315101,-0.02759 c 0.01467,0.126401 0.04939,0.229906 0.104105,0.310974 0.05468,0.0811 0.139276,0.146403 0.254,0.196427 0.114582,0.04999 0.243981,0.07468 0.387385,0.07468 0.1276,0 0.239889,-0.01891 0.337502,-0.05648 0.09761,-0.03821 0.170498,-0.08992 0.218193,-0.155822 0.04759,-0.06639 0.07172,-0.138183 0.07172,-0.216394 0,-0.0793 -0.02293,-0.148096 -0.06943,-0.207504 -0.04579,-0.05941 -0.121673,-0.108796 -0.226906,-0.148801 -0.06819,-0.02639 -0.217594,-0.06759 -0.449792,-0.123402 -0.231704,-0.05588 -0.394582,-0.108197 -0.487504,-0.157586 -0.120473,-0.0629 -0.210396,-0.141711 -0.269804,-0.235197 -0.05877,-0.09352 -0.08819,-0.198226 -0.08819,-0.314607 0,-0.127 0.03581,-0.246309 0.108197,-0.356905 0.07232,-0.11109 0.178117,-0.195192 0.3169,-0.252801 0.139312,-0.05701 0.293405,-0.08579 0.463303,-0.08579 0.187607,0 0.352213,0.02991 0.495723,0.09049 0.142805,0.06001 0.252801,0.148802 0.329777,0.265818 0.07641,0.116981 0.118216,0.249908 0.124107,0.398004 l -0.320499,0.02409 c -0.0176,-0.159315 -0.07581,-0.280423 -0.175189,-0.361597 -0.09941,-0.0817 -0.245816,-0.122308 -0.439808,-0.122308 -0.202283,0 -0.349215,0.03711 -0.442101,0.111195 -0.09239,0.07401 -0.138783,0.163407 -0.138783,0.267511 0,0.09109 0.03288,0.165806 0.09818,0.223979 0.0647,0.05881 0.232198,0.118816 0.503908,0.179917 0.271604,0.06181 0.458011,0.115288 0.559082,0.161113 0.147003,0.06819 0.255799,0.154094 0.325826,0.257493 0.06988,0.104105 0.104598,0.224084 0.104598,0.359304 0,0.134585 -0.03821,0.261091 -0.115217,0.379801 -0.07698,0.11878 -0.187607,0.211102 -0.331576,0.277495 -0.144109,0.0659 -0.306423,0.09878 -0.486304,0.09878 -0.228706,0 -0.420405,-0.03288 -0.574428,-0.09987 -0.154693,-0.0665 -0.275766,-0.166405 -0.363996,-0.300531 -0.08759,-0.133492 -0.133985,-0.28508 -0.138077,-0.453884"
         style="fill:#000000;fill-opacity:1;fill-rule:evenodd;stroke:none;stroke-width:0.352778"
         id="path13118" />
      <path
         d="m -84.296295,85.964488 v -2.525325 h 1.119505 c 0.225213,0 0.396311,0.0229 0.513327,0.06819 0.116981,0.04533 0.210467,0.125201 0.281093,0.239924 0.06989,0.115182 0.104599,0.242182 0.104599,0.381 0,0.179282 -0.05761,0.329777 -0.174025,0.452685 -0.115888,0.122908 -0.295169,0.201118 -0.537387,0.234597 0.08879,0.0423 0.155787,0.0841 0.201613,0.125801 0.09758,0.08939 0.190006,0.201718 0.277601,0.335809 l 0.439173,0.687317 h -0.42037 l -0.33401,-0.525604 c -0.09761,-0.151095 -0.178118,-0.267617 -0.241618,-0.347521 -0.06297,-0.08058 -0.11938,-0.136984 -0.169368,-0.168805 -0.05002,-0.03228 -0.100507,-0.05468 -0.15233,-0.06759 -0.03817,-0.0076 -0.09987,-0.01178 -0.186302,-0.01178 h -0.387491 v 1.121305 z m 0.33401,-1.410512 h 0.718503 c 0.152294,0 0.272203,-0.01591 0.358104,-0.04769 0.0864,-0.03172 0.151589,-0.0823 0.196286,-0.151695 0.0447,-0.06932 0.0671,-0.144603 0.0671,-0.226307 0,-0.119415 -0.04297,-0.217593 -0.129998,-0.294604 -0.0864,-0.07701 -0.223379,-0.115218 -0.410986,-0.115218 h -0.799007"
         style="fill:#000000;fill-opacity:1;fill-rule:evenodd;stroke:none;stroke-width:0.352778"
         id="path13120" />
      <g
         id="g13126"
         transform="translate(0,15.875)">
        <path
           style="color:#000000;fill:#000000;stroke-width:0.250014;stroke-miterlimit:10;-inkscape-stroke:none"
           d="m -82.29989,67.214277 h -2.044806"
           id="path13122" />
        <path
           style="color:#000000;fill:#000000;stroke-miterlimit:10;-inkscape-stroke:none"
           d="m -84.34375,67.089844 v 0.25 h 2.042969 v -0.25 z"
           id="path13124" />
      </g>
      <g
         id="g13144"
         transform="translate(0,15.875)">
        <path
           d="m -55.616485,66.747694 h 5.426322"
           style="fill:#000000;stroke:#1a5fb4;stroke-width:0.35;stroke-linecap:butt;stroke-linejoin:miter;stroke-miterlimit:10;stroke-dasharray:none;stroke-opacity:1"
           id="path13130" />
        <path
           style="fill:#000000;stroke:#e01b24;stroke-width:0.35;stroke-linecap:butt;stroke-linejoin:miter;stroke-miterlimit:10;stroke-dasharray:none;stroke-opacity:1"
           d="m -77.606288,68.484242 h -3.731507"
           id="path13132" />
        <path
           style="fill:#000000;stroke:#1a5fb4;stroke-width:0.35;stroke-linecap:butt;stroke-linejoin:miter;stroke-miterlimit:10;stroke-dasharray:none;stroke-opacity:1"
           d="m -81.337795,64.888308 h 18.663109"
           id="path13134" />
        <path
           style="fill:none;stroke:#1a5fb4;stroke-width:0.35;stroke-linecap:butt;stroke-linejoin:miter;stroke-miterlimit:10;stroke-dasharray:none;stroke-opacity:1"
           d="m -77.606288,72.673479 h -3.044684 v 3.529435 h 27.334492 v -9.45522"
           id="path13136" />
        <path
           d="m -53.316586,66.466707 c -0.154693,0 -0.280987,0.126294 -0.280987,0.281093 0,0.154693 0.126294,0.281023 0.280987,0.281023 0.154799,0 0.281094,-0.12633 0.281094,-0.281023 0,-0.154799 -0.126295,-0.281093 -0.281094,-0.281093 z"
           style="fill:#1a5fb4;fill-opacity:1;fill-rule:evenodd;stroke:#1a5fb4;stroke-width:0.19999;stroke-linecap:butt;stroke-linejoin:miter;stroke-miterlimit:10;stroke-dasharray:none;stroke-opacity:1"
           id="path13138" />
        <path
           d="m -62.674581,68.606621 h -3.853709 v 1.971993 h -3.228975"
           style="fill:none;stroke:#1a5fb4;stroke-width:0.35;stroke-linecap:butt;stroke-linejoin:miter;stroke-miterlimit:10;stroke-dasharray:none;stroke-opacity:1"
           id="path13140" />
        <path
           id="path13128"
           style="color:#000000;display:inline;overflow:visible;fill:#f6f5f4;stroke:#000000;stroke-width:0.396875;stroke-linejoin:round;stroke-miterlimit:4;stroke-dasharray:none"
           d="m -77.691501,66.672462 v 3.91759 3.917074 h 3.83491 v -0.0031 a 3.9174999,3.9174999 0 0 0 0.0822,0.0031 3.9174999,3.9174999 0 0 0 3.91759,-3.917074 3.9174999,3.9174999 0 0 0 -3.91759,-3.91759 3.9174999,3.9174999 0 0 0 -0.0822,0.0031 v -0.0031 z" />
        <path
           id="path13142"
           style="color:#000000;display:inline;overflow:visible;fill:#f6f5f4;stroke:#000000;stroke-width:0.396875;stroke-linejoin:round;stroke-miterlimit:4;stroke-dasharray:none"
           d="m -63.536197,62.827653 a 6.5782321,6.5782321 0 0 1 1.29398,3.91707 6.5782321,6.5782321 0 0 1 -1.29914,3.917588 h 3.79098 v -0.003 a 3.9174999,3.9174999 0 0 0 0.0822,0.003 3.9174999,3.9174999 0 0 0 3.91759,-3.917588 3.9174999,3.9174999 0 0 0 -3.91759,-3.91707 3.9174999,3.9174999 0 0 0 -0.0822,0.003 v -0.003 z" />
      </g>
    </g>
  </g>
  <g
     inkscape:groupmode="layer"
     id="layer3"
     inkscape:label="Layer 3"
     transform="translate(-79.809981,-33.358776)">
    <g
       id="g13480"
       style="display:inline"
       transform="translate(164.22495,-60.53002)">
      <path
         d="m -52.87138,97.469125 h -0.247897 v -1.580409 c -0.0598,0.0569 -0.137795,0.113806 -0.234703,0.170709 -0.0974,0.0569 -0.184397,0.09969 -0.261585,0.127988 v -0.239466 c 0.138783,-0.06533 0.260174,-0.144427 0.364102,-0.237031 0.10347,-0.09317 0.177271,-0.182986 0.220592,-0.270475 h 0.159491"
         style="fill:#000000;fill-opacity:1;fill-rule:evenodd;stroke:none;stroke-width:0.352778"
         id="path4978" />
      <path
         d="m -65.413371,104.78743 h -0.247897 v -1.58041 c -0.0598,0.0569 -0.137795,0.11381 -0.234703,0.17071 -0.0974,0.0569 -0.184397,0.0997 -0.26162,0.12799 v -0.2395 c 0.138818,-0.0653 0.260209,-0.1444 0.364102,-0.237 0.103505,-0.0932 0.177306,-0.18299 0.220592,-0.27047 h 0.159526"
         style="fill:#000000;fill-opacity:1;fill-rule:evenodd;stroke:none;stroke-width:0.352778"
         id="path4980" />
      <path
         d="m -66.146196,95.917538 h -0.247897 v -1.580409 c -0.0598,0.0569 -0.137795,0.113806 -0.234703,0.170709 -0.09737,0.0569 -0.184397,0.09969 -0.261585,0.127988 v -0.239501 c 0.138818,-0.0653 0.260209,-0.144392 0.364102,-0.236996 0.103505,-0.0932 0.177306,-0.182986 0.220592,-0.27051 h 0.159491"
         style="fill:#000000;fill-opacity:1;fill-rule:evenodd;stroke:none;stroke-width:0.352778"
         id="path4982" />
      <path
         d="m -78.950583,99.560253 h -0.247897 v -1.580377 c -0.0598,0.0569 -0.137795,0.113771 -0.234703,0.170674 -0.0974,0.0569 -0.184397,0.09973 -0.261584,0.128023 v -0.239501 c 0.138782,-0.0653 0.260173,-0.144392 0.364101,-0.236996 0.10347,-0.0932 0.177271,-0.183021 0.220592,-0.27051 h 0.159491"
         style="fill:#000000;fill-opacity:1;fill-rule:evenodd;stroke:none;stroke-width:0.352778"
         id="path4992" />
      <path
         d="m -47.252371,99.414001 c 0.154587,0.106998 0.298097,0.184714 0.428589,0.233998 l -0.09821,0.232903 c -0.181081,-0.0653 -0.362197,-0.168804 -0.542678,-0.30988 -0.187007,0.10407 -0.393312,0.156387 -0.619689,0.156387 -0.228706,0 -0.435716,-0.05521 -0.622124,-0.165206 -0.185808,-0.11049 -0.329177,-0.265183 -0.429789,-0.465102 -0.100506,-0.199884 -0.150495,-0.425097 -0.150495,-0.675005 0,-0.249273 0.05059,-0.47618 0.151694,-0.680791 0.101106,-0.204082 0.244581,-0.359904 0.431589,-0.466901 0.186302,-0.106398 0.395111,-0.159914 0.625616,-0.159914 0.233398,0 0.4433,0.05532 0.630802,0.166405 0.186972,0.110525 0.329882,0.265818 0.428096,0.465102 0.09818,0.19932 0.147002,0.423898 0.147002,0.674405 0,0.207504 -0.03122,0.394512 -0.09472,0.560317 -0.0629,0.165771 -0.158185,0.31048 -0.285679,0.433282 z m -0.735612,-0.42739 c 0.192898,0.05408 0.351613,0.134584 0.47692,0.241582 0.196285,-0.179282 0.294499,-0.448592 0.294499,-0.807791 0,-0.204611 -0.03471,-0.383398 -0.103999,-0.536292 -0.06943,-0.152189 -0.171133,-0.271004 -0.304624,-0.355706 -0.134091,-0.0841 -0.283986,-0.1264 -0.450991,-0.1264 -0.248708,0 -0.455718,0.0853 -0.619689,0.255799 -0.164606,0.170497 -0.246416,0.425097 -0.246416,0.764293 0,0.328118 0.08121,0.580425 0.243488,0.756214 0.162807,0.17519 0.370416,0.263384 0.622617,0.263384 0.120015,0 0.232304,-0.0224 0.338102,-0.0671 -0.104704,-0.06819 -0.215194,-0.116382 -0.331011,-0.144604"
         style="fill:#000000;fill-opacity:1;fill-rule:evenodd;stroke:none;stroke-width:0.352778"
         id="path13146" />
      <path
         d="m -84.414969,96.188907 0.315101,-0.02759 c 0.01467,0.126401 0.04939,0.229906 0.104105,0.310974 0.05468,0.0811 0.139276,0.146403 0.254,0.196427 0.114582,0.04999 0.243981,0.07468 0.387385,0.07468 0.1276,0 0.239889,-0.01891 0.337502,-0.05648 0.09761,-0.03821 0.170498,-0.08992 0.218193,-0.155822 0.04759,-0.06639 0.07172,-0.138183 0.07172,-0.216394 0,-0.0793 -0.02293,-0.148096 -0.06943,-0.207504 -0.04579,-0.05941 -0.121673,-0.108796 -0.226906,-0.148801 -0.06819,-0.02639 -0.217594,-0.06759 -0.449792,-0.123402 -0.231704,-0.05588 -0.394582,-0.108197 -0.487504,-0.157586 -0.120473,-0.0629 -0.210396,-0.141711 -0.269804,-0.235197 -0.05877,-0.09352 -0.08819,-0.198226 -0.08819,-0.314607 0,-0.127 0.03581,-0.246309 0.108197,-0.356905 0.07232,-0.11109 0.178117,-0.195192 0.3169,-0.252801 0.139312,-0.05701 0.293405,-0.08579 0.463303,-0.08579 0.187607,0 0.352213,0.02991 0.495723,0.09049 0.142805,0.06001 0.252801,0.148802 0.329777,0.265818 0.07641,0.116981 0.118216,0.249908 0.124107,0.398004 l -0.320499,0.02409 c -0.0176,-0.159315 -0.07581,-0.280423 -0.175189,-0.361597 -0.09941,-0.0817 -0.245816,-0.122308 -0.439808,-0.122308 -0.202283,0 -0.349215,0.03711 -0.442101,0.111195 -0.09239,0.07401 -0.138783,0.163407 -0.138783,0.267511 0,0.09109 0.03288,0.165806 0.09818,0.223979 0.0647,0.05881 0.232198,0.118816 0.503908,0.179917 0.271604,0.06181 0.458011,0.115288 0.559082,0.161113 0.147003,0.06819 0.255799,0.154094 0.325826,0.257493 0.06988,0.104105 0.104598,0.224084 0.104598,0.359304 0,0.134585 -0.03821,0.261091 -0.115217,0.379801 -0.07698,0.11878 -0.187607,0.211102 -0.331576,0.277495 -0.144109,0.0659 -0.306423,0.09878 -0.486304,0.09878 -0.228706,0 -0.420405,-0.03288 -0.574428,-0.09987 -0.154693,-0.0665 -0.275766,-0.166405 -0.363996,-0.300531 -0.08759,-0.133492 -0.133985,-0.28508 -0.138077,-0.453884"
         style="fill:#000000;fill-opacity:1;fill-rule:evenodd;stroke:none;stroke-width:0.352778"
         id="path13148" />
      <path
         d="m -84.296295,101.83949 v -2.525326 h 1.119505 c 0.225213,0 0.396311,0.0229 0.513327,0.06819 0.116981,0.04533 0.210467,0.125201 0.281093,0.239924 0.06989,0.115182 0.104599,0.242182 0.104599,0.381002 0,0.17928 -0.05761,0.32977 -0.174025,0.45268 -0.115888,0.12291 -0.295169,0.20112 -0.537387,0.2346 0.08879,0.0423 0.155787,0.0841 0.201613,0.1258 0.09758,0.0894 0.190006,0.20172 0.277601,0.33581 l 0.439173,0.68732 h -0.42037 l -0.33401,-0.52561 c -0.09761,-0.15109 -0.178118,-0.26761 -0.241618,-0.34752 -0.06297,-0.0806 -0.11938,-0.13698 -0.169368,-0.1688 -0.05002,-0.0323 -0.100507,-0.0547 -0.15233,-0.0676 -0.03817,-0.008 -0.09987,-0.0118 -0.186302,-0.0118 h -0.387491 v 1.1213 z m 0.33401,-1.41051 h 0.718503 c 0.152294,0 0.272203,-0.0159 0.358104,-0.0477 0.0864,-0.0317 0.151589,-0.0823 0.196286,-0.1517 0.0447,-0.0693 0.0671,-0.1446 0.0671,-0.22631 0,-0.11941 -0.04297,-0.217588 -0.129998,-0.294599 -0.0864,-0.07701 -0.223379,-0.115218 -0.410986,-0.115218 h -0.799007"
         style="fill:#000000;fill-opacity:1;fill-rule:evenodd;stroke:none;stroke-width:0.352778"
         id="path13150" />
      <g
         id="g13156"
         transform="translate(0,31.750001)">
        <path
           style="color:#000000;fill:#000000;stroke-width:0.250014;stroke-miterlimit:10;-inkscape-stroke:none"
           d="m -82.29989,67.214277 h -2.044806"
           id="path13152" />
        <path
           style="color:#000000;fill:#000000;stroke-miterlimit:10;-inkscape-stroke:none"
           d="m -84.34375,67.089844 v 0.25 h 2.042969 v -0.25 z"
           id="path13154" />
      </g>
      <g
         id="g13174"
         transform="translate(0,31.750001)">
        <path
           d="m -55.616485,66.747694 h 5.426322"
           style="fill:#000000;stroke:#e01b24;stroke-width:0.35;stroke-linecap:butt;stroke-linejoin:miter;stroke-miterlimit:10;stroke-dasharray:none;stroke-opacity:1"
           id="path13160" />
        <path
           style="fill:#000000;stroke:#e01b24;stroke-width:0.35;stroke-linecap:butt;stroke-linejoin:miter;stroke-miterlimit:10;stroke-dasharray:none;stroke-opacity:1"
           d="m -77.606288,68.484242 h -3.731507"
           id="path13162" />
        <path
           style="fill:#000000;stroke:#e01b24;stroke-width:0.35;stroke-linecap:butt;stroke-linejoin:miter;stroke-miterlimit:10;stroke-dasharray:none;stroke-opacity:1"
           d="m -81.337795,64.888308 h 18.663109"
           id="path13164" />
        <path
           style="fill:none;stroke:#e01b24;stroke-width:0.35;stroke-linecap:butt;stroke-linejoin:miter;stroke-miterlimit:10;stroke-dasharray:none;stroke-opacity:1"
           d="m -77.606288,72.673479 h -3.044684 v 3.529435 h 27.334492 v -9.45522"
           id="path13166" />
        <path
           d="m -53.316586,66.466707 c -0.154693,0 -0.280987,0.126294 -0.280987,0.281093 0,0.154693 0.126294,0.281023 0.280987,0.281023 0.154799,0 0.281094,-0.12633 0.281094,-0.281023 0,-0.154799 -0.126295,-0.281093 -0.281094,-0.281093 z"
           style="fill:#e01b24;fill-opacity:1;fill-rule:evenodd;stroke:#e01b24;stroke-width:0.19999;stroke-linecap:butt;stroke-linejoin:miter;stroke-miterlimit:10;stroke-dasharray:none;stroke-opacity:1"
           id="path13168" />
        <path
           d="m -62.674581,68.606621 h -3.853709 v 1.971993 h -3.228975"
           style="fill:none;stroke:#e01b24;stroke-width:0.35;stroke-linecap:butt;stroke-linejoin:miter;stroke-miterlimit:10;stroke-dasharray:none;stroke-opacity:1"
           id="path13170" />
        <path
           id="path13158"
           style="color:#000000;display:inline;overflow:visible;fill:#f6f5f4;stroke:#000000;stroke-width:0.396875;stroke-linejoin:round;stroke-miterlimit:4;stroke-dasharray:none"
           d="m -77.691501,66.672462 v 3.91759 3.917074 h 3.83491 v -0.0031 a 3.9174999,3.9174999 0 0 0 0.0822,0.0031 3.9174999,3.9174999 0 0 0 3.91759,-3.917074 3.9174999,3.9174999 0 0 0 -3.91759,-3.91759 3.9174999,3.9174999 0 0 0 -0.0822,0.0031 v -0.0031 z" />
        <path
           id="path13172"
           style="color:#000000;display:inline;overflow:visible;fill:#f6f5f4;stroke:#000000;stroke-width:0.396875;stroke-linejoin:round;stroke-miterlimit:4;stroke-dasharray:none"
           d="m -63.536197,62.827653 a 6.5782321,6.5782321 0 0 1 1.29398,3.91707 6.5782321,6.5782321 0 0 1 -1.29914,3.917588 h 3.79098 v -0.003 a 3.9174999,3.9174999 0 0 0 0.0822,0.003 3.9174999,3.9174999 0 0 0 3.91759,-3.917588 3.9174999,3.9174999 0 0 0 -3.91759,-3.91707 3.9174999,3.9174999 0 0 0 -0.0822,0.003 v -0.003 z" />
      </g>
    </g>
  </g>
  <g
     inkscape:groupmode="layer"
     id="layer4"
     inkscape:label="Layer 4"
     transform="translate(-79.809981,-33.358776)">
    <g
       id="g13459"
       style="display:inline"
       transform="translate(164.22495,-76.405021)">
      <path
         d="m -52.87138,113.34413 h -0.247897 v -1.5804 c -0.0598,0.0569 -0.137795,0.1138 -0.234703,0.1707 -0.0974,0.0569 -0.184397,0.0997 -0.261585,0.12799 v -0.23946 c 0.138783,-0.0653 0.260174,-0.14443 0.364102,-0.23703 0.10347,-0.0932 0.177271,-0.18299 0.220592,-0.27048 h 0.159491"
         style="fill:#000000;fill-opacity:1;fill-rule:evenodd;stroke:none;stroke-width:0.352778"
         id="path5010" />
      <path
         d="m -65.413371,120.66244 h -0.247897 v -1.58041 c -0.0598,0.0569 -0.137795,0.11381 -0.234703,0.17071 -0.0974,0.0569 -0.184397,0.0997 -0.26162,0.12799 v -0.2395 c 0.138818,-0.0653 0.260209,-0.1444 0.364102,-0.237 0.103505,-0.0932 0.177306,-0.18299 0.220592,-0.27047 h 0.159526"
         style="fill:#000000;fill-opacity:1;fill-rule:evenodd;stroke:none;stroke-width:0.352778"
         id="path5012" />
      <path
         d="m -67.080387,110.79634 c 0,-0.23901 0.02452,-0.43141 0.07391,-0.57669 0.0489,-0.1458 0.122308,-0.2582 0.219216,-0.33732 0.09687,-0.079 0.218687,-0.1185 0.365372,-0.1185 0.108726,0 0.203729,0.0221 0.285503,0.0659 0.08191,0.0432 0.149225,0.10632 0.202812,0.18863 0.05309,0.0823 0.095,0.18249 0.125095,0.30049 0.03059,0.11808 0.04561,0.27708 0.04561,0.47749 0,0.23699 -0.02441,0.42799 -0.07292,0.57379 -0.0489,0.1458 -0.121779,0.2582 -0.218687,0.33772 -0.09691,0.0795 -0.219216,0.11899 -0.367418,0.11899 -0.194698,0 -0.347592,-0.0696 -0.458576,-0.20931 -0.133103,-0.16788 -0.199919,-0.4421 -0.199919,-0.82119 z m 0.255023,0 c 0,0.33161 0.03898,0.5522 0.116593,0.6622 0.07758,0.10961 0.173108,0.16471 0.286879,0.16471 0.1143,0 0.209797,-0.0555 0.287408,-0.16559 0.07761,-0.11011 0.116699,-0.33073 0.116699,-0.66132 0,-0.3326 -0.03909,-0.55369 -0.116699,-0.6628 -0.07761,-0.10961 -0.17399,-0.16411 -0.289701,-0.16411 -0.1143,0 -0.205105,0.0484 -0.273297,0.14481 -0.08509,0.1228 -0.127882,0.35049 -0.127882,0.6821"
         style="fill:#000000;fill-opacity:1;fill-rule:evenodd;stroke:none;stroke-width:0.352778"
         id="path5014" />
      <path
         d="m -78.950583,115.43526 h -0.247897 v -1.58038 c -0.0598,0.0569 -0.137795,0.11377 -0.234703,0.17068 -0.0974,0.0569 -0.184397,0.0997 -0.261584,0.12802 v -0.2395 c 0.138782,-0.0653 0.260173,-0.14439 0.364101,-0.237 0.10347,-0.0932 0.177271,-0.18302 0.220592,-0.27051 h 0.159491"
         style="fill:#000000;fill-opacity:1;fill-rule:evenodd;stroke:none;stroke-width:0.352778"
         id="path5024" />
      <path
         d="m -47.252371,115.28901 c 0.154587,0.107 0.298097,0.18471 0.428589,0.234 l -0.09821,0.2329 c -0.181081,-0.0653 -0.362197,-0.16881 -0.542678,-0.30988 -0.187007,0.10407 -0.393312,0.15639 -0.619689,0.15639 -0.228706,0 -0.435716,-0.0552 -0.622124,-0.16521 -0.185808,-0.11049 -0.329177,-0.26518 -0.429789,-0.4651 -0.100506,-0.19989 -0.150495,-0.4251 -0.150495,-0.67501 0,-0.24927 0.05059,-0.47618 0.151694,-0.68079 0.101106,-0.20408 0.244581,-0.3599 0.431589,-0.4669 0.186302,-0.1064 0.395111,-0.15991 0.625616,-0.15991 0.233398,0 0.4433,0.0553 0.630802,0.1664 0.186972,0.11053 0.329882,0.26582 0.428096,0.4651 0.09818,0.19932 0.147002,0.4239 0.147002,0.67441 0,0.2075 -0.03122,0.39451 -0.09472,0.56032 -0.0629,0.16577 -0.158185,0.31048 -0.285679,0.43328 z m -0.735612,-0.42739 c 0.192898,0.0541 0.351613,0.13458 0.47692,0.24158 0.196285,-0.17928 0.294499,-0.44859 0.294499,-0.80779 0,-0.20461 -0.03471,-0.3834 -0.103999,-0.53629 -0.06943,-0.15219 -0.171133,-0.27101 -0.304624,-0.35571 -0.134091,-0.0841 -0.283986,-0.1264 -0.450991,-0.1264 -0.248708,0 -0.455718,0.0853 -0.619689,0.2558 -0.164606,0.1705 -0.246416,0.4251 -0.246416,0.76429 0,0.32812 0.08121,0.58043 0.243488,0.75622 0.162807,0.17519 0.370416,0.26338 0.622617,0.26338 0.120015,0 0.232304,-0.0224 0.338102,-0.0671 -0.104704,-0.0682 -0.215194,-0.11638 -0.331011,-0.1446"
         style="fill:#000000;fill-opacity:1;fill-rule:evenodd;stroke:none;stroke-width:0.352778"
         id="path13176" />
      <path
         d="m -84.414969,112.06391 0.315101,-0.0276 c 0.01467,0.1264 0.04939,0.22991 0.104105,0.31098 0.05468,0.0811 0.139276,0.1464 0.254,0.19642 0.114582,0.05 0.243981,0.0747 0.387385,0.0747 0.1276,0 0.239889,-0.0189 0.337502,-0.0565 0.09761,-0.0382 0.170498,-0.0899 0.218193,-0.15582 0.04759,-0.0664 0.07172,-0.13818 0.07172,-0.21639 0,-0.0793 -0.02293,-0.1481 -0.06943,-0.20751 -0.04579,-0.0594 -0.121673,-0.10879 -0.226906,-0.1488 -0.06819,-0.0264 -0.217594,-0.0676 -0.449792,-0.1234 -0.231704,-0.0559 -0.394582,-0.1082 -0.487504,-0.15758 -0.120473,-0.0629 -0.210396,-0.14172 -0.269804,-0.2352 -0.05877,-0.0935 -0.08819,-0.19823 -0.08819,-0.31461 0,-0.127 0.03581,-0.24631 0.108197,-0.3569 0.07232,-0.1111 0.178117,-0.1952 0.3169,-0.25281 0.139312,-0.057 0.293405,-0.0858 0.463303,-0.0858 0.187607,0 0.352213,0.0299 0.495723,0.0905 0.142805,0.06 0.252801,0.1488 0.329777,0.26582 0.07641,0.11698 0.118216,0.24991 0.124107,0.39801 l -0.320499,0.0241 c -0.0176,-0.15932 -0.07581,-0.28043 -0.175189,-0.3616 -0.09941,-0.0817 -0.245816,-0.12231 -0.439808,-0.12231 -0.202283,0 -0.349215,0.0371 -0.442101,0.1112 -0.09239,0.074 -0.138783,0.1634 -0.138783,0.26751 0,0.0911 0.03288,0.1658 0.09818,0.22398 0.0647,0.0588 0.232198,0.11881 0.503908,0.17991 0.271604,0.0618 0.458011,0.11529 0.559082,0.16112 0.147003,0.0682 0.255799,0.15409 0.325826,0.25749 0.06988,0.10411 0.104598,0.22408 0.104598,0.3593 0,0.13459 -0.03821,0.2611 -0.115217,0.37981 -0.07698,0.11878 -0.187607,0.2111 -0.331576,0.27749 -0.144109,0.0659 -0.306423,0.0988 -0.486304,0.0988 -0.228706,0 -0.420405,-0.0329 -0.574428,-0.0999 -0.154693,-0.0665 -0.275766,-0.1664 -0.363996,-0.30053 -0.08759,-0.13349 -0.133985,-0.28508 -0.138077,-0.45388"
         style="fill:#000000;fill-opacity:1;fill-rule:evenodd;stroke:none;stroke-width:0.352778"
         id="path13178" />
      <path
         d="m -84.296295,117.7145 v -2.52533 h 1.119505 c 0.225213,0 0.396311,0.0229 0.513327,0.0682 0.116981,0.0453 0.210467,0.1252 0.281093,0.23992 0.06989,0.11519 0.104599,0.24219 0.104599,0.38101 0,0.17928 -0.05761,0.32977 -0.174025,0.45268 -0.115888,0.12291 -0.295169,0.20112 -0.537387,0.2346 0.08879,0.0423 0.155787,0.0841 0.201613,0.1258 0.09758,0.0894 0.190006,0.20172 0.277601,0.33581 l 0.439173,0.68732 h -0.42037 l -0.33401,-0.52561 c -0.09761,-0.15109 -0.178118,-0.26761 -0.241618,-0.34752 -0.06297,-0.0806 -0.11938,-0.13698 -0.169368,-0.1688 -0.05002,-0.0323 -0.100507,-0.0547 -0.15233,-0.0676 -0.03817,-0.008 -0.09987,-0.0118 -0.186302,-0.0118 h -0.387491 v 1.1213 z m 0.33401,-1.41051 h 0.718503 c 0.152294,0 0.272203,-0.0159 0.358104,-0.0477 0.0864,-0.0317 0.151589,-0.0823 0.196286,-0.1517 0.0447,-0.0693 0.0671,-0.1446 0.0671,-0.22631 0,-0.11941 -0.04297,-0.21759 -0.129998,-0.2946 -0.0864,-0.077 -0.223379,-0.11522 -0.410986,-0.11522 h -0.799007"
         style="fill:#000000;fill-opacity:1;fill-rule:evenodd;stroke:none;stroke-width:0.352778"
         id="path13180" />
      <g
         id="g13186"
         transform="translate(0,47.625002)">
        <path
           style="color:#000000;fill:#000000;stroke-width:0.250014;stroke-miterlimit:10;-inkscape-stroke:none"
           d="m -82.29989,67.214277 h -2.044806"
           id="path13182" />
        <path
           style="color:#000000;fill:#000000;stroke-miterlimit:10;-inkscape-stroke:none"
           d="m -84.34375,67.089844 v 0.25 h 2.042969 v -0.25 z"
           id="path13184" />
      </g>
      <g
         id="g13204"
         transform="translate(0,47.625002)">
        <path
           d="m -55.616485,66.747694 h 5.426322"
           style="fill:#000000;stroke:#e01b24;stroke-width:0.35;stroke-linecap:butt;stroke-linejoin:miter;stroke-miterlimit:10;stroke-dasharray:none;stroke-opacity:1"
           id="path13190" />
        <path
           style="fill:#000000;stroke:#e01b24;stroke-width:0.35;stroke-linecap:butt;stroke-linejoin:miter;stroke-miterlimit:10;stroke-dasharray:none;stroke-opacity:1"
           d="m -77.606288,68.484242 h -3.731507"
           id="path13192" />
        <path
           style="fill:#000000;stroke:#1a5fb4;stroke-width:0.35;stroke-linecap:butt;stroke-linejoin:miter;stroke-miterlimit:10;stroke-dasharray:none;stroke-opacity:1"
           d="m -81.337795,64.888308 h 18.663109"
           id="path13194" />
        <path
           style="fill:none;stroke:#e01b24;stroke-width:0.35;stroke-linecap:butt;stroke-linejoin:miter;stroke-miterlimit:10;stroke-dasharray:none;stroke-opacity:1"
           d="m -77.606288,72.673479 h -3.044684 v 3.529435 h 27.334492 v -9.45522"
           id="path13196" />
        <path
           d="m -53.316586,66.466707 c -0.154693,0 -0.280987,0.126294 -0.280987,0.281093 0,0.154693 0.126294,0.281023 0.280987,0.281023 0.154799,0 0.281094,-0.12633 0.281094,-0.281023 0,-0.154799 -0.126295,-0.281093 -0.281094,-0.281093 z"
           style="fill:#e01b24;fill-opacity:1;fill-rule:evenodd;stroke:#e01b24;stroke-width:0.19999;stroke-linecap:butt;stroke-linejoin:miter;stroke-miterlimit:10;stroke-dasharray:none;stroke-opacity:1"
           id="path13198" />
        <path
           d="m -62.674581,68.606621 h -3.853709 v 1.971993 h -3.228975"
           style="fill:none;stroke:#e01b24;stroke-width:0.35;stroke-linecap:butt;stroke-linejoin:miter;stroke-miterlimit:10;stroke-dasharray:none;stroke-opacity:1"
           id="path13200" />
        <path
           id="path13188"
           style="color:#000000;display:inline;overflow:visible;fill:#f6f5f4;stroke:#000000;stroke-width:0.396875;stroke-linejoin:round;stroke-miterlimit:4;stroke-dasharray:none"
           d="m -77.691501,66.672462 v 3.91759 3.917074 h 3.83491 v -0.0031 a 3.9174999,3.9174999 0 0 0 0.0822,0.0031 3.9174999,3.9174999 0 0 0 3.91759,-3.917074 3.9174999,3.9174999 0 0 0 -3.91759,-3.91759 3.9174999,3.9174999 0 0 0 -0.0822,0.0031 v -0.0031 z" />
        <path
           id="path13202"
           style="color:#000000;display:inline;overflow:visible;fill:#f6f5f4;stroke:#000000;stroke-width:0.396875;stroke-linejoin:round;stroke-miterlimit:4;stroke-dasharray:none"
           d="m -63.536197,62.827653 a 6.5782321,6.5782321 0 0 1 1.29398,3.91707 6.5782321,6.5782321 0 0 1 -1.29914,3.917588 h 3.79098 v -0.003 a 3.9174999,3.9174999 0 0 0 0.0822,0.003 3.9174999,3.9174999 0 0 0 3.91759,-3.917588 3.9174999,3.9174999 0 0 0 -3.91759,-3.91707 3.9174999,3.9174999 0 0 0 -0.0822,0.003 v -0.003 z" />
      </g>
    </g>
  </g>
</svg>
