<?xml version="1.0" encoding="UTF-8" standalone="no"?>
<!-- Created with Inkscape (http://www.inkscape.org/) -->

<svg
   width="84.852806mm"
   height="108.96848mm"
   viewBox="0 0 84.852806 108.96848"
   version="1.1"
   id="svg5"
   inkscape:version="1.2 (1:1.2+202206011327+fc4e4096c5)"
   sodipodi:docname="ciclo_de_io_por_int.svg"
   xml:space="preserve"
   xmlns:inkscape="http://www.inkscape.org/namespaces/inkscape"
   xmlns:sodipodi="http://sodipodi.sourceforge.net/DTD/sodipodi-0.dtd"
   xmlns="http://www.w3.org/2000/svg"
   xmlns:svg="http://www.w3.org/2000/svg"><sodipodi:namedview
     id="namedview7"
     pagecolor="#ffffff"
     bordercolor="#666666"
     borderopacity="1.0"
     inkscape:showpageshadow="2"
     inkscape:pageopacity="0.0"
     inkscape:pagecheckerboard="0"
     inkscape:deskcolor="#d1d1d1"
     inkscape:document-units="mm"
     showgrid="false"
     inkscape:zoom="2"
     inkscape:cx="148.25"
     inkscape:cy="212.5"
     inkscape:window-width="1920"
     inkscape:window-height="1016"
     inkscape:window-x="0"
     inkscape:window-y="27"
     inkscape:window-maximized="1"
     inkscape:current-layer="layer1" /><defs
     id="defs2"><marker
       style="overflow:visible"
       id="marker1799"
       refX="0"
       refY="0"
       orient="auto-start-reverse"
       inkscape:stockid="Arrow2"
       markerWidth="7.6999998"
       markerHeight="5.5999999"
       viewBox="0 0 7.7 5.6"
       inkscape:isstock="true"
       inkscape:collect="always"
       preserveAspectRatio="xMidYMid"><path
         transform="scale(0.7)"
         d="M -2,-4 9,0 -2,4 c 2,-2.33 2,-5.66 0,-8 z"
         style="fill:context-stroke;fill-rule:evenodd;stroke:none"
         id="path1797" /></marker><marker
       style="overflow:visible"
       id="marker1799-2"
       refX="0"
       refY="0"
       orient="auto-start-reverse"
       inkscape:stockid="Arrow2"
       markerWidth="7.6999998"
       markerHeight="5.5999999"
       viewBox="0 0 7.7 5.6"
       inkscape:isstock="true"
       inkscape:collect="always"
       preserveAspectRatio="xMidYMid"><path
         transform="scale(0.7)"
         d="M -2,-4 9,0 -2,4 c 2,-2.33 2,-5.66 0,-8 z"
         style="fill:context-stroke;fill-rule:evenodd;stroke:none"
         id="path1797-2" /></marker><marker
       style="overflow:visible"
       id="marker1799-7"
       refX="0"
       refY="0"
       orient="auto-start-reverse"
       inkscape:stockid="Arrow2"
       markerWidth="7.6999998"
       markerHeight="5.5999999"
       viewBox="0 0 7.7 5.6"
       inkscape:isstock="true"
       inkscape:collect="always"
       preserveAspectRatio="xMidYMid"><path
         transform="scale(0.7)"
         d="M -2,-4 9,0 -2,4 c 2,-2.33 2,-5.66 0,-8 z"
         style="fill:context-stroke;fill-rule:evenodd;stroke:none"
         id="path1797-3" /></marker><marker
       style="overflow:visible"
       id="marker1799-7-1"
       refX="0"
       refY="0"
       orient="auto-start-reverse"
       inkscape:stockid="Arrow2"
       markerWidth="7.6999998"
       markerHeight="5.5999999"
       viewBox="0 0 7.7 5.6"
       inkscape:isstock="true"
       inkscape:collect="always"
       preserveAspectRatio="xMidYMid"><path
         transform="scale(0.7)"
         d="M -2,-4 9,0 -2,4 c 2,-2.33 2,-5.66 0,-8 z"
         style="fill:context-stroke;fill-rule:evenodd;stroke:none"
         id="path1797-3-2" /></marker><marker
       style="overflow:visible"
       id="marker1799-7-1-3"
       refX="0"
       refY="0"
       orient="auto-start-reverse"
       inkscape:stockid="Arrow2"
       markerWidth="7.6999998"
       markerHeight="5.5999999"
       viewBox="0 0 7.7 5.6"
       inkscape:isstock="true"
       inkscape:collect="always"
       preserveAspectRatio="xMidYMid"><path
         transform="scale(0.7)"
         d="M -2,-4 9,0 -2,4 c 2,-2.33 2,-5.66 0,-8 z"
         style="fill:context-stroke;fill-rule:evenodd;stroke:none"
         id="path1797-3-2-1" /></marker><marker
       style="overflow:visible"
       id="marker1799-7-1-3-4"
       refX="0"
       refY="0"
       orient="auto-start-reverse"
       inkscape:stockid="Arrow2"
       markerWidth="7.6999998"
       markerHeight="5.5999999"
       viewBox="0 0 7.7 5.6"
       inkscape:isstock="true"
       inkscape:collect="always"
       preserveAspectRatio="xMidYMid"><path
         transform="scale(0.7)"
         d="M -2,-4 9,0 -2,4 c 2,-2.33 2,-5.66 0,-8 z"
         style="fill:context-stroke;fill-rule:evenodd;stroke:none"
         id="path1797-3-2-1-7" /></marker><marker
       style="overflow:visible"
       id="marker1799-7-1-3-4-4"
       refX="0"
       refY="0"
       orient="auto-start-reverse"
       inkscape:stockid="Arrow2"
       markerWidth="7.6999998"
       markerHeight="5.5999999"
       viewBox="0 0 7.7 5.6"
       inkscape:isstock="true"
       inkscape:collect="always"
       preserveAspectRatio="xMidYMid"><path
         transform="scale(0.7)"
         d="M -2,-4 9,0 -2,4 c 2,-2.33 2,-5.66 0,-8 z"
         style="fill:context-stroke;fill-rule:evenodd;stroke:none"
         id="path1797-3-2-1-7-5" /></marker><marker
       style="overflow:visible"
       id="marker1799-3"
       refX="0"
       refY="0"
       orient="auto-start-reverse"
       inkscape:stockid="Arrow2"
       markerWidth="7.6999998"
       markerHeight="5.5999999"
       viewBox="0 0 7.7 5.6"
       inkscape:isstock="true"
       inkscape:collect="always"
       preserveAspectRatio="xMidYMid"><path
         transform="scale(0.7)"
         d="M -2,-4 9,0 -2,4 c 2,-2.33 2,-5.66 0,-8 z"
         style="fill:context-stroke;fill-rule:evenodd;stroke:none"
         id="path1797-6" /></marker></defs><g
     inkscape:label="Layer 1"
     inkscape:groupmode="layer"
     id="layer1"
     transform="translate(-56.11397,-14.486385)"><path
       style="fill:none;stroke:#000000;stroke-width:0.465;stroke-linecap:butt;stroke-linejoin:miter;stroke-dasharray:none;stroke-opacity:1;marker-end:url(#marker1799-7)"
       d="m 103.27296,28.720166 -5.846295,4.791051"
       id="path1845-6"
       sodipodi:nodetypes="cc" /><path
       style="fill:none;stroke:#000000;stroke-width:0.465;stroke-linecap:butt;stroke-linejoin:miter;stroke-dasharray:none;stroke-opacity:1;marker-end:url(#marker1799-7-1)"
       d="M 75.629288,41.442818 V 61.455267"
       id="path1845-6-9"
       sodipodi:nodetypes="cc" /><path
       style="fill:none;stroke:#000000;stroke-width:0.464999;stroke-linecap:butt;stroke-linejoin:miter;stroke-dasharray:none;stroke-opacity:1;marker-end:url(#marker1799-7-1-3)"
       d="m 94.16014,70.630136 h 4.831184"
       id="path1845-6-9-9"
       sodipodi:nodetypes="cc" /><path
       style="fill:none;stroke:#000000;stroke-width:0.464999;stroke-linecap:butt;stroke-linejoin:miter;stroke-dasharray:none;stroke-opacity:1;marker-end:url(#marker1799-7-1-3-4)"
       d="m 121.45146,76.839124 v 4.83118"
       id="path1845-6-9-9-8"
       sodipodi:nodetypes="cc" /><path
       style="fill:none;stroke:#000000;stroke-width:0.464999;stroke-linecap:butt;stroke-linejoin:miter;stroke-dasharray:none;stroke-opacity:1;marker-end:url(#marker1799-7-1-3-4-4)"
       d="m 121.45146,97.017773 v 4.831177"
       id="path1845-6-9-9-8-0"
       sodipodi:nodetypes="cc" /><path
       style="fill:none;stroke:#000000;stroke-width:0.464998;stroke-linecap:butt;stroke-linejoin:miter;stroke-dasharray:0.929996, 0.464998;stroke-dashoffset:0;stroke-opacity:1;marker-end:url(#marker1799-2)"
       d="M 121.45145,36.265407 V 61.462315"
       id="path1845-8" /><rect
       style="fill:#c0bfbc;stroke:#000000;stroke-width:0.2;stroke-linecap:square;stroke-linejoin:round;stroke-dasharray:none;stop-color:#000000"
       id="rect779-7"
       width="38.830635"
       height="12.157809"
       x="56.21397"
       y="29.285007" /><rect
       style="fill:#99c1f1;stroke:#000000;stroke-width:0.2;stroke-linecap:square;stroke-linejoin:round;stroke-dasharray:none;stop-color:#000000"
       id="rect779-2"
       width="38.830635"
       height="12.157809"
       x="102.03613"
       y="24.107599" /><rect
       style="fill:#ffffff;stroke:none;stroke-width:0.2;stroke-linecap:square;stroke-linejoin:round;stroke-dasharray:none;stop-color:#000000"
       id="rect779-2-9"
       width="38.830635"
       height="12.157809"
       x="101.42614"
       y="42.931576" /><text
       xml:space="preserve"
       style="font-style:normal;font-variant:normal;font-weight:600;font-stretch:normal;font-size:2.82223px;line-height:1.25;font-family:FreeSans;-inkscape-font-specification:'FreeSans, Semi-Bold';font-variant-ligatures:normal;font-variant-caps:normal;font-variant-numeric:normal;font-variant-east-asian:normal;text-align:center;letter-spacing:0px;word-spacing:0px;writing-mode:lr-tb;text-anchor:middle;stroke-width:0.264583"
       x="121.5079"
       y="16.577658"
       id="text186"><tspan
         sodipodi:role="line"
         id="tspan184"
         style="font-style:normal;font-variant:normal;font-weight:600;font-stretch:normal;font-size:2.82223px;font-family:FreeSans;-inkscape-font-specification:'FreeSans, Semi-Bold';font-variant-ligatures:normal;font-variant-caps:normal;font-variant-numeric:normal;font-variant-east-asian:normal;stroke-width:0.264583"
         x="121.5079"
         y="16.577658">CPU</tspan></text><text
       xml:space="preserve"
       style="font-style:normal;font-variant:normal;font-weight:600;font-stretch:normal;font-size:2.82223px;line-height:1.25;font-family:FreeSans;-inkscape-font-specification:'FreeSans, Semi-Bold';font-variant-ligatures:normal;font-variant-caps:normal;font-variant-numeric:normal;font-variant-east-asian:normal;text-align:center;letter-spacing:0px;word-spacing:0px;writing-mode:lr-tb;text-anchor:middle;stroke-width:0.264583"
       x="75.637756"
       y="16.577658"
       id="text190"><tspan
         sodipodi:role="line"
         id="tspan188"
         style="font-style:normal;font-variant:normal;font-weight:600;font-stretch:normal;font-size:2.82223px;font-family:FreeSans;-inkscape-font-specification:'FreeSans, Semi-Bold';font-variant-ligatures:normal;font-variant-caps:normal;font-variant-numeric:normal;font-variant-east-asian:normal;stroke-width:0.264583"
         x="75.637756"
         y="16.577658">Controlador de E/S</tspan></text><text
       xml:space="preserve"
       style="font-size:2.82223px;line-height:1.25;font-family:FreeSans;-inkscape-font-specification:FreeSans;text-align:center;letter-spacing:0px;word-spacing:0px;writing-mode:lr-tb;text-anchor:middle;stroke-width:0.264583"
       x="121.42324"
       y="29.418856"
       id="text194"><tspan
         sodipodi:role="line"
         id="tspan192"
         style="stroke-width:0.264583"
         x="121.42324"
         y="29.418856">El driver de dispositivo</tspan><tspan
         sodipodi:role="line"
         style="stroke-width:0.264583"
         x="121.42324"
         y="32.946644"
         id="tspan196">inicializa la acción de E/S</tspan></text><text
       xml:space="preserve"
       style="font-size:2.82223px;line-height:1.25;font-family:FreeSans;-inkscape-font-specification:FreeSans;text-align:center;letter-spacing:0px;word-spacing:0px;writing-mode:lr-tb;text-anchor:middle;stroke-width:0.264583"
       x="75.626465"
       y="36.377094"
       id="text194-7"><tspan
         sodipodi:role="line"
         style="stroke-width:0.264583"
         x="75.626465"
         y="36.377094"
         id="tspan196-3">Se inicia la acción E/S</tspan></text><rect
       style="fill:#deddda;stroke:#000000;stroke-width:0.2;stroke-linecap:square;stroke-linejoin:round;stroke-dasharray:none;stop-color:#000000"
       id="rect779-5"
       width="38.830635"
       height="12.157809"
       x="56.21397"
       y="64.551231" /><g
       id="g2432"><rect
         style="fill:#deddda;stroke:#000000;stroke-width:0.2;stroke-linecap:square;stroke-linejoin:round;stroke-dasharray:none;stop-color:#000000"
         id="rect779"
         width="38.830635"
         height="12.157809"
         x="102.03614"
         y="64.551231" /><text
         xml:space="preserve"
         style="font-size:2.82223px;line-height:1.25;font-family:FreeSans;-inkscape-font-specification:FreeSans;text-align:center;letter-spacing:0px;word-spacing:0px;writing-mode:lr-tb;text-anchor:middle;stroke-width:0.264583"
         x="121.4571"
         y="67.840363"
         id="text194-7-5"><tspan
           sodipodi:role="line"
           style="stroke-width:0.264583"
           x="121.4571"
           y="67.840363"
           id="tspan486">CPU recibe la interrupción y</tspan><tspan
           sodipodi:role="line"
           style="stroke-width:0.264583"
           x="121.4571"
           y="71.368149"
           id="tspan482">transfiere el control a la rutina</tspan><tspan
           sodipodi:role="line"
           style="stroke-width:0.264583"
           x="121.4571"
           y="74.895935"
           id="tspan494">de atención de interrupciones</tspan></text></g><g
       id="g2425"
       transform="translate(0,0.13350602)"><rect
         style="fill:#99c1f1;stroke:#000000;stroke-width:0.2;stroke-linecap:square;stroke-linejoin:round;stroke-dasharray:none;stop-color:#000000"
         id="rect779-0"
         width="38.830635"
         height="12.157809"
         x="102.03614"
         y="84.596375" /><text
         xml:space="preserve"
         style="font-size:2.82223px;line-height:1.25;font-family:FreeSans;-inkscape-font-specification:FreeSans;text-align:center;letter-spacing:0px;word-spacing:0px;writing-mode:lr-tb;text-anchor:middle;stroke-width:0.264583"
         x="121.38655"
         y="87.884094"
         id="text194-7-5-2"><tspan
           sodipodi:role="line"
           style="stroke-width:0.264583"
           x="121.38655"
           y="87.884094"
           id="tspan494-2">La rutina de atención de </tspan><tspan
           sodipodi:role="line"
           style="stroke-width:0.264583"
           x="121.38655"
           y="91.41188"
           id="tspan545">interrupciones procesa la</tspan><tspan
           sodipodi:role="line"
           style="stroke-width:0.264583"
           x="121.38655"
           y="94.939667"
           id="tspan547">información y retorna</tspan></text></g><g
       id="g2418"
       transform="translate(0,4.7497696)"><rect
         style="fill:#99c1f1;stroke:#000000;stroke-width:0.2;stroke-linecap:square;stroke-linejoin:round;stroke-dasharray:none;stop-color:#000000"
         id="rect779-23"
         width="38.830635"
         height="12.157809"
         x="102.03614"
         y="100.15876" /><text
         xml:space="preserve"
         style="font-size:2.82223px;line-height:1.25;font-family:FreeSans;-inkscape-font-specification:FreeSans;text-align:center;letter-spacing:0px;word-spacing:0px;writing-mode:lr-tb;text-anchor:middle;stroke-width:0.264583"
         x="121.45146"
         y="103.44791"
         id="text194-7-5-2-7"><tspan
           sodipodi:role="line"
           style="stroke-width:0.264583"
           x="121.45146"
           y="103.44791"
           id="tspan547-3">La CPU continua la</tspan><tspan
           sodipodi:role="line"
           style="stroke-width:0.264583"
           x="121.45146"
           y="106.97569"
           id="tspan599">ejecución del proceso</tspan><tspan
           sodipodi:role="line"
           style="stroke-width:0.264583"
           x="121.45146"
           y="110.50348"
           id="tspan601">interrumpido</tspan></text></g><text
       xml:space="preserve"
       style="font-size:2.82223px;line-height:1;font-family:FreeSans;-inkscape-font-specification:FreeSans;text-align:center;letter-spacing:0px;word-spacing:0px;writing-mode:lr-tb;text-anchor:middle;stroke-width:0.264583"
       x="75.708313"
       y="67.134804"
       id="text194-7-5-2-7-6"><tspan
         sodipodi:role="line"
         style="stroke-width:0.264583"
         x="75.708313"
         y="67.134804"
         id="tspan653">Se lee del dispositivo,</tspan><tspan
         sodipodi:role="line"
         style="stroke-width:0.264583"
         x="75.708313"
         y="69.957031"
         id="tspan657">o escribe en el dispositivo</tspan><tspan
         sodipodi:role="line"
         style="stroke-width:0.264583"
         x="75.708313"
         y="72.779266"
         id="tspan659">o se recupera un error</tspan><tspan
         sodipodi:role="line"
         style="stroke-width:0.264583"
         x="75.708313"
         y="75.601494"
         id="tspan661">y se genera una interrupción.</tspan></text><text
       xml:space="preserve"
       style="font-size:2.82223px;line-height:1.25;font-family:FreeSans;-inkscape-font-specification:FreeSans;text-align:center;letter-spacing:0px;word-spacing:0px;writing-mode:lr-tb;text-anchor:middle;stroke-width:0.264583"
       x="120.87814"
       y="46.220707"
       id="text194-7-5-2-7-6-6"><tspan
         sodipodi:role="line"
         style="stroke-width:0.264583"
         x="120.87814"
         y="46.220707"
         id="tspan723">La CPU continua ejecutando</tspan><tspan
         sodipodi:role="line"
         style="stroke-width:0.264583"
         x="120.87814"
         y="49.748493"
         id="tspan1500">se espera por una interrupción</tspan><tspan
         sodipodi:role="line"
         style="stroke-width:0.264583"
         x="120.87814"
         y="53.276283"
         id="tspan1494">del dispositivo</tspan></text><text
       xml:space="preserve"
       style="font-size:2.82223px;line-height:1.25;font-family:FreeSans;-inkscape-font-specification:FreeSans;text-align:center;letter-spacing:0px;word-spacing:0px;writing-mode:lr-tb;text-anchor:middle;stroke-width:0.264583"
       x="98.441597"
       y="68.50679"
       id="text194-7-5-2-7-6-6-4"><tspan
         sodipodi:role="line"
         style="stroke-width:0.264583"
         x="98.441597"
         y="68.50679"
         id="tspan1494-4">INT</tspan></text><path
       style="fill:none;stroke:#000000;stroke-width:0.465;stroke-linecap:butt;stroke-linejoin:miter;stroke-dasharray:none;stroke-opacity:1;marker-end:url(#marker1799)"
       d="M 121.45145,17.660992 V 21.12003"
       id="path1845" /><path
       style="fill:none;stroke:#000000;stroke-width:0.465;stroke-linecap:butt;stroke-linejoin:miter;stroke-dasharray:none;stroke-opacity:1;marker-end:url(#marker1799-3)"
       d="m 121.45146,117.06634 v 3.45903"
       id="path1845-1" /><circle
       style="fill:#deddda;stroke:none;stroke-width:0.465;stroke-linecap:square;stroke-linejoin:round;stroke-dasharray:none;stroke-dashoffset:0;stop-color:#000000"
       id="path3114"
       cx="75.629288"
       cy="51.226665"
       r="6.3950806" /><text
       xml:space="preserve"
       style="font-size:2.82223px;line-height:1.25;font-family:FreeSans;-inkscape-font-specification:FreeSans;text-align:center;letter-spacing:0px;word-spacing:0px;writing-mode:lr-tb;text-anchor:middle;stroke-width:0.264583"
       x="58.877449"
       y="56.107346"
       id="text3118"><tspan
         sodipodi:role="line"
         id="tspan3116"
         style="stroke-width:0.264583"
         x="58.877449"
         y="56.107346" /></text><g
       id="g3415"
       transform="matrix(0.40269369,0,0,0.40269369,56.167176,30.71141)"
       style="stroke-width:2.48327"><ellipse
         style="fill:#deddda;stroke:none;stroke-width:1.15473;stroke-linecap:square;stroke-linejoin:round;stroke-dasharray:2.30944, 1.15471;stroke-dashoffset:0;stop-color:#000000"
         id="ellipse3407"
         cx="42.389225"
         cy="57.593388"
         rx="4.7252541"
         ry="2.4565585" /><ellipse
         style="fill:#c0bfbc;stroke:none;stroke-width:1.15472;stroke-linecap:square;stroke-linejoin:round;stroke-dasharray:2.30944, 1.15471;stroke-dashoffset:0;stop-color:#000000"
         id="ellipse3378"
         cx="42.389225"
         cy="57.375069"
         rx="4.0064793"
         ry="2.2382376" /><ellipse
         style="fill:#000000;stroke:none;stroke-width:1.15472;stroke-linecap:square;stroke-linejoin:round;stroke-dasharray:2.30944, 1.15471;stroke-dashoffset:0;stop-color:#000000"
         id="path3234-9-0"
         cx="42.389225"
         cy="57.375069"
         rx="3.6157992"
         ry="1.8019576" /><path
         id="path3234"
         style="fill:#c01c28;stroke:none;stroke-width:1.15472;stroke-linecap:square;stroke-linejoin:round;stroke-dasharray:2.30944, 1.15472;stroke-dashoffset:0;stop-color:#000000"
         d="m 42.389226,53.948059 c -1.958141,2e-5 -3.54551,0.805157 -3.54552,1.79834 v 1.505851 c 1e-5,0.993183 1.587379,1.79832 3.54552,1.79834 1.958141,-2e-5 3.54551,-0.805157 3.54552,-1.79834 v -1.505851 c -10e-6,-0.993183 -1.587379,-1.79832 -3.54552,-1.79834 z"
         sodipodi:nodetypes="ccccccc" /><ellipse
         style="fill:#ed333b;stroke:none;stroke-width:1.15472;stroke-linecap:square;stroke-linejoin:round;stroke-dasharray:2.30944, 1.15472;stroke-dashoffset:0;stop-color:#000000"
         id="path3234-2"
         cx="42.389225"
         cy="55.746407"
         rx="3.5455921"
         ry="1.7983489" /><ellipse
         style="fill:#e01b24;stroke:none;stroke-width:1.15472;stroke-linecap:square;stroke-linejoin:round;stroke-dasharray:2.30944, 1.15472;stroke-dashoffset:0;stop-color:#000000"
         id="path3234-9-0-6"
         cx="42.389225"
         cy="55.509098"
         rx="3.1444657"
         ry="1.5610418" /></g><g
       id="g4497"><path
         style="fill:#e6af93;fill-opacity:1;stroke:none;stroke-width:0.264584px;stroke-linecap:butt;stroke-linejoin:miter;stroke-opacity:1"
         d="m 81.766652,50.425667 c -1.090548,1.208117 -1.524705,1.07577 -1.500627,1.207451 0.02407,0.131685 -0.0515,0.315998 -0.0515,0.315998 -0.660857,0.573708 -0.945254,0.505641 -1.171163,0.515466 -0.22591,0.0098 -0.365911,-0.290636 -0.365911,-0.290636 0,0 -0.11656,0.199857 -0.401071,0.322345 -0.284519,0.122484 -0.612325,-0.04247 -0.780916,-0.187592 -0.168594,-0.145126 -0.155882,-0.507667 -0.155882,-0.507667 -0.476927,0.04321 -0.721247,-0.163146 -0.874363,-0.445424 -0.153112,-0.28228 -0.04874,-1.192711 -0.04874,-1.192711 0,0 -1.013519,0.983627 -1.167927,1.138705 -0.154407,0.155074 -0.861574,1.2632 -1.434365,1.700651 -0.572789,0.437448 -0.828123,0.24194 -1.011922,0.05746 -0.183797,-0.184481 -0.08733,-0.565254 0.266632,-0.985574 0.353968,-0.420319 1.124531,-1.800788 1.265437,-2.058565 0.140906,-0.257776 0.366366,-0.251482 0.783034,-0.716682 0.416669,-0.465203 0.799399,-1.082795 0.799399,-1.082795 0,0 -0.07731,0.01372 -0.709134,-0.154497 -0.631827,-0.168277 -0.707657,-0.672806 -0.659773,-0.861534 0.04789,-0.188729 0.146791,-0.215529 0.146791,-0.215529 0,0 0.342643,0.07004 0.566644,0.10284 0.224001,0.03282 0.448128,-0.0017 0.561108,-0.06455 0.112988,-0.06284 1.60506,-0.631489 1.861753,-0.791275 0.152253,-0.09477 0.73845,-0.249463 1.291547,-0.414841 0.379406,-0.113443 0.704296,0.356751 0.871522,0.507159 0.307572,0.27664 0.627055,0.563149 0.627055,0.563149 l 0.757894,1.139199 0.544665,1.351049 z"
         id="path3417-6"
         sodipodi:nodetypes="cscccsscscssssssccscccssscccc" /><path
         style="fill:none;stroke:#000000;stroke-width:0.165;stroke-linecap:round;stroke-linejoin:miter;stroke-dasharray:none;stroke-opacity:1"
         d="m 78.982951,45.814558 c -0.555211,0.166192 -1.145868,0.321819 -1.298786,0.417006 -0.256694,0.159784 -1.748771,0.728445 -1.861752,0.791275 -0.112987,0.06284 -0.337107,0.09737 -0.561108,0.06455 -0.224001,-0.03282 -0.566644,-0.10284 -0.566644,-0.10284 0,0 -0.09891,0.0268 -0.146791,0.215529 -0.04788,0.188726 0.02795,0.693257 0.659773,0.861534 0.631824,0.168277 0.709133,0.154497 0.709133,0.154497 0,0 -0.382729,0.617591 -0.799398,1.082795 -0.416668,0.4652 -0.642128,0.458906 -0.783034,0.716683 -0.140907,0.257776 -0.91147,1.638245 -1.265438,2.058564 -0.353967,0.42032 -0.450428,0.801092 -0.266632,0.985573 0.1838,0.184481 0.439134,0.379989 1.011922,-0.05746 0.572792,-0.437451 1.279958,-1.545577 1.434365,-1.700651 0.154409,-0.155078 1.167928,-1.138705 1.167928,-1.138705 0,0 -0.104373,0.910431 0.04874,1.192711 0.153115,0.282278 0.397436,0.488637 0.874363,0.445423 0,0 -0.01275,0.362541 0.155881,0.507668 0.168592,0.145126 0.496398,0.310081 0.780917,0.187592 0.284517,-0.122483 0.401071,-0.322345 0.401071,-0.322345 0,0 0.140001,0.300459 0.365911,0.290636 0.22591,-0.0098 0.510306,0.05825 1.171163,-0.515466 0,0 0.07556,-0.184318 0.05149,-0.316 -0.02407,-0.131685 0.410079,6.67e-4 1.500627,-1.207449"
         id="path3417"
         sodipodi:nodetypes="cssscsscsssssscsccscccsc" /><path
         style="fill:none;stroke:#000000;stroke-width:0.165;stroke-linecap:round;stroke-linejoin:miter;stroke-dasharray:none;stroke-opacity:1"
         d="m 78.671946,52.206117 c 0,0 0.0098,-0.333186 0.114977,-0.644215 0.105158,-0.311027 0.05318,-0.822244 0.351356,-0.99059"
         id="path3419"
         sodipodi:nodetypes="csc" /><path
         style="fill:none;stroke:#000000;stroke-width:0.165;stroke-linecap:round;stroke-linejoin:miter;stroke-dasharray:none;stroke-opacity:1"
         d="m 77.333774,51.832921 c 0,0 0.01095,-0.273085 0.143854,-0.633337 0.132981,-0.36025 0.200454,-0.762235 0.239787,-0.893617 0.03933,-0.131378 0.101199,-0.383736 0.341402,-0.525547"
         id="path3421"
         sodipodi:nodetypes="cssc" /><path
         style="fill:none;stroke:#000000;stroke-width:0.165;stroke-linecap:round;stroke-linejoin:miter;stroke-dasharray:none;stroke-opacity:1"
         d="m 76.39477,50.245588 c 0,0 0.08528,-0.78724 0.200013,-1.084226 0.114724,-0.296986 0.197095,-0.474979 0.358871,-0.587994"
         id="path3423" /><path
         style="fill:none;stroke:#000000;stroke-width:0.165;stroke-linecap:round;stroke-linejoin:miter;stroke-dasharray:none;stroke-opacity:1"
         d="m 75.90907,48.226275 c 0,0 0.329149,-0.52598 0.609785,-0.756882 0.280637,-0.230901 1.019149,-0.756855 1.019149,-0.756855"
         id="path3425" /></g><circle
       style="fill:none;stroke:#000000;stroke-width:0.465;stroke-linecap:square;stroke-linejoin:round;stroke-dasharray:none;stroke-dashoffset:0;stop-color:#000000"
       id="circle4499"
       cx="75.629288"
       cy="51.226665"
       r="6.3950806" /></g></svg>
