<?xml version="1.0" encoding="UTF-8" standalone="no"?>
<!-- Created with Inkscape (http://www.inkscape.org/) -->

<svg
   width="60.304619mm"
   height="55.348434mm"
   viewBox="0 0 60.304619 55.348434"
   version="1.1"
   id="svg20476"
   inkscape:version="1.1 (1:1.1+202105261517+ce6663b3b7)"
   sodipodi:docname="bloquesConMemoria.svg"
   xmlns:inkscape="http://www.inkscape.org/namespaces/inkscape"
   xmlns:sodipodi="http://sodipodi.sourceforge.net/DTD/sodipodi-0.dtd"
   xmlns="http://www.w3.org/2000/svg"
   xmlns:svg="http://www.w3.org/2000/svg">
  <sodipodi:namedview
     id="namedview20478"
     pagecolor="#ffffff"
     bordercolor="#666666"
     borderopacity="1.0"
     inkscape:pageshadow="2"
     inkscape:pageopacity="0.0"
     inkscape:pagecheckerboard="0"
     inkscape:document-units="mm"
     showgrid="false"
     fit-margin-top="0"
     fit-margin-left="0"
     fit-margin-right="0"
     fit-margin-bottom="0"
     inkscape:zoom="0.94867184"
     inkscape:cx="47.961791"
     inkscape:cy="231.37611"
     inkscape:window-width="1920"
     inkscape:window-height="1136"
     inkscape:window-x="0"
     inkscape:window-y="27"
     inkscape:window-maximized="1"
     inkscape:current-layer="layer1" />
  <defs
     id="defs20473" />
  <g
     inkscape:label="Layer 1"
     inkscape:groupmode="layer"
     id="layer1"
     transform="translate(-44.393504,-111.55686)"
     style="display:inline">
    <g
       id="g38916">
      <path
         d="m 61.383122,111.73327 h 25.284606 v 23.10669 H 61.383122 Z"
         style="fill:#e9e9e9;fill-opacity:1;fill-rule:evenodd;stroke:#000000;stroke-width:0.352813;stroke-linecap:butt;stroke-linejoin:miter;stroke-miterlimit:10;stroke-dasharray:none;stroke-opacity:1"
         id="path3474" />
      <path
         d="m 69.879105,115.65767 h -0.248179 v -2.18038 h 0.267511 v 0.77777 c 0.113171,-0.14167 0.257387,-0.21269 0.432576,-0.21269 0.0974,0 0.189301,0.0198 0.276119,0.0588 0.08678,0.0391 0.157904,0.0945 0.214172,0.165 0.05591,0.0711 0.100118,0.15642 0.131515,0.25689 0.032,0.10001 0.0477,0.20711 0.0477,0.32082 0,0.2711 -0.06699,0.4803 -0.201013,0.62797 -0.133491,0.14771 -0.294393,0.22134 -0.481683,0.22134 -0.186408,0 -0.332599,-0.0776 -0.438714,-0.23351 z m -0.003,-0.80158 c 0,0.18941 0.02593,0.3259 0.07722,0.41018 0.08417,0.13811 0.198473,0.20711 0.342089,0.20711 0.117298,0 0.218299,-0.0507 0.3036,-0.15279 0.0853,-0.10153 0.127918,-0.2528 0.127918,-0.4543 0,-0.2061 -0.0411,-0.35843 -0.122802,-0.45639 -0.08181,-0.098 -0.180799,-0.14722 -0.29651,-0.14722 -0.117299,0 -0.218299,0.0507 -0.303601,0.1523 -0.0853,0.10149 -0.127917,0.24871 -0.127917,0.44111"
         style="fill:#000000;fill-opacity:1;fill-rule:evenodd;stroke:none;stroke-width:0.352778"
         id="path3480" />
      <path
         d="m 71.320308,115.65767 v -2.18038 h 0.267617 v 2.18038"
         style="fill:#000000;fill-opacity:1;fill-rule:evenodd;stroke:none;stroke-width:0.352778"
         id="path3482" />
      <path
         d="m 71.903132,114.86777 c 0,-0.29238 0.08117,-0.5092 0.244193,-0.64978 0.135502,-0.11681 0.30099,-0.17562 0.496499,-0.17562 0.217311,0 0.3949,0.071 0.532483,0.21372 0.138112,0.1421 0.206622,0.33859 0.206622,0.58938 0,0.20352 -0.03041,0.3634 -0.09141,0.47971 -0.06089,0.1167 -0.149719,0.20712 -0.265994,0.2716 -0.116699,0.0645 -0.243593,0.0964 -0.381706,0.0964 -0.220804,0 -0.399521,-0.0705 -0.536116,-0.21273 -0.136596,-0.1416 -0.204576,-0.34568 -0.204576,-0.6127 z m 0.275202,0 c 0,0.20253 0.0441,0.3538 0.132468,0.45431 0.0883,0.1011 0.199531,0.1513 0.333022,0.1513 0.132997,0 0.243699,-0.0507 0.331999,-0.1518 0.08781,-0.101 0.13201,-0.2553 0.13201,-0.46238 0,-0.19551 -0.0442,-0.34372 -0.132998,-0.44422 -0.0889,-0.10051 -0.199001,-0.15081 -0.331011,-0.15081 -0.133491,0 -0.244722,0.0503 -0.333022,0.15031 -0.08837,0.10002 -0.132468,0.25129 -0.132468,0.45329"
         style="fill:#000000;fill-opacity:1;fill-rule:evenodd;stroke:none;stroke-width:0.352778"
         id="path3484" />
      <path
         d="m 74.703835,116.26279 v -0.77311 c -0.04163,0.0583 -0.100013,0.1071 -0.174625,0.1457 -0.07518,0.0385 -0.154905,0.0578 -0.239078,0.0578 -0.187395,0 -0.348827,-0.0746 -0.483799,-0.22433 -0.135608,-0.14979 -0.20313,-0.3549 -0.20313,-0.61578 0,-0.15839 0.02741,-0.30109 0.08283,-0.427 0.05479,-0.12591 0.134479,-0.2213 0.239078,-0.28631 0.104493,-0.065 0.219322,-0.0974 0.344205,-0.0974 0.195404,0 0.349215,0.0822 0.461398,0.2472 v -0.21118 h 0.240595 v 2.1844 z m -0.82543,-1.39911 c 0,0.20309 0.04262,0.35538 0.127917,0.45691 0.0853,0.1021 0.18729,0.15279 0.306106,0.15279 0.114194,0 0.212195,-0.0482 0.294393,-0.1452 0.0828,-0.0964 0.123895,-0.24359 0.123895,-0.44111 0,-0.21019 -0.04371,-0.36809 -0.130492,-0.47417 -0.08682,-0.10612 -0.188313,-0.15942 -0.305612,-0.15942 -0.115675,0 -0.214206,0.0498 -0.294887,0.1483 -0.08071,0.0985 -0.12132,0.25231 -0.12132,0.4619"
         style="fill:#000000;fill-opacity:1;fill-rule:evenodd;stroke:none;stroke-width:0.352778"
         id="path3486" />
      <path
         d="m 76.426237,115.65767 v -0.23198 c -0.123331,0.17868 -0.290301,0.26751 -0.501509,0.26751 -0.09292,0 -0.180199,-0.0177 -0.26102,-0.0533 -0.08068,-0.0355 -0.140582,-0.0807 -0.179705,-0.13451 -0.03958,-0.0543 -0.06699,-0.1203 -0.08269,-0.19851 -0.01069,-0.0528 -0.0163,-0.136 -0.0163,-0.2503 v -0.97818 h 0.267617 v 0.8757 c 0,0.14009 0.0056,0.234 0.01619,0.28279 0.01729,0.0705 0.05281,0.12531 0.107103,0.16602 0.05489,0.0401 0.122379,0.0599 0.202601,0.0599 0.08019,0 0.155292,-0.0203 0.225883,-0.0615 0.07052,-0.0411 0.120297,-0.0974 0.149225,-0.16799 0.02949,-0.0711 0.04417,-0.17409 0.04417,-0.30861 v -0.84628 h 0.267511 v 1.57928"
         style="fill:#000000;fill-opacity:1;fill-rule:evenodd;stroke:none;stroke-width:0.352778"
         id="path3488" />
      <path
         d="m 78.165925,115.14897 0.276684,0.034 c -0.04367,0.16199 -0.12439,0.2874 -0.242182,0.37669 -0.118216,0.0889 -0.268993,0.13353 -0.452297,0.13353 -0.230999,0 -0.414196,-0.071 -0.54931,-0.21322 -0.135502,-0.1421 -0.202988,-0.3416 -0.202988,-0.59849 0,-0.26599 0.06847,-0.47212 0.205105,-0.61881 0.136983,-0.14668 0.314184,-0.22031 0.532483,-0.22031 0.211208,0 0.383786,0.072 0.517313,0.21573 0.133985,0.14368 0.200977,0.34618 0.200977,0.60667 0,0.0162 -4.94e-4,0.0401 -0.0015,0.0715 h -1.177714 c 0.0096,0.1736 0.05881,0.3066 0.147215,0.3985 0.0883,0.0924 0.197978,0.1386 0.329882,0.1386 0.098,0 0.181822,-0.0259 0.251319,-0.0776 0.0696,-0.0513 0.124389,-0.1336 0.164994,-0.2468 z m -0.878699,-0.433 h 0.881804 c -0.01171,-0.13251 -0.04572,-0.23248 -0.101107,-0.29849 -0.08519,-0.10301 -0.195897,-0.1548 -0.331505,-0.1548 -0.122802,0 -0.226413,0.0411 -0.310092,0.1233 -0.08382,0.0823 -0.129998,0.1924 -0.1391,0.32999"
         style="fill:#000000;fill-opacity:1;fill-rule:evenodd;stroke:none;stroke-width:0.352778"
         id="path3490" />
      <path
         d="m 65.500709,118.48176 0.262926,0.0345 c -0.0284,0.18122 -0.102024,0.32342 -0.220804,0.4259 -0.118322,0.10263 -0.264019,0.15382 -0.436598,0.15382 -0.215723,0 -0.389925,-0.0705 -0.520806,-0.21171 -0.131515,-0.14111 -0.19752,-0.3436 -0.19752,-0.60759 0,-0.1706 0.0284,-0.31982 0.08481,-0.44781 0.0568,-0.12788 0.142593,-0.2238 0.25841,-0.2878 0.115181,-0.064 0.241088,-0.0959 0.37659,-0.0959 0.171591,0 0.312208,0.0436 0.420899,0.13038 0.109114,0.0868 0.179211,0.2097 0.210114,0.36961 l -0.26042,0.0401 c -0.02487,-0.10609 -0.06847,-0.18578 -0.13148,-0.23958 -0.0629,-0.0533 -0.139101,-0.0802 -0.228424,-0.0802 -0.134973,0 -0.244687,0.0482 -0.329001,0.14521 -0.08417,0.0964 -0.1264,0.2492 -0.1264,0.45839 0,0.2122 0.0406,0.36651 0.122414,0.46303 0.08121,0.0959 0.18729,0.14407 0.318311,0.14407 0.105093,0 0.192405,-0.0325 0.26289,-0.0969 0.07059,-0.0645 0.115288,-0.16352 0.134091,-0.29754"
         style="fill:#000000;fill-opacity:1;fill-rule:evenodd;stroke:none;stroke-width:0.352778"
         id="path3492" />
      <path
         d="m 65.893104,118.27059 c 0,-0.29242 0.08121,-0.5092 0.244228,-0.64981 0.135502,-0.11681 0.30099,-0.17558 0.496499,-0.17558 0.217276,0 0.3949,0.071 0.532483,0.21368 0.138113,0.14209 0.206622,0.33859 0.206622,0.58942 0,0.20348 -0.03041,0.36339 -0.0914,0.47967 -0.06092,0.1167 -0.149718,0.20711 -0.265994,0.2716 -0.116734,0.0645 -0.243628,0.0964 -0.381706,0.0964 -0.220803,0 -0.39952,-0.0705 -0.536116,-0.21269 -0.136595,-0.14161 -0.204611,-0.34573 -0.204611,-0.61271 z m 0.275202,0 c 0,0.2025 0.0441,0.3538 0.132503,0.45427 0.0883,0.10111 0.199496,0.15131 0.333022,0.15131 0.132998,0 0.243699,-0.0507 0.332,-0.1518 0.08781,-0.101 0.131974,-0.25531 0.131974,-0.46239 0,-0.19551 -0.04417,-0.34371 -0.132997,-0.44421 -0.0889,-0.10047 -0.199002,-0.15078 -0.330977,-0.15078 -0.133526,0 -0.244721,0.0503 -0.333022,0.15028 -0.08841,0.10001 -0.132503,0.25132 -0.132503,0.45332"
         style="fill:#000000;fill-opacity:1;fill-rule:evenodd;stroke:none;stroke-width:0.352778"
         id="path3494" />
      <path
         d="m 67.68712,119.0605 v -1.57932 h 0.239113 v 0.2213 c 0.04978,-0.0771 0.115781,-0.1396 0.197979,-0.1863 0.0823,-0.0472 0.176212,-0.071 0.281305,-0.071 0.116699,0 0.212689,0.0243 0.287302,0.0731 0.07511,0.0487 0.127917,0.11621 0.158397,0.20349 0.125413,-0.1843 0.287796,-0.27658 0.487786,-0.27658 0.156915,0 0.277213,0.0436 0.361527,0.13038 0.08421,0.0868 0.1264,0.22031 0.1264,0.40058 v 1.08434 h -0.265995 v -0.99501 c 0,-0.10711 -0.0087,-0.18429 -0.02593,-0.2315 -0.01778,-0.0467 -0.04928,-0.0848 -0.0944,-0.1137 -0.04568,-0.0284 -0.09948,-0.0431 -0.160973,-0.0431 -0.111125,0 -0.203023,0.037 -0.276613,0.11109 -0.0731,0.0736 -0.110207,0.19192 -0.110207,0.3544 v 0.91783 h -0.267476 v -1.02602 c 0,-0.11931 -0.02191,-0.2086 -0.06551,-0.26801 -0.04371,-0.0594 -0.114688,-0.0893 -0.214207,-0.0893 -0.07521,0 -0.144709,0.0198 -0.208703,0.0599 -0.06399,0.0396 -0.110702,0.0974 -0.139101,0.1736 -0.02889,0.0766 -0.04311,0.18679 -0.04311,0.33048 v 0.81933"
         style="fill:#000000;fill-opacity:1;fill-rule:evenodd;stroke:none;stroke-width:0.352778"
         id="path3496" />
      <path
         d="m 70.471031,119.0605 h -0.248215 v -2.18042 h 0.267511 v 0.77781 c 0.113207,-0.14171 0.257387,-0.21269 0.432577,-0.21269 0.0974,0 0.1893,0.0198 0.276119,0.0588 0.08678,0.0391 0.157903,0.0945 0.214206,0.16499 0.05588,0.0711 0.100083,0.15643 0.131481,0.25693 0.032,0.1 0.0477,0.20708 0.0477,0.32078 0,0.27111 -0.06699,0.48031 -0.200977,0.62802 -0.133491,0.14771 -0.294393,0.2213 -0.481718,0.2213 -0.186408,0 -0.332599,-0.0776 -0.438679,-0.23351 z m -0.003,-0.80162 c 0,0.18941 0.02589,0.3259 0.07719,0.41021 0.08421,0.13808 0.198508,0.20708 0.342088,0.20708 0.117299,0 0.218299,-0.0507 0.303601,-0.15279 0.0853,-0.10149 0.127917,-0.2528 0.127917,-0.45431 0,-0.20609 -0.0411,-0.35838 -0.122802,-0.45638 -0.08181,-0.098 -0.180798,-0.14722 -0.29651,-0.14722 -0.117298,0 -0.218298,0.0507 -0.3036,0.1523 -0.0853,0.10153 -0.127882,0.2487 -0.127882,0.44111"
         style="fill:#000000;fill-opacity:1;fill-rule:evenodd;stroke:none;stroke-width:0.352778"
         id="path3498" />
      <path
         d="m 71.919324,117.18827 v -0.30819 h 0.268111 v 0.30819 z m 0,1.87223 v -1.57932 h 0.268111 v 1.57932"
         style="fill:#000000;fill-opacity:1;fill-rule:evenodd;stroke:none;stroke-width:0.352778"
         id="path3500" />
      <path
         d="m 72.595035,119.0605 v -1.57932 h 0.2407 v 0.2244 c 0.11617,-0.1736 0.283669,-0.26038 0.502497,-0.26038 0.0955,0 0.182774,0.0172 0.262502,0.0512 0.08019,0.0346 0.139594,0.0792 0.179176,0.13507 0.04011,0.0553 0.06752,0.12132 0.08371,0.19742 0.0097,0.0498 0.01478,0.13659 0.01478,0.26049 v 0.97113 h -0.268076 v -0.96101 c 0,-0.10862 -0.01012,-0.19042 -0.0309,-0.24472 -0.02092,-0.0538 -0.05789,-0.0969 -0.110702,-0.1289 -0.0533,-0.0325 -0.115217,-0.0487 -0.186795,-0.0487 -0.114195,0 -0.212196,0.0365 -0.295522,0.10859 -0.08269,0.0726 -0.12379,0.20973 -0.12379,0.41222 v 0.86251"
         style="fill:#000000;fill-opacity:1;fill-rule:evenodd;stroke:none;stroke-width:0.352778"
         id="path3502" />
      <path
         d="m 75.319608,118.86559 c -0.09948,0.0842 -0.19498,0.14358 -0.286385,0.17868 -0.09179,0.0345 -0.190288,0.0517 -0.295416,0.0517 -0.173602,0 -0.306599,-0.0421 -0.399979,-0.1269 -0.09292,-0.0848 -0.139594,-0.19343 -0.139594,-0.32491 0,-0.0776 0.01718,-0.1482 0.05277,-0.21219 0.035,-0.0639 0.08121,-0.11522 0.138007,-0.15381 0.0574,-0.0386 0.121391,-0.068 0.192899,-0.0878 0.05232,-0.0137 0.131515,-0.0274 0.237595,-0.0401 0.216324,-0.0259 0.375709,-0.0564 0.477697,-0.0924 0.001,-0.0366 0.0015,-0.0599 0.0015,-0.0696 0,-0.10908 -0.02529,-0.18626 -0.07609,-0.2304 -0.06802,-0.0609 -0.17011,-0.0909 -0.304624,-0.0909 -0.125871,0 -0.218793,0.0218 -0.279188,0.066 -0.0599,0.0442 -0.104105,0.12228 -0.132998,0.2345 l -0.261408,-0.036 c 0.02381,-0.11169 0.0629,-0.2026 0.117193,-0.27108 0.05433,-0.069 0.133526,-0.12231 0.236608,-0.15942 0.103011,-0.0371 0.22232,-0.0558 0.358422,-0.0558 0.134973,0 0.244193,0.0162 0.328401,0.0477 0.08428,0.032 0.146191,0.0716 0.186267,0.11981 0.03962,0.0482 0.06713,0.10858 0.08333,0.18217 0.0086,0.0457 0.01319,0.12802 0.01319,0.2467 v 0.3569 c 0,0.24931 0.0056,0.40672 0.01729,0.47213 0.01111,0.066 0.03401,0.12947 0.06752,0.1899 h -0.279717 c -0.02748,-0.0553 -0.04568,-0.12034 -0.0533,-0.19491 z m -0.0224,-0.598 c -0.0974,0.0401 -0.243099,0.0736 -0.437092,0.1015 -0.110102,0.0157 -0.188313,0.0335 -0.233503,0.0533 -0.04568,0.0198 -0.08121,0.0487 -0.105587,0.0873 -0.0248,0.0381 -0.0375,0.0802 -0.0375,0.12689 0,0.0716 0.02741,0.13103 0.08121,0.17872 0.0538,0.0472 0.132998,0.0711 0.237102,0.0711 0.102976,0 0.194875,-0.0224 0.275096,-0.0675 0.08019,-0.0452 0.139595,-0.10721 0.177201,-0.18532 0.02889,-0.0604 0.04307,-0.14978 0.04307,-0.26758"
         style="fill:#000000;fill-opacity:1;fill-rule:evenodd;stroke:none;stroke-width:0.352778"
         id="path3504" />
      <path
         d="m 77.013612,118.48176 0.26289,0.0345 c -0.0284,0.18122 -0.101988,0.32342 -0.220769,0.4259 -0.118321,0.10263 -0.264018,0.15382 -0.436597,0.15382 -0.215724,0 -0.389926,-0.0705 -0.520806,-0.21171 -0.131516,-0.14111 -0.19752,-0.3436 -0.19752,-0.60759 0,-0.1706 0.0284,-0.31982 0.08481,-0.44781 0.0568,-0.12788 0.142593,-0.2238 0.25841,-0.2878 0.115182,-0.064 0.241088,-0.0959 0.37659,-0.0959 0.171591,0 0.312209,0.0436 0.420899,0.13038 0.109115,0.0868 0.179212,0.2097 0.210115,0.36961 l -0.260421,0.0401 c -0.02491,-0.10609 -0.06847,-0.18578 -0.13148,-0.23958 -0.0629,-0.0533 -0.1391,-0.0802 -0.228423,-0.0802 -0.134973,0 -0.244687,0.0482 -0.329001,0.14521 -0.08417,0.0964 -0.1264,0.2492 -0.1264,0.45839 0,0.2122 0.0406,0.36651 0.122414,0.46303 0.08121,0.0959 0.187289,0.14407 0.318311,0.14407 0.105092,0 0.192405,-0.0325 0.26289,-0.0969 0.07059,-0.0645 0.115288,-0.16352 0.134091,-0.29754"
         style="fill:#000000;fill-opacity:1;fill-rule:evenodd;stroke:none;stroke-width:0.352778"
         id="path3506" />
      <path
         d="m 77.507007,117.18827 v -0.30819 h 0.268111 v 0.30819 z m 0,1.87223 v -1.57932 h 0.268111 v 1.57932"
         style="fill:#000000;fill-opacity:1;fill-rule:evenodd;stroke:none;stroke-width:0.352778"
         id="path3508" />
      <path
         d="m 78.082705,118.27059 c 0,-0.29242 0.08121,-0.5092 0.244228,-0.64981 0.135502,-0.11681 0.30099,-0.17558 0.496499,-0.17558 0.217276,0 0.3949,0.071 0.532483,0.21368 0.138113,0.14209 0.206587,0.33859 0.206587,0.58942 0,0.20348 -0.03037,0.36339 -0.09137,0.47967 -0.06092,0.1167 -0.149719,0.20711 -0.266029,0.2716 -0.116699,0.0645 -0.243593,0.0964 -0.381671,0.0964 -0.220803,0 -0.399521,-0.0705 -0.536116,-0.21269 -0.136596,-0.14161 -0.204611,-0.34573 -0.204611,-0.61271 z m 0.275202,0 c 0,0.2025 0.0441,0.3538 0.132503,0.45427 0.0883,0.10111 0.199496,0.15131 0.333022,0.15131 0.132998,0 0.243699,-0.0507 0.331999,-0.1518 0.08777,-0.101 0.131975,-0.25531 0.131975,-0.46239 0,-0.19551 -0.0442,-0.34371 -0.132998,-0.44421 -0.0889,-0.10047 -0.199002,-0.15078 -0.330976,-0.15078 -0.133526,0 -0.244722,0.0503 -0.333022,0.15028 -0.08841,0.10001 -0.132503,0.25132 -0.132503,0.45332"
         style="fill:#000000;fill-opacity:1;fill-rule:evenodd;stroke:none;stroke-width:0.352778"
         id="path3510" />
      <path
         d="m 79.876721,119.0605 v -1.57932 h 0.2407 v 0.2244 c 0.116205,-0.1736 0.283704,-0.26038 0.502497,-0.26038 0.0955,0 0.182809,0.0172 0.262502,0.0512 0.08019,0.0346 0.139594,0.0792 0.179211,0.13507 0.04007,0.0553 0.06749,0.12132 0.08368,0.19742 0.0097,0.0498 0.01482,0.13659 0.01482,0.26049 v 0.97113 H 80.89202 v -0.96101 c 0,-0.10862 -0.01009,-0.19042 -0.0309,-0.24472 -0.02088,-0.0538 -0.05789,-0.0969 -0.110702,-0.1289 -0.0533,-0.0325 -0.115182,-0.0487 -0.186796,-0.0487 -0.114194,0 -0.212195,0.0365 -0.295486,0.10859 -0.08269,0.0726 -0.123825,0.20973 -0.123825,0.41222 v 0.86251"
         style="fill:#000000;fill-opacity:1;fill-rule:evenodd;stroke:none;stroke-width:0.352778"
         id="path3512" />
      <path
         d="m 82.601329,118.86559 c -0.09952,0.0842 -0.195015,0.14358 -0.28642,0.17868 -0.09179,0.0345 -0.190288,0.0517 -0.295381,0.0517 -0.173602,0 -0.306599,-0.0421 -0.400014,-0.1269 -0.09289,-0.0848 -0.139595,-0.19343 -0.139595,-0.32491 0,-0.0776 0.01722,-0.1482 0.05281,-0.21219 0.035,-0.0639 0.08117,-0.11522 0.137972,-0.15381 0.05743,-0.0386 0.121426,-0.068 0.192934,-0.0878 0.05228,-0.0137 0.13148,-0.0274 0.237596,-0.0401 0.216288,-0.0259 0.375673,-0.0564 0.477696,-0.0924 0.0011,-0.0366 0.0014,-0.0599 0.0014,-0.0696 0,-0.10908 -0.02529,-0.18626 -0.07609,-0.2304 -0.06798,-0.0609 -0.170109,-0.0909 -0.304588,-0.0909 -0.125907,0 -0.218793,0.0218 -0.279224,0.066 -0.0599,0.0442 -0.104069,0.12228 -0.132997,0.2345 l -0.261373,-0.036 c 0.02378,-0.11169 0.0629,-0.2026 0.117193,-0.27108 0.05429,-0.069 0.133491,-0.12231 0.236608,-0.15942 0.102975,-0.0371 0.222285,-0.0558 0.358387,-0.0558 0.135008,0 0.244192,0.0162 0.3284,0.0477 0.08431,0.032 0.146191,0.0716 0.186302,0.11981 0.03958,0.0482 0.0671,0.10858 0.08329,0.18217 0.0086,0.0457 0.01319,0.12802 0.01319,0.2467 v 0.3569 c 0,0.24931 0.0056,0.40672 0.01732,0.47213 0.01108,0.066 0.03397,0.12947 0.06749,0.1899 h -0.279682 c -0.02752,-0.0553 -0.04572,-0.12034 -0.0533,-0.19491 z m -0.0224,-0.598 c -0.0974,0.0401 -0.243099,0.0736 -0.437092,0.1015 -0.110102,0.0157 -0.188312,0.0335 -0.233503,0.0533 -0.04572,0.0198 -0.08121,0.0487 -0.105622,0.0873 -0.0248,0.0381 -0.0375,0.0802 -0.0375,0.12689 0,0.0716 0.02741,0.13103 0.08121,0.17872 0.0538,0.0472 0.132997,0.0711 0.237102,0.0711 0.103011,0 0.19491,-0.0224 0.275096,-0.0675 0.08019,-0.0452 0.139594,-0.10721 0.177201,-0.18532 0.02889,-0.0604 0.04311,-0.14978 0.04311,-0.26758"
         style="fill:#000000;fill-opacity:1;fill-rule:evenodd;stroke:none;stroke-width:0.352778"
         id="path3514" />
      <path
         d="m 83.258625,119.0605 v -2.18042 h 0.267582 v 2.18042"
         style="fill:#000000;fill-opacity:1;fill-rule:evenodd;stroke:none;stroke-width:0.352778"
         id="path3516" />
    </g>
  </g>
  <g
     inkscape:groupmode="layer"
     id="layer2"
     inkscape:label="Layer 2"
     style="display:inline">
    <g
       id="g38927"
       transform="translate(-44.393504,-111.55686)">
      <path
         d="m 61.383122,152.84228 h 25.284606 v 13.88661 H 61.383122 Z"
         style="fill:#e9e9e9;fill-opacity:1;fill-rule:evenodd;stroke:#000000;stroke-width:0.352813;stroke-linecap:butt;stroke-linejoin:miter;stroke-miterlimit:10;stroke-dasharray:none;stroke-opacity:1"
         id="path3458" />
      <path
         d="m 68.367417,158.8581 v -1.57932 h 0.239112 v 0.2213 c 0.04978,-0.0771 0.115782,-0.13959 0.197979,-0.1863 0.0823,-0.0472 0.176213,-0.071 0.281305,-0.071 0.116699,0 0.21269,0.0243 0.287303,0.0731 0.07511,0.0487 0.127917,0.11617 0.158397,0.20349 0.125412,-0.18429 0.287796,-0.27662 0.487821,-0.27662 0.15688,0 0.277177,0.0436 0.361491,0.13043 0.08421,0.0868 0.126401,0.22031 0.126401,0.40057 v 1.08434 h -0.265995 v -0.99501 c 0,-0.10711 -0.0087,-0.18429 -0.02593,-0.23149 -0.01778,-0.0467 -0.04928,-0.0848 -0.09437,-0.11371 -0.04572,-0.0284 -0.09952,-0.0431 -0.161008,-0.0431 -0.11109,0 -0.203024,0.037 -0.276613,0.11109 -0.0731,0.0736 -0.110208,0.19191 -0.110208,0.3544 v 0.91782 h -0.267476 v -1.02602 c 0,-0.11931 -0.02191,-0.2086 -0.06551,-0.26801 -0.04371,-0.0594 -0.114688,-0.0893 -0.214206,-0.0893 -0.07518,0 -0.14471,0.0198 -0.208704,0.0599 -0.06399,0.0396 -0.110701,0.0974 -0.1391,0.1736 -0.02889,0.0766 -0.04307,0.18679 -0.04307,0.33048 v 0.81933"
         style="fill:#000000;fill-opacity:1;fill-rule:evenodd;stroke:none;stroke-width:0.352778"
         id="path3460" />
      <path
         d="m 71.985435,158.34939 0.276684,0.034 c -0.04371,0.16204 -0.12439,0.28741 -0.242182,0.37674 -0.118216,0.0889 -0.269029,0.13349 -0.452332,0.13349 -0.230999,0 -0.414196,-0.071 -0.549275,-0.21322 -0.135502,-0.1421 -0.203024,-0.3416 -0.203024,-0.59849 0,-0.26599 0.06851,-0.47209 0.205105,-0.61881 0.137019,-0.14668 0.31422,-0.22031 0.532518,-0.22031 0.211173,0 0.383787,0.072 0.517278,0.21573 0.134021,0.14368 0.201013,0.34618 0.201013,0.6067 0,0.0162 -4.94e-4,0.0401 -0.0015,0.0715 h -1.177678 c 0.0096,0.1736 0.05881,0.3066 0.147179,0.39849 0.0883,0.0924 0.198014,0.13861 0.329918,0.13861 0.098,0 0.181786,-0.0259 0.251283,-0.0776 0.0696,-0.0513 0.124425,-0.13364 0.16503,-0.24681 z m -0.878699,-0.433 h 0.881768 c -0.01168,-0.1325 -0.04569,-0.23251 -0.101071,-0.29852 -0.08523,-0.10297 -0.195897,-0.1548 -0.331505,-0.1548 -0.122802,0 -0.226413,0.0411 -0.310092,0.1233 -0.08382,0.0823 -0.130034,0.1924 -0.1391,0.33002"
         style="fill:#000000;fill-opacity:1;fill-rule:evenodd;stroke:none;stroke-width:0.352778"
         id="path3462" />
      <path
         d="m 72.598633,158.8581 v -1.57932 h 0.239078 v 0.2213 c 0.04981,-0.0771 0.115817,-0.13959 0.198014,-0.1863 0.0823,-0.0472 0.176177,-0.071 0.281305,-0.071 0.116699,0 0.21269,0.0243 0.287302,0.0731 0.07507,0.0487 0.127882,0.11617 0.158397,0.20349 0.125378,-0.18429 0.287796,-0.27662 0.487786,-0.27662 0.156916,0 0.277213,0.0436 0.361492,0.13043 0.08421,0.0868 0.1264,0.22031 0.1264,0.40057 v 1.08434 h -0.265995 v -0.99501 c 0,-0.10711 -0.0087,-0.18429 -0.02589,-0.23149 -0.01781,-0.0467 -0.04928,-0.0848 -0.0944,-0.11371 -0.04568,-0.0284 -0.09948,-0.0431 -0.161008,-0.0431 -0.111089,0 -0.202988,0.037 -0.276577,0.11109 -0.0731,0.0736 -0.110208,0.19191 -0.110208,0.3544 v 0.91782 H 73.53681 v -1.02602 c 0,-0.11931 -0.02191,-0.2086 -0.06548,-0.26801 -0.04371,-0.0594 -0.114723,-0.0893 -0.214207,-0.0893 -0.07521,0 -0.144709,0.0198 -0.208703,0.0599 -0.06399,0.0396 -0.110702,0.0974 -0.1391,0.1736 -0.02889,0.0766 -0.04311,0.18679 -0.04311,0.33048 v 0.81933"
         style="fill:#000000;fill-opacity:1;fill-rule:evenodd;stroke:none;stroke-width:0.352778"
         id="path3464" />
      <path
         d="m 75.035834,158.06819 c 0,-0.29241 0.08117,-0.5092 0.244193,-0.64981 0.135501,-0.11681 0.30099,-0.17562 0.496499,-0.17562 0.217276,0 0.394899,0.071 0.532483,0.21372 0.138112,0.1421 0.206622,0.33859 0.206622,0.58942 0,0.20348 -0.03041,0.36339 -0.0914,0.47967 -0.06089,0.1167 -0.149719,0.20712 -0.265994,0.2716 -0.116699,0.0645 -0.243629,0.0964 -0.381706,0.0964 -0.220804,0 -0.399521,-0.0705 -0.536116,-0.21269 -0.136596,-0.14161 -0.204576,-0.34572 -0.204576,-0.61271 z m 0.275202,0 c 0,0.2025 0.0441,0.3538 0.132468,0.45427 0.0883,0.10111 0.199531,0.15131 0.333022,0.15131 0.132997,0 0.243699,-0.0507 0.331999,-0.1518 0.08781,-0.101 0.13201,-0.2553 0.13201,-0.46238 0,-0.19551 -0.0442,-0.34372 -0.133033,-0.44422 -0.0889,-0.10047 -0.198967,-0.15078 -0.330976,-0.15078 -0.133491,0 -0.244722,0.0503 -0.333022,0.15028 -0.08837,0.10002 -0.132468,0.25132 -0.132468,0.45332"
         style="fill:#000000;fill-opacity:1;fill-rule:evenodd;stroke:none;stroke-width:0.352778"
         id="path3466" />
      <path
         d="m 76.826816,158.8581 v -1.57932 h 0.240594 v 0.23911 c 0.06142,-0.11172 0.118322,-0.1858 0.170604,-0.22129 0.05182,-0.0356 0.109114,-0.0538 0.171591,-0.0538 0.09031,0 0.181716,0.0289 0.275131,0.0863 l -0.09243,0.24871 c -0.06498,-0.0391 -0.130386,-0.0584 -0.195897,-0.0584 -0.05888,0 -0.111196,0.0178 -0.157903,0.0528 -0.04667,0.0356 -0.07969,0.0843 -0.09948,0.14668 -0.03002,0.095 -0.0447,0.199 -0.0447,0.31221 v 0.82702"
         style="fill:#000000;fill-opacity:1;fill-rule:evenodd;stroke:none;stroke-width:0.352778"
         id="path3468" />
      <path
         d="m 77.845109,156.98587 v -0.30819 h 0.268111 v 0.30819 z m 0,1.87223 v -1.57932 h 0.268111 v 1.57932"
         style="fill:#000000;fill-opacity:1;fill-rule:evenodd;stroke:none;stroke-width:0.352778"
         id="path3470" />
      <path
         d="m 79.551424,158.66319 c -0.09952,0.0842 -0.195015,0.14358 -0.28642,0.17868 -0.09179,0.0345 -0.190288,0.0517 -0.295381,0.0517 -0.173602,0 -0.306599,-0.0421 -0.400014,-0.1269 -0.09289,-0.0848 -0.139594,-0.19343 -0.139594,-0.32491 0,-0.0776 0.01722,-0.1482 0.05281,-0.21219 0.035,-0.0639 0.08121,-0.11522 0.138007,-0.15381 0.0574,-0.0386 0.121391,-0.068 0.192899,-0.0878 0.05228,-0.0137 0.13148,-0.0274 0.237596,-0.0401 0.216288,-0.0259 0.375708,-0.0564 0.477696,-0.0924 0.0011,-0.0366 0.0014,-0.0599 0.0014,-0.0696 0,-0.10907 -0.02529,-0.1863 -0.07609,-0.23039 -0.06798,-0.0609 -0.170074,-0.0909 -0.304588,-0.0909 -0.125907,0 -0.218793,0.0218 -0.279189,0.066 -0.0599,0.0442 -0.104104,0.12228 -0.132997,0.2345 l -0.261408,-0.036 c 0.02378,-0.11169 0.0629,-0.2026 0.117193,-0.27108 0.05429,-0.069 0.133491,-0.1223 0.236608,-0.15942 0.102976,-0.0371 0.222285,-0.0558 0.358387,-0.0558 0.135008,0 0.244192,0.0162 0.3284,0.0477 0.08431,0.032 0.146192,0.0716 0.186302,0.11981 0.03962,0.0482 0.0671,0.10858 0.08329,0.18217 0.0086,0.0457 0.01319,0.12803 0.01319,0.2467 v 0.3569 c 0,0.24931 0.0056,0.40672 0.01732,0.47213 0.01108,0.066 0.03401,0.12947 0.06749,0.1899 h -0.279682 c -0.02752,-0.0553 -0.04572,-0.12033 -0.0533,-0.19491 z m -0.0224,-0.598 c -0.0974,0.0401 -0.243099,0.0736 -0.437092,0.1015 -0.110101,0.0157 -0.188312,0.0335 -0.233503,0.0533 -0.04572,0.0198 -0.08121,0.0487 -0.105622,0.0873 -0.0248,0.0381 -0.0375,0.0802 -0.0375,0.12689 0,0.0716 0.02741,0.13103 0.08121,0.17872 0.0538,0.0472 0.132998,0.0711 0.237102,0.0711 0.103011,0 0.19491,-0.0224 0.275096,-0.0675 0.08022,-0.0452 0.139595,-0.10721 0.177201,-0.18531 0.02889,-0.0604 0.04311,-0.14979 0.04311,-0.26759"
         style="fill:#000000;fill-opacity:1;fill-rule:evenodd;stroke:none;stroke-width:0.352778"
         id="path3472" />
      <path
         d="m 75.079825,163.19649 c 0.185597,0.12848 0.357682,0.22158 0.514385,0.28088 l -0.117792,0.2794 c -0.217382,-0.0784 -0.434693,-0.20249 -0.651298,-0.3719 -0.224297,0.12492 -0.472017,0.18771 -0.743585,0.18771 -0.274532,0 -0.522817,-0.0663 -0.746513,-0.19829 -0.222885,-0.13261 -0.395112,-0.31821 -0.515691,-0.55803 -0.120721,-0.23988 -0.180728,-0.51018 -0.180728,-0.80997 0,-0.29919 0.06071,-0.5715 0.182104,-0.817 0.12132,-0.2449 0.293511,-0.4318 0.517807,-0.56021 0.223696,-0.12781 0.474204,-0.19198 0.750711,-0.19198 0.280106,0 0.531989,0.0664 0.757097,0.19967 0.224401,0.13271 0.395781,0.31891 0.513609,0.55813 0.117898,0.23918 0.176389,0.50867 0.176389,0.80927 0,0.24903 -0.0374,0.47343 -0.113595,0.67239 -0.07549,0.19894 -0.189794,0.37254 -0.3429,0.51993 z m -0.882615,-0.51291 c 0.231423,0.0649 0.421923,0.16161 0.572206,0.28999 0.23562,-0.2152 0.353519,-0.53831 0.353519,-0.9694 0,-0.2456 -0.0417,-0.46009 -0.124919,-0.6435 -0.08329,-0.18271 -0.205281,-0.3253 -0.365513,-0.4269 -0.160796,-0.10079 -0.340783,-0.15159 -0.541091,-0.15159 -0.298485,0 -0.546805,0.10231 -0.74369,0.30688 -0.197485,0.20462 -0.295593,0.51012 -0.295593,0.91723 0,0.3937 0.0974,0.69638 0.2921,0.90731 0.195404,0.21029 0.4445,0.31608 0.747183,0.31608 0.143898,0 0.278695,-0.0268 0.405695,-0.0804 -0.125589,-0.0819 -0.258304,-0.1397 -0.397298,-0.17361"
         style="fill:#000000;fill-opacity:1;fill-rule:evenodd;stroke:none;stroke-width:0.352778"
         id="path3534" />
    </g>
  </g>
  <g
     inkscape:groupmode="layer"
     id="layer3"
     inkscape:label="Layer 3"
     style="display:inline">
    <path
       d="m 67.140808,126.96148 -8.875077,-6.04989 v 3.24058 H 44.56991 v 5.6188 h 13.695821 v 3.24051 z"
       style="fill:#ffffff;fill-opacity:1;fill-rule:evenodd;stroke:#000000;stroke-width:0.352813;stroke-linecap:butt;stroke-linejoin:miter;stroke-miterlimit:10;stroke-dasharray:none;stroke-opacity:1"
       id="path3476"
       transform="translate(-44.393504,-111.55686)" />
    <path
       d="m 47.119506,128.54627 v -3.03029 h 2.19082 v 0.35771 h -1.789994 v 0.92777 h 1.6764 v 0.3556 h -1.6764 v 1.03153 h 1.860479 v 0.35768"
       style="fill:#000000;fill-opacity:1;fill-rule:evenodd;stroke:none;stroke-width:0.352778"
       id="path3536"
       transform="translate(-44.393504,-111.55686)" />
  </g>
  <g
     inkscape:groupmode="layer"
     id="layer4"
     inkscape:label="Layer 4"
     style="display:inline">
    <path
       d="m 104.38493,127.28657 -8.875109,-6.04989 v 3.24061 H 81.814035 v 5.6188 h 13.695786 v 3.24048 z"
       style="fill:#ffffff;fill-opacity:1;fill-rule:evenodd;stroke:#000000;stroke-width:0.352813;stroke-linecap:butt;stroke-linejoin:miter;stroke-miterlimit:10;stroke-dasharray:none;stroke-opacity:1"
       id="path3478"
       transform="translate(-44.393504,-111.55686)" />
    <path
       d="m 96.988912,127.82808 0.378213,-0.0331 c 0.0176,0.1517 0.0592,0.27587 0.124884,0.37321 0.06562,0.0974 0.167216,0.17568 0.3048,0.23569 0.137512,0.0599 0.292805,0.0896 0.464925,0.0896 0.153071,0 0.287902,-0.0226 0.404989,-0.0678 0.117087,-0.0458 0.204611,-0.10792 0.261797,-0.1869 0.05711,-0.0798 0.08601,-0.16581 0.08601,-0.25972 0,-0.0952 -0.02752,-0.1778 -0.08322,-0.24899 -0.0551,-0.0713 -0.146086,-0.1306 -0.27238,-0.1785 -0.08181,-0.0318 -0.26102,-0.0812 -0.539715,-0.14821 -0.277989,-0.067 -0.473392,-0.12978 -0.584905,-0.18909 -0.144604,-0.0755 -0.252589,-0.17 -0.323886,-0.28218 -0.07048,-0.11222 -0.105798,-0.23781 -0.105798,-0.37751 0,-0.1524 0.043,-0.29559 0.129787,-0.4282 0.08682,-0.13342 0.213819,-0.23432 0.380295,-0.30343 0.167216,-0.0685 0.352107,-0.10297 0.556013,-0.10297 0.225107,0 0.422592,0.0359 0.594818,0.10858 0.17138,0.072 0.303389,0.17851 0.395782,0.31891 0.09169,0.14041 0.141816,0.2999 0.148907,0.4777 l -0.384598,0.0289 c -0.0211,-0.1912 -0.09102,-0.33648 -0.21022,-0.43388 -0.119275,-0.0981 -0.294887,-0.14682 -0.527791,-0.14682 -0.242711,0 -0.4191,0.0445 -0.530507,0.13342 -0.110773,0.0889 -0.166582,0.19611 -0.166582,0.32099 0,0.1094 0.03958,0.199 0.117898,0.26882 0.07761,0.0706 0.278695,0.14248 0.604591,0.2159 0.326002,0.0741 0.549698,0.13828 0.671018,0.19328 0.176389,0.0819 0.306882,0.18489 0.390878,0.30911 0.08389,0.12488 0.125624,0.26878 0.125624,0.43109 0,0.1615 -0.04593,0.3132 -0.138324,0.45579 -0.09239,0.14252 -0.225107,0.25322 -0.397898,0.33302 -0.172896,0.079 -0.367594,0.1185 -0.583494,0.1185 -0.274497,0 -0.504508,-0.0395 -0.689399,-0.11991 -0.18549,-0.0798 -0.330905,-0.19971 -0.436703,-0.36061 -0.105093,-0.16009 -0.160902,-0.34219 -0.165806,-0.54469"
       style="fill:#000000;fill-opacity:1;fill-rule:evenodd;stroke:none;stroke-width:0.352778"
       id="path3538"
       transform="translate(-44.393504,-111.55686)" />
  </g>
  <g
     inkscape:groupmode="layer"
     id="layer5"
     inkscape:label="Layer 5"
     style="display:inline">
    <path
       d="m 67.497326,132.42068 -6.049892,8.87512 h 3.240581 v 13.69578 h 5.618797 V 141.2958 h 3.240511 z"
       style="fill:#ffffff;fill-opacity:1;fill-rule:evenodd;stroke:#000000;stroke-width:0.352813;stroke-linecap:butt;stroke-linejoin:miter;stroke-miterlimit:10;stroke-dasharray:none;stroke-opacity:1"
       id="path3518"
       transform="translate(-44.393504,-111.55686)" />
    <path
       d="m 68.203022,146.9364 c 0.128482,-0.18564 0.22158,-0.35772 0.280882,-0.51442 l 0.2794,0.11779 c -0.07839,0.21742 -0.202495,0.43473 -0.371898,0.6513 0.124918,0.22433 0.187713,0.47201 0.187713,0.74362 0,0.27449 -0.06629,0.52278 -0.198297,0.74647 -0.132609,0.22292 -0.318205,0.39512 -0.557988,0.51573 -0.239925,0.12069 -0.510223,0.18069 -0.810013,0.18069 -0.299191,0 -0.5715,-0.0607 -0.816998,-0.1821 -0.244899,-0.12129 -0.4318,-0.29351 -0.560212,-0.51781 -0.127776,-0.22369 -0.191981,-0.4742 -0.191981,-0.75067 0,-0.28011 0.06639,-0.53203 0.199672,-0.75714 0.132715,-0.22436 0.318911,-0.39578 0.55813,-0.51357 0.239183,-0.1179 0.50867,-0.17642 0.809272,-0.17642 0.249026,0 0.473428,0.0374 0.67243,0.11363 0.198896,0.0755 0.372498,0.18979 0.519888,0.3429 z m -0.512903,0.88258 c 0.06491,-0.23139 0.161607,-0.42189 0.289983,-0.57221 -0.215194,-0.23558 -0.538268,-0.35348 -0.969398,-0.35348 -0.245569,0 -0.460093,0.0417 -0.643502,0.12488 -0.182668,0.0833 -0.325296,0.20532 -0.426896,0.36551 -0.100789,0.1608 -0.151589,0.34079 -0.151589,0.54109 0,0.29852 0.102306,0.54681 0.306917,0.74369 0.204576,0.19752 0.510081,0.29563 0.917187,0.29563 0.3937,0 0.696383,-0.0974 0.907309,-0.2921 0.210291,-0.1954 0.316089,-0.4445 0.316089,-0.74722 0,-0.14389 -0.02681,-0.27869 -0.0804,-0.40569 -0.08192,0.12559 -0.1397,0.2583 -0.173602,0.3973"
       style="fill:#000000;fill-opacity:1;fill-rule:evenodd;stroke:none;stroke-width:0.352778"
       id="path3522"
       transform="translate(-44.393504,-111.55686)" />
    <path
       d="m 69.511828,146.05717 h -1.646202 v -0.25079 h 0.233891 c -0.18101,-0.12122 -0.271498,-0.29581 -0.271498,-0.52391 0,-0.0994 0.01799,-0.1905 0.05341,-0.27348 0.03598,-0.0836 0.08259,-0.14562 0.140794,-0.18683 0.05768,-0.0418 0.126506,-0.0704 0.20581,-0.0873 0.05189,-0.0101 0.142381,-0.0154 0.271498,-0.0154 h 1.012296 v 0.2794 h -1.001713 c -0.113312,0 -0.198508,0.0106 -0.255093,0.0323 -0.05609,0.0217 -0.101001,0.0603 -0.134409,0.1154 -0.0338,0.0555 -0.0508,0.12008 -0.0508,0.1947 0,0.11899 0.0381,0.22119 0.113313,0.30801 0.0756,0.0862 0.21851,0.12908 0.429577,0.12908 h 0.899125"
       style="fill:#000000;fill-opacity:1;fill-rule:evenodd;stroke:none;stroke-width:0.352778"
       id="path3524"
       transform="translate(-44.393504,-111.55686)" />
  </g>
  <g
     inkscape:groupmode="layer"
     id="layer6"
     inkscape:label="Layer 6"
     style="display:inline">
    <path
       d="m 80.298114,154.99158 6.049892,-8.87511 h -3.240582 v -13.69579 h -5.618797 v 13.69579 h -3.240511 z"
       style="fill:#ffffff;fill-opacity:1;fill-rule:evenodd;stroke:#000000;stroke-width:0.352813;stroke-linecap:butt;stroke-linejoin:miter;stroke-miterlimit:10;stroke-dasharray:none;stroke-opacity:1"
       id="path3520"
       transform="translate(-44.393504,-111.55686)" />
    <path
       d="m 80.838711,141.19159 c 0.128517,-0.1856 0.221615,-0.35772 0.280917,-0.51442 l 0.2794,0.11782 c -0.07842,0.21739 -0.202495,0.4347 -0.371899,0.6513 0.124884,0.2243 0.187678,0.47198 0.187678,0.74359 0,0.27449 -0.06629,0.52281 -0.198296,0.74651 -0.132574,0.22289 -0.318206,0.39508 -0.557989,0.51569 -0.239889,0.12069 -0.510187,0.18069 -0.810013,0.18069 -0.299191,0 -0.5715,-0.0607 -0.816998,-0.1821 -0.244898,-0.12129 -0.4318,-0.29348 -0.560176,-0.51777 -0.127811,-0.22373 -0.192017,-0.47421 -0.192017,-0.75071 0,-0.28011 0.06639,-0.53199 0.199708,-0.7571 0.132679,-0.2244 0.318911,-0.39582 0.558094,-0.51361 0.239183,-0.1179 0.508706,-0.17639 0.809308,-0.17639 0.24899,0 0.473392,0.0374 0.672394,0.1136 0.198896,0.0755 0.372498,0.18979 0.519889,0.3429 z m -0.512904,0.88258 c 0.06491,-0.23139 0.161607,-0.42189 0.290019,-0.57217 -0.215195,-0.23562 -0.538304,-0.35352 -0.969398,-0.35352 -0.245604,0 -0.460093,0.0417 -0.643502,0.12492 -0.182704,0.0833 -0.325297,0.20528 -0.426897,0.36547 -0.100824,0.1608 -0.151624,0.34082 -0.151624,0.54109 0,0.29852 0.102306,0.54681 0.306917,0.74373 0.204611,0.19749 0.510081,0.29559 0.917187,0.29559 0.3937,0 0.696419,-0.0974 0.907309,-0.2921 0.210291,-0.1954 0.316089,-0.4445 0.316089,-0.74722 0,-0.14389 -0.02678,-0.27869 -0.0804,-0.40569 -0.08188,0.12562 -0.1397,0.2583 -0.173602,0.3973"
       style="fill:#000000;fill-opacity:1;fill-rule:evenodd;stroke:none;stroke-width:0.352778"
       id="path3526"
       transform="translate(-44.393504,-111.55686)" />
    <path
       d="m 82.147516,140.31239 h -1.646202 v -0.25082 h 0.233892 c -0.180975,-0.12118 -0.271498,-0.29581 -0.271498,-0.52388 0,-0.0994 0.01803,-0.1905 0.05341,-0.2735 0.03598,-0.0836 0.08259,-0.1456 0.140794,-0.1868 0.05771,-0.0418 0.126506,-0.0704 0.205811,-0.0873 0.05189,-0.0101 0.142381,-0.0154 0.271497,-0.0154 h 1.012296 v 0.2794 h -1.001712 c -0.113277,0 -0.198473,0.0106 -0.255094,0.0323 -0.05609,0.0217 -0.101,0.0603 -0.134408,0.11539 -0.0338,0.0555 -0.0508,0.12012 -0.0508,0.1947 0,0.11902 0.0381,0.22122 0.113312,0.30801 0.0756,0.0862 0.21851,0.12911 0.429613,0.12911 h 0.899089"
       style="fill:#000000;fill-opacity:1;fill-rule:evenodd;stroke:none;stroke-width:0.352778"
       id="path3528"
       transform="translate(-44.393504,-111.55686)" />
    <path
       d="m 81.78031,137.96088 h -0.623394 v 0.6186 h -0.260385 v -0.6186 h -0.618525 v -0.26359 h 0.618525 v -0.6186 h 0.260385 v 0.6186 h 0.623394"
       style="fill:#000000;fill-opacity:1;fill-rule:evenodd;stroke:none;stroke-width:0.352778"
       id="path3530"
       transform="translate(-44.393504,-111.55686)" />
    <path
       d="m 82.147516,135.7193 v 0.27887 h -1.778 c 0.06399,0.0672 0.128094,0.15501 0.192088,0.26402 0.06403,0.10961 0.112218,0.2075 0.143898,0.29428 h -0.269276 c -0.07362,-0.15621 -0.162524,-0.29269 -0.2667,-0.40961 -0.10481,-0.11638 -0.205916,-0.19949 -0.303812,-0.24817 v -0.17939"
       style="fill:#000000;fill-opacity:1;fill-rule:evenodd;stroke:none;stroke-width:0.352778"
       id="path3532"
       transform="translate(-44.393504,-111.55686)" />
  </g>
</svg>
